  0
SECTION
  2
HEADER
  9
$ACADVER
  1
AC1015
  9
$ACADMAINTVER
 70
     6
  9
$DWGCODEPAGE
  3
ANSI_1252
  9
$INSBASE
 10
0.0
 20
0.0
 30
0.0
  9
$EXTMIN
 10
-32.939338184
 20
-32.939338184
 30
0.0
  9
$EXTMAX
 10
32.939338184
 20
32.939338184
 30
0.0
  9
$LIMMIN
 10
0.0
 20
0.0
  9
$LIMMAX
 10
420.0
 20
297.0
  9
$ORTHOMODE
 70
     0
  9
$REGENMODE
 70
     1
  9
$FILLMODE
 70
     1
  9
$QTEXTMODE
 70
     0
  9
$MIRRTEXT
 70
     1
  9
$LTSCALE
 40
1.0
  9
$ATTMODE
 70
     1
  9
$TEXTSIZE
 40
3.5
  9
$TRACEWID
 40
1.0
  9
$TEXTSTYLE
  7
Standard
  9
$CLAYER
  8
0
  9
$CELTYPE
  6
ByLayer
  9
$CECOLOR
 62
   256
  9
$CELTSCALE
 40
1.0
  9
$DISPSILH
 70
     0
  9
$DIMSCALE
 40
1.0
  9
$DIMASZ
 40
3.302
  9
$DIMEXO
 40
1.0
  9
$DIMDLI
 40
3.75
  9
$DIMRND
 40
0.0
  9
$DIMDLE
 40
0.0
  9
$DIMEXE
 40
1.0
  9
$DIMTP
 40
0.0
  9
$DIMTM
 40
0.0
  9
$DIMTXT
 40
3.5
  9
$DIMCEN
 40
2.5
  9
$DIMTSZ
 40
0.0
  9
$DIMTOL
 70
     0
  9
$DIMLIM
 70
     0
  9
$DIMTIH
 70
     1
  9
$DIMTOH
 70
     1
  9
$DIMSE1
 70
     0
  9
$DIMSE2
 70
     0
  9
$DIMTAD
 70
     1
  9
$DIMZIN
 70
     0
  9
$DIMBLK
  1

  9
$DIMASO
 70
     1
  9
$DIMSHO
 70
     1
  9
$DIMPOST
  1

  9
$DIMAPOST
  1

  9
$DIMALT
 70
     0
  9
$DIMALTD
 70
     3
  9
$DIMALTF
 40
0.0393700787
  9
$DIMLFAC
 40
1.0
  9
$DIMTOFL
 70
     1
  9
$DIMTVP
 40
0.0
  9
$DIMTIX
 70
     0
  9
$DIMSOXD
 70
     0
  9
$DIMSAH
 70
     0
  9
$DIMBLK1
  1

  9
$DIMBLK2
  1

  9
$DIMSTYLE
  2
ISO-25
  9
$DIMCLRD
 70
     0
  9
$DIMCLRE
 70
     0
  9
$DIMCLRT
 70
     0
  9
$DIMTFAC
 40
1.0
  9
$DIMGAP
 40
1.524
  9
$DIMJUST
 70
     0
  9
$DIMSD1
 70
     0
  9
$DIMSD2
 70
     0
  9
$DIMTOLJ
 70
     0
  9
$DIMTZIN
 70
     0
  9
$DIMALTZ
 70
     0
  9
$DIMALTTZ
 70
     0
  9
$DIMUPT
 70
     0
  9
$DIMDEC
 70
     2
  9
$DIMTDEC
 70
     2
  9
$DIMALTU
 70
     2
  9
$DIMALTTD
 70
     3
  9
$DIMTXSTY
  7
Standard
  9
$DIMAUNIT
 70
     0
  9
$DIMADEC
 70
     2
  9
$DIMALTRND
 40
0.0
  9
$DIMAZIN
 70
     0
  9
$DIMDSEP
 70
    44
  9
$DIMATFIT
 70
     3
  9
$DIMFRAC
 70
     0
  9
$DIMLDRBLK
  1

  9
$DIMLUNIT
 70
     2
  9
$DIMLWD
 70
    -2
  9
$DIMLWE
 70
    -2
  9
$DIMTMOVE
 70
     0
  9
$LUNITS
 70
     2
  9
$LUPREC
 70
     2
  9
$SKETCHINC
 40
1.0
  9
$FILLETRAD
 40
10.0
  9
$AUNITS
 70
     0
  9
$AUPREC
 70
     2
  9
$MENU
  1
.
  9
$ELEVATION
 40
0.0
  9
$PELEVATION
 40
0.0
  9
$THICKNESS
 40
0.0
  9
$LIMCHECK
 70
     0
  9
$CHAMFERA
 40
0.0
  9
$CHAMFERB
 40
0.0
  9
$CHAMFERC
 40
0.0
  9
$CHAMFERD
 40
0.0
  9
$SKPOLY
 70
     0
  9
$TDCREATE
 40
2456877.586468287
  9
$TDUCREATE
 40
2456877.461468287
  9
$TDUPDATE
 40
2456877.613234155
  9
$TDUUPDATE
 40
2456877.488234155
  9
$TDINDWG
 40
0.0136606829
  9
$TDUSRTIMER
 40
2456877.474573195
  9
$USRTIMER
 70
     1
  9
$ANGBASE
 50
0.0
  9
$ANGDIR
 70
     0
  9
$PDMODE
 70
     0
  9
$PDSIZE
 40
-1.0
  9
$PLINEWID
 40
0.0
  9
$SPLFRAME
 70
     0
  9
$SPLINETYPE
 70
     6
  9
$SPLINESEGS
 70
     8
  9
$HANDSEED
  5
2C9
  9
$SURFTAB1
 70
     6
  9
$SURFTAB2
 70
     6
  9
$SURFTYPE
 70
     6
  9
$SURFU
 70
     6
  9
$SURFV
 70
     6
  9
$UCSBASE
  2

  9
$UCSNAME
  2

  9
$UCSORG
 10
0.0
 20
0.0
 30
0.0
  9
$UCSXDIR
 10
1.0
 20
0.0
 30
0.0
  9
$UCSYDIR
 10
0.0
 20
1.0
 30
0.0
  9
$UCSORTHOREF
  2

  9
$UCSORTHOVIEW
 70
     0
  9
$UCSORGTOP
 10
0.0
 20
0.0
 30
0.0
  9
$UCSORGBOTTOM
 10
0.0
 20
0.0
 30
0.0
  9
$UCSORGLEFT
 10
0.0
 20
0.0
 30
0.0
  9
$UCSORGRIGHT
 10
0.0
 20
0.0
 30
0.0
  9
$UCSORGFRONT
 10
0.0
 20
0.0
 30
0.0
  9
$UCSORGBACK
 10
0.0
 20
0.0
 30
0.0
  9
$PUCSBASE
  2

  9
$PUCSNAME
  2

  9
$PUCSORG
 10
0.0
 20
0.0
 30
0.0
  9
$PUCSXDIR
 10
1.0
 20
0.0
 30
0.0
  9
$PUCSYDIR
 10
0.0
 20
1.0
 30
0.0
  9
$PUCSORTHOREF
  2

  9
$PUCSORTHOVIEW
 70
     0
  9
$PUCSORGTOP
 10
0.0
 20
0.0
 30
0.0
  9
$PUCSORGBOTTOM
 10
0.0
 20
0.0
 30
0.0
  9
$PUCSORGLEFT
 10
0.0
 20
0.0
 30
0.0
  9
$PUCSORGRIGHT
 10
0.0
 20
0.0
 30
0.0
  9
$PUCSORGFRONT
 10
0.0
 20
0.0
 30
0.0
  9
$PUCSORGBACK
 10
0.0
 20
0.0
 30
0.0
  9
$USERI1
 70
     0
  9
$USERI2
 70
     0
  9
$USERI3
 70
     0
  9
$USERI4
 70
     0
  9
$USERI5
 70
     0
  9
$USERR1
 40
0.0
  9
$USERR2
 40
0.0
  9
$USERR3
 40
0.0
  9
$USERR4
 40
0.0
  9
$USERR5
 40
0.0
  9
$WORLDVIEW
 70
     1
  9
$SHADEDGE
 70
     3
  9
$SHADEDIF
 70
    70
  9
$TILEMODE
 70
     1
  9
$MAXACTVP
 70
    64
  9
$PINSBASE
 10
0.0
 20
0.0
 30
0.0
  9
$PLIMCHECK
 70
     0
  9
$PEXTMIN
 10
1.000000000000000E+20
 20
1.000000000000000E+20
 30
1.000000000000000E+20
  9
$PEXTMAX
 10
-1.000000000000000E+20
 20
-1.000000000000000E+20
 30
-1.000000000000000E+20
  9
$PLIMMIN
 10
0.0
 20
0.0
  9
$PLIMMAX
 10
0.0
 20
0.0
  9
$UNITMODE
 70
     0
  9
$VISRETAIN
 70
     1
  9
$PLINEGEN
 70
     0
  9
$PSLTSCALE
 70
     1
  9
$TREEDEPTH
 70
  3020
  9
$CMLSTYLE
  2
Standard
  9
$CMLJUST
 70
     0
  9
$CMLSCALE
 40
20.0
  9
$PROXYGRAPHICS
 70
     1
  9
$MEASUREMENT
 70
     1
  9
$CELWEIGHT
370
    -1
  9
$ENDCAPS
280
     0
  9
$JOINSTYLE
280
     0
  9
$LWDISPLAY
290
     1
  9
$INSUNITS
 70
     4
  9
$HYPERLINKBASE
  1

  9
$STYLESHEET
  1

  9
$XEDIT
290
     1
  9
$CEPSNTYPE
380
     0
  9
$PSTYLEMODE
290
     1
  9
$FINGERPRINTGUID
  2
{4E5D0283-5BE0-4A6B-925C-396F0EA9C85A}
  9
$VERSIONGUID
  2
{FAEB1C32-E019-11D5-929B-00C0DF256EC4}
  9
$EXTNAMES
290
     1
  9
$PSVPSCALE
 40
0.0
  9
$OLESTARTUP
290
     0
  0
ENDSEC
  0
SECTION
  2
CLASSES
  0
CLASS
  1
ACDBDICTIONARYWDFLT
  2
AcDbDictionaryWithDefault
  3
ObjectDBX Classes
 90
        0
280
     0
281
     0
  0
CLASS
  1
VISUALSTYLE
  2
AcDbVisualStyle
  3
ObjectDBX Classes
 90
     4095
280
     0
281
     0
  0
CLASS
  1
MATERIAL
  2
AcDbMaterial
  3
ObjectDBX Classes
 90
     1153
280
     0
281
     0
  0
CLASS
  1
SCALE
  2
AcDbScale
  3
ObjectDBX Classes
 90
     1153
280
     0
281
     0
  0
CLASS
  1
SUN
  2
AcDbSun
  3
SCENEOE
 90
     1153
280
     0
281
     0
  0
CLASS
  1
ACDBPLACEHOLDER
  2
AcDbPlaceHolder
  3
ObjectDBX Classes
 90
        0
280
     0
281
     0
  0
CLASS
  1
LAYOUT
  2
AcDbLayout
  3
ObjectDBX Classes
 90
        0
280
     0
281
     0
  0
CLASS
  1
TABLESTYLE
  2
AcDbTableStyle
  3
ObjectDBX Classes
 90
     4095
280
     0
281
     0
  0
CLASS
  1
RASTERVARIABLES
  2
AcDbRasterVariables
  3
ISM
 90
        0
280
     0
281
     0
  0
CLASS
  1
DICTIONARYVAR
  2
AcDbDictionaryVar
  3
ObjectDBX Classes
 90
        0
280
     0
281
     0
  0
ENDSEC
  0
SECTION
  2
TABLES
  0
TABLE
  2
VPORT
  5
8
330
0
100
AcDbSymbolTable
 70
     1
  0
VPORT
  5
29
330
8
100
AcDbSymbolTableRecord
100
AcDbViewportTableRecord
  2
*Active
 70
     0
 10
0.0
 20
0.0
 11
1.0
 21
1.0
 12
29.32546475714884
 22
83.17607521155237
 13
0.0
 23
0.0
 14
10.0
 24
10.0
 15
10.0
 25
10.0
 16
0.0
 26
0.0
 36
1.0
 17
0.0
 27
0.0
 37
0.0
 40
205.0666805889892
 41
1.586507072905332
 42
50.0
 43
0.0
 44
0.0
 50
0.0
 51
0.0
 71
    16
 72
   100
 73
     1
 74
     3
 75
     0
 76
     0
 77
     0
 78
     0
281
     0
 65
     1
110
0.0
120
0.0
130
0.0
111
1.0
121
0.0
131
0.0
112
0.0
122
1.0
132
0.0
 79
     0
146
0.0
  0
ENDTAB
  0
TABLE
  2
LTYPE
  5
5
330
0
100
AcDbSymbolTable
 70
     6
  0
LTYPE
  5
14
330
5
100
AcDbSymbolTableRecord
100
AcDbLinetypeTableRecord
  2
ByBlock
 70
     0
  3

 72
    65
 73
     0
 40
0.0
  0
LTYPE
  5
15
330
5
100
AcDbSymbolTableRecord
100
AcDbLinetypeTableRecord
  2
ByLayer
 70
     0
  3

 72
    65
 73
     0
 40
0.0
  0
LTYPE
  5
16
330
5
100
AcDbSymbolTableRecord
100
AcDbLinetypeTableRecord
  2
Continuous
 70
     0
  3
Solid line
 72
    65
 73
     0
 40
0.0
  0
LTYPE
  5
6A
330
5
100
AcDbSymbolTableRecord
100
AcDbLinetypeTableRecord
  2
HIDDEN
 70
     0
  3
Hidden __ __ __ __ __ __ __ __ __ __ __ __ __ __
 72
    65
 73
     2
 40
1.905
 49
1.27
 74
     0
 49
-0.635
 74
     0
  0
LTYPE
  5
6B
330
5
100
AcDbSymbolTableRecord
100
AcDbLinetypeTableRecord
  2
PHANTOM
 70
     0
  3
Phantom ______  __  __  ______  __  __  ______
 72
    65
 73
     6
 40
12.7
 49
6.35
 74
     0
 49
-1.27
 74
     0
 49
1.27
 74
     0
 49
-1.27
 74
     0
 49
1.27
 74
     0
 49
-1.27
 74
     0
  0
LTYPE
  5
6C
330
5
100
AcDbSymbolTableRecord
100
AcDbLinetypeTableRecord
  2
CENTER
 70
     0
  3
Center ____ _ ____ _ ____ _ ____ _ ____ _ ____
 72
    65
 73
     4
 40
10.16
 49
6.35
 74
     0
 49
-1.27
 74
     0
 49
1.27
 74
     0
 49
-1.27
 74
     0
  0
LTYPE
  5
6D
330
5
100
AcDbSymbolTableRecord
100
AcDbLinetypeTableRecord
  2
CENTERX2
 70
     0
  3
Center (2x) ________  __  ________  __  _____
 72
    65
 73
     4
 40
20.32
 49
12.7
 74
     0
 49
-2.54
 74
     0
 49
2.54
 74
     0
 49
-2.54
 74
     0
  0
LTYPE
  5
6E
330
5
100
AcDbSymbolTableRecord
100
AcDbLinetypeTableRecord
  2
DOT2
 70
     0
  3
Dot (.5x) ........................................
 72
    65
 73
     2
 40
0.635
 49
0.0
 74
     0
 49
-0.635
 74
     0
  0
ENDTAB
  0
TABLE
  2
LAYER
  5
2
330
0
100
AcDbSymbolTable
 70
     1
  0
LAYER
  5
10
330
2
100
AcDbSymbolTableRecord
100
AcDbLayerTableRecord
  2
0
 70
     0
 62
     7
  6
Continuous
370
    -3
390
F
  0
ENDTAB
  0
TABLE
  2
STYLE
  5
3
330
0
100
AcDbSymbolTable
 70
     2
  0
STYLE
  5
11
330
3
100
AcDbSymbolTableRecord
100
AcDbTextStyleTableRecord
  2
Standard
 70
     0
 40
0.0
 41
1.0
 50
0.0
 71
     0
 42
3.5
  3
txt
  4

  0
STYLE
  5
13C
330
3
100
AcDbSymbolTableRecord
100
AcDbTextStyleTableRecord
  2
SLDTEXTSTYLE0
 70
     0
 40
0.0
 41
0.7
 50
0.0
 71
     0
 42
3.5
  3
TXT
  4

  0
ENDTAB
  0
TABLE
  2
VIEW
  5
6
330
0
100
AcDbSymbolTable
 70
     0
  0
ENDTAB
  0
TABLE
  2
UCS
  5
7
330
0
100
AcDbSymbolTable
 70
     0
  0
ENDTAB
  0
TABLE
  2
APPID
  5
9
330
0
100
AcDbSymbolTable
 70
     1
  0
APPID
  5
12
330
9
100
AcDbSymbolTableRecord
100
AcDbRegAppTableRecord
  2
ACAD
 70
     0
  0
ENDTAB
  0
TABLE
  2
DIMSTYLE
  5
A
330
0
100
AcDbSymbolTable
 70
     1
100
AcDbDimStyleTable
  0
DIMSTYLE
105
27
330
A
100
AcDbSymbolTableRecord
100
AcDbDimStyleTableRecord
  2
ISO-25
 70
     0
 41
2.5
 42
0.625
 43
3.75
 44
1.25
 73
     0
 74
     0
 77
     1
 78
     8
140
2.5
141
2.5
143
0.0393700787
147
0.625
171
     3
172
     1
178
     0
271
     2
272
     2
274
     3
278
    44
283
     0
284
     8
340
11
  0
ENDTAB
  0
TABLE
  2
BLOCK_RECORD
  5
1
330
0
100
AcDbSymbolTable
 70
     1
  0
BLOCK_RECORD
  5
1F
330
1
100
AcDbSymbolTableRecord
100
AcDbBlockTableRecord
  2
*Model_Space
340
22
  0
BLOCK_RECORD
  5
1B
330
1
100
AcDbSymbolTableRecord
100
AcDbBlockTableRecord
  2
*Paper_Space
340
1E
  0
BLOCK_RECORD
  5
23
330
1
100
AcDbSymbolTableRecord
100
AcDbBlockTableRecord
  2
*Paper_Space0
340
26
  0
ENDTAB
  0
ENDSEC
  0
SECTION
  2
BLOCKS
  0
BLOCK
  5
20
330
1F
100
AcDbEntity
  8
0
100
AcDbBlockBegin
  2
*Model_Space
 70
     0
 10
0.0
 20
0.0
 30
0.0
  3
*Model_Space
  1
*Model_Space
  0
ENDBLK
  5
21
330
1F
100
AcDbEntity
  8
0
100
AcDbBlockEnd
  0
BLOCK
  5
1C
330
1B
100
AcDbEntity
 67
     1
  8
0
100
AcDbBlockBegin
  2
*Paper_Space
 70
     0
 10
0.0
 20
0.0
 30
0.0
  3
*Paper_Space
  1
*Paper_Space
  0
ENDBLK
  5
1D
330
1B
100
AcDbEntity
 67
     1
  8
0
100
AcDbBlockEnd
  0
BLOCK
  5
24
330
23
100
AcDbEntity
  8
0
100
AcDbBlockBegin
  2
*Paper_Space0
 70
     0
 10
0.0
 20
0.0
 30
0.0
  3
*Paper_Space0
  1
*Paper_Space0
  0
ENDBLK
  5
25
330
23
100
AcDbEntity
  8
0
100
AcDbBlockEnd
  0
ENDSEC
  0
SECTION
  2
ENTITIES
  0
CIRCLE
  5
6F
330
1F
100
AcDbEntity
  8
0
  6
Continuous
 62
     7
370
    15
100
AcDbCircle
 10
36.0
 20
36.0
 30
0.0
 40
12.71
  0
CIRCLE
  5
B8
330
1F
100
AcDbEntity
  8
0
  6
Continuous
 62
     7
370
    15
100
AcDbCircle
 10
38.34947146
 20
53.8460075047
 30
0.0
 40
2.999999999999987
  0
CIRCLE
  5
B9
330
1F
100
AcDbEntity
  8
0
  6
Continuous
 62
     7
370
    15
100
AcDbCircle
 10
21.7196398748
 20
46.9577057222
 30
0.0
 40
3.000000000000012
  0
CIRCLE
  5
BA
330
1F
100
AcDbEntity
  8
0
  6
Continuous
 62
     7
370
    15
100
AcDbCircle
 10
19.3701684148
 20
29.1116982174
 30
0.0
 40
3.000000000000021
  0
CIRCLE
  5
BB
330
1F
100
AcDbEntity
  8
0
  6
Continuous
 62
     7
370
    15
100
AcDbCircle
 10
33.65052854
 20
18.1539924953
 30
0.0
 40
2.999999999999988
  0
CIRCLE
  5
BC
330
1F
100
AcDbEntity
  8
0
  6
Continuous
 62
     7
370
    15
100
AcDbCircle
 10
50.2803601252
 20
25.0422942778
 30
0.0
 40
3.000000000000002
  0
CIRCLE
  5
BD
330
1F
100
AcDbEntity
  8
0
  6
Continuous
 62
     7
370
    15
100
AcDbCircle
 10
52.6298315852
 20
42.8883017826
 30
0.0
 40
3.000000000000004
  0
CIRCLE
  5
D6
330
1F
100
AcDbEntity
  8
0
  6
Continuous
 62
     7
370
    15
100
AcDbCircle
 10
19.3701684148
 20
29.1116982174
 30
0.0
 40
1.5
  0
CIRCLE
  5
D7
330
1F
100
AcDbEntity
  8
0
  6
Continuous
 62
     7
370
    15
100
AcDbCircle
 10
33.65052854
 20
18.1539924953
 30
0.0
 40
1.499999999999999
  0
CIRCLE
  5
D8
330
1F
100
AcDbEntity
  8
0
  6
Continuous
 62
     7
370
    15
100
AcDbCircle
 10
38.34947146
 20
53.8460075047
 30
0.0
 40
1.499999999999998
  0
CIRCLE
  5
D9
330
1F
100
AcDbEntity
  8
0
  6
Continuous
 62
     7
370
    15
100
AcDbCircle
 10
52.6298315852
 20
42.8883017826
 30
0.0
 40
1.499999999999996
  0
CIRCLE
  5
DA
330
1F
100
AcDbEntity
  8
0
  6
Continuous
 62
     7
370
    15
100
AcDbCircle
 10
50.2803601252
 20
25.0422942778
 30
0.0
 40
1.500000000000002
  0
CIRCLE
  5
DB
330
1F
100
AcDbEntity
  8
0
  6
Continuous
 62
     7
370
    15
100
AcDbCircle
 10
21.7196398748
 20
46.9577057222
 30
0.0
 40
1.5
  0
LINE
  5
DC
330
1F
100
AcDbEntity
  8
0
  6
Continuous
 62
     7
370
    15
100
AcDbLine
 10
50.7376182844
 20
65.5263036512
 30
0.0
 11
46.6179491924
 21
58.3908274735
 31
0.0
  0
LINE
  5
DD
330
1F
100
AcDbEntity
  8
0
  6
Continuous
 62
     7
370
    15
100
AcDbLine
 10
50.0820508076
 20
56.3908274735
 30
0.0
 11
54.2017198996
 21
63.5263036512
 31
0.0
  0
LINE
  5
DE
330
1F
100
AcDbEntity
  8
0
  6
Continuous
 62
     7
370
    15
100
AcDbLine
 10
57.8774158353
 20
60.7058429601
 30
0.0
 11
52.0513239329
 21
54.8797510577
 31
0.0
  0
LINE
  5
DF
330
1F
100
AcDbEntity
  8
0
  6
Continuous
 62
     7
370
    15
100
AcDbLine
 10
54.8797510577
 20
52.0513239329
 30
0.0
 11
60.7058429601
 21
57.8774158353
 31
0.0
  0
LINE
  5
E0
330
1F
100
AcDbEntity
  8
0
  6
Continuous
 62
     7
370
    15
100
AcDbLine
 10
63.5263036512
 20
54.2017198996
 30
0.0
 11
56.3908274735
 21
50.0820508076
 31
0.0
  0
LINE
  5
E1
330
1F
100
AcDbEntity
  8
0
  6
Continuous
 62
     7
370
    15
100
AcDbLine
 10
58.3908274735
 20
46.6179491924
 30
0.0
 11
65.5263036512
 21
50.7376182844
 31
0.0
  0
LINE
  5
E2
330
1F
100
AcDbEntity
  8
0
  6
Continuous
 62
     7
370
    15
100
AcDbLine
 10
67.2993193626
 20
46.4571797077
 30
0.0
 11
59.34072981910001
 21
44.3246820666
 31
0.0
  0
LINE
  5
E3
330
1F
100
AcDbEntity
  8
0
  6
Continuous
 62
     7
370
    15
100
AcDbLine
 10
60.37600599949999
 20
40.4609787615
 30
0.0
 11
68.334595543
 21
42.5934764025
 31
0.0
  0
LINE
  5
E4
330
1F
100
AcDbEntity
  8
0
  6
Continuous
 62
     7
370
    15
100
AcDbLine
 10
68.93933818400001
 20
38.0
 30
0.0
 11
60.7
 21
38.0
 31
0.0
  0
LINE
  5
E5
330
1F
100
AcDbEntity
  8
0
  6
Continuous
 62
     7
370
    15
100
AcDbLine
 10
60.7
 20
34.0
 30
0.0
 11
68.93933818400001
 21
34.0
 31
0.0
  0
LINE
  5
E6
330
1F
100
AcDbEntity
  8
0
  6
Continuous
 62
     7
370
    15
100
AcDbLine
 10
68.334595543
 20
29.4065235975
 30
0.0
 11
60.37600599949999
 21
31.5390212385
 31
0.0
  0
LINE
  5
E7
330
1F
100
AcDbEntity
  8
0
  6
Continuous
 62
     7
370
    15
100
AcDbLine
 10
59.34072981910001
 20
27.6753179334
 30
0.0
 11
67.2993193626
 21
25.5428202923
 31
0.0
  0
LINE
  5
E8
330
1F
100
AcDbEntity
  8
0
  6
Continuous
 62
     7
370
    15
100
AcDbLine
 10
65.5263036512
 20
21.2623817156
 30
0.0
 11
58.3908274735
 21
25.3820508076
 31
0.0
  0
LINE
  5
E9
330
1F
100
AcDbEntity
  8
0
  6
Continuous
 62
     7
370
    15
100
AcDbLine
 10
56.3908274735
 20
21.9179491924
 30
0.0
 11
63.5263036512
 21
17.7982801004
 31
0.0
  0
LINE
  5
EA
330
1F
100
AcDbEntity
  8
0
  6
Continuous
 62
     7
370
    15
100
AcDbLine
 10
60.7058429601
 20
14.1225841647
 30
0.0
 11
54.8797510577
 21
19.9486760671
 31
0.0
  0
LINE
  5
EB
330
1F
100
AcDbEntity
  8
0
  6
Continuous
 62
     7
370
    15
100
AcDbLine
 10
52.0513239329
 20
17.1202489423
 30
0.0
 11
57.8774158353
 21
11.2941570399
 31
0.0
  0
LINE
  5
EC
330
1F
100
AcDbEntity
  8
0
  6
Continuous
 62
     7
370
    15
100
AcDbLine
 10
54.2017198996
 20
8.4736963488
 30
0.0
 11
50.0820508076
 21
15.6091725265
 31
0.0
  0
LINE
  5
ED
330
1F
100
AcDbEntity
  8
0
  6
Continuous
 62
     7
370
    15
100
AcDbLine
 10
46.6179491924
 20
13.6091725265
 30
0.0
 11
50.7376182844
 21
6.473696348800001
 31
0.0
  0
LINE
  5
EE
330
1F
100
AcDbEntity
  8
0
  6
Continuous
 62
     7
370
    15
100
AcDbLine
 10
46.4571797077
 20
4.700680637400001
 30
0.0
 11
44.3246820666
 21
12.6592701809
 31
0.0
  0
LINE
  5
EF
330
1F
100
AcDbEntity
  8
0
  6
Continuous
 62
     7
370
    15
100
AcDbLine
 10
40.4609787615
 20
11.6239940005
 30
0.0
 11
42.5934764025
 21
3.665404457000001
 31
0.0
  0
LINE
  5
F0
330
1F
100
AcDbEntity
  8
0
  6
Continuous
 62
     7
370
    15
100
AcDbLine
 10
38.0
 20
3.060661816
 30
0.0
 11
38.0
 21
11.3
 31
0.0
  0
LINE
  5
F1
330
1F
100
AcDbEntity
  8
0
  6
Continuous
 62
     7
370
    15
100
AcDbLine
 10
34.0
 20
11.3
 30
0.0
 11
34.0
 21
3.060661816
 31
0.0
  0
LINE
  5
F2
330
1F
100
AcDbEntity
  8
0
  6
Continuous
 62
     7
370
    15
100
AcDbLine
 10
29.4065235975
 20
3.665404457000001
 30
0.0
 11
31.5390212385
 21
11.6239940005
 31
0.0
  0
LINE
  5
F3
330
1F
100
AcDbEntity
  8
0
  6
Continuous
 62
     7
370
    15
100
AcDbLine
 10
27.6753179334
 20
12.6592701809
 30
0.0
 11
25.5428202923
 21
4.700680637400001
 31
0.0
  0
LINE
  5
F4
330
1F
100
AcDbEntity
  8
0
  6
Continuous
 62
     7
370
    15
100
AcDbLine
 10
21.2623817156
 20
6.473696348800001
 30
0.0
 11
25.3820508076
 21
13.6091725265
 31
0.0
  0
LINE
  5
F5
330
1F
100
AcDbEntity
  8
0
  6
Continuous
 62
     7
370
    15
100
AcDbLine
 10
21.9179491924
 20
15.6091725265
 30
0.0
 11
17.7982801004
 21
8.4736963488
 31
0.0
  0
LINE
  5
F6
330
1F
100
AcDbEntity
  8
0
  6
Continuous
 62
     7
370
    15
100
AcDbLine
 10
14.1225841647
 20
11.2941570399
 30
0.0
 11
19.9486760671
 21
17.1202489423
 31
0.0
  0
LINE
  5
F7
330
1F
100
AcDbEntity
  8
0
  6
Continuous
 62
     7
370
    15
100
AcDbLine
 10
17.1202489423
 20
19.9486760671
 30
0.0
 11
11.2941570399
 21
14.1225841647
 31
0.0
  0
LINE
  5
F8
330
1F
100
AcDbEntity
  8
0
  6
Continuous
 62
     7
370
    15
100
AcDbLine
 10
8.4736963488
 20
17.7982801004
 30
0.0
 11
15.6091725265
 21
21.9179491924
 31
0.0
  0
LINE
  5
F9
330
1F
100
AcDbEntity
  8
0
  6
Continuous
 62
     7
370
    15
100
AcDbLine
 10
13.6091725265
 20
25.3820508076
 30
0.0
 11
6.473696348800001
 21
21.2623817156
 31
0.0
  0
LINE
  5
FA
330
1F
100
AcDbEntity
  8
0
  6
Continuous
 62
     7
370
    15
100
AcDbLine
 10
4.700680637400001
 20
25.5428202923
 30
0.0
 11
12.6592701809
 21
27.6753179334
 31
0.0
  0
LINE
  5
FB
330
1F
100
AcDbEntity
  8
0
  6
Continuous
 62
     7
370
    15
100
AcDbLine
 10
11.6239940005
 20
31.5390212385
 30
0.0
 11
3.665404457000001
 21
29.4065235975
 31
0.0
  0
LINE
  5
FC
330
1F
100
AcDbEntity
  8
0
  6
Continuous
 62
     7
370
    15
100
AcDbLine
 10
3.060661816
 20
34.0
 30
0.0
 11
11.3
 21
34.0
 31
0.0
  0
LINE
  5
FD
330
1F
100
AcDbEntity
  8
0
  6
Continuous
 62
     7
370
    15
100
AcDbLine
 10
11.3
 20
38.0
 30
0.0
 11
3.060661816
 21
38.0
 31
0.0
  0
LINE
  5
FE
330
1F
100
AcDbEntity
  8
0
  6
Continuous
 62
     7
370
    15
100
AcDbLine
 10
3.665404457000001
 20
42.5934764025
 30
0.0
 11
11.6239940005
 21
40.4609787615
 31
0.0
  0
LINE
  5
FF
330
1F
100
AcDbEntity
  8
0
  6
Continuous
 62
     7
370
    15
100
AcDbLine
 10
12.6592701809
 20
44.3246820666
 30
0.0
 11
4.700680637400001
 21
46.4571797077
 31
0.0
  0
LINE
  5
100
330
1F
100
AcDbEntity
  8
0
  6
Continuous
 62
     7
370
    15
100
AcDbLine
 10
6.473696348800001
 20
50.7376182844
 30
0.0
 11
13.6091725265
 21
46.6179491924
 31
0.0
  0
LINE
  5
101
330
1F
100
AcDbEntity
  8
0
  6
Continuous
 62
     7
370
    15
100
AcDbLine
 10
15.6091725265
 20
50.0820508076
 30
0.0
 11
8.4736963488
 21
54.2017198996
 31
0.0
  0
LINE
  5
102
330
1F
100
AcDbEntity
  8
0
  6
Continuous
 62
     7
370
    15
100
AcDbLine
 10
11.2941570399
 20
57.8774158353
 30
0.0
 11
17.1202489423
 21
52.0513239329
 31
0.0
  0
LINE
  5
103
330
1F
100
AcDbEntity
  8
0
  6
Continuous
 62
     7
370
    15
100
AcDbLine
 10
19.9486760671
 20
54.8797510577
 30
0.0
 11
14.1225841647
 21
60.7058429601
 31
0.0
  0
LINE
  5
104
330
1F
100
AcDbEntity
  8
0
  6
Continuous
 62
     7
370
    15
100
AcDbLine
 10
17.7982801004
 20
63.5263036512
 30
0.0
 11
21.9179491924
 21
56.3908274735
 31
0.0
  0
LINE
  5
105
330
1F
100
AcDbEntity
  8
0
  6
Continuous
 62
     7
370
    15
100
AcDbLine
 10
25.3820508076
 20
58.3908274735
 30
0.0
 11
21.2623817156
 21
65.5263036512
 31
0.0
  0
LINE
  5
106
330
1F
100
AcDbEntity
  8
0
  6
Continuous
 62
     7
370
    15
100
AcDbLine
 10
25.5428202923
 20
67.2993193626
 30
0.0
 11
27.6753179334
 21
59.34072981910001
 31
0.0
  0
LINE
  5
107
330
1F
100
AcDbEntity
  8
0
  6
Continuous
 62
     7
370
    15
100
AcDbLine
 10
31.5390212385
 20
60.37600599949999
 30
0.0
 11
29.4065235975
 21
68.334595543
 31
0.0
  0
LINE
  5
108
330
1F
100
AcDbEntity
  8
0
  6
Continuous
 62
     7
370
    15
100
AcDbLine
 10
34.0
 20
68.93933818400001
 30
0.0
 11
34.0
 21
60.7
 31
0.0
  0
LINE
  5
109
330
1F
100
AcDbEntity
  8
0
  6
Continuous
 62
     7
370
    15
100
AcDbLine
 10
38.0
 20
60.7
 30
0.0
 11
38.0
 21
68.93933818400001
 31
0.0
  0
LINE
  5
10A
330
1F
100
AcDbEntity
  8
0
  6
Continuous
 62
     7
370
    15
100
AcDbLine
 10
42.5934764025
 20
68.334595543
 30
0.0
 11
40.4609787615
 21
60.37600599949999
 31
0.0
  0
LINE
  5
10B
330
1F
100
AcDbEntity
  8
0
  6
Continuous
 62
     7
370
    15
100
AcDbLine
 10
44.3246820666
 20
59.34072981910001
 30
0.0
 11
46.4571797077
 21
67.2993193626
 31
0.0
  0
ARC
  5
10C
330
1F
100
AcDbEntity
  8
0
  6
Continuous
 62
     7
370
    15
100
AcDbCircle
 10
48.35
 20
57.3908274735
 30
0.0
 40
1.999999999999998
100
AcDbArc
 50
150.0
 51
330.0
  0
ARC
  5
10D
330
1F
100
AcDbEntity
  8
0
  6
Continuous
 62
     7
370
    15
100
AcDbCircle
 10
53.4655374953
 20
53.4655374953
 30
0.0
 40
2.000000000000001
100
AcDbArc
 50
134.9999999999999
 51
315.0000000000002
  0
ARC
  5
10E
330
1F
100
AcDbEntity
  8
0
  6
Continuous
 62
     7
370
    15
100
AcDbCircle
 10
57.3908274735
 20
48.35
 30
0.0
 40
1.999999999999998
100
AcDbArc
 50
120.0
 51
300.0
  0
ARC
  5
10F
330
1F
100
AcDbEntity
  8
0
  6
Continuous
 62
     7
370
    15
100
AcDbCircle
 10
59.8583679093
 20
42.392830414
 30
0.0
 40
1.999999999999997
100
AcDbArc
 50
105.0
 51
285.0
  0
ARC
  5
110
330
1F
100
AcDbEntity
  8
0
  6
Continuous
 62
     7
370
    15
100
AcDbCircle
 10
60.7
 20
36.0
 30
0.0
 40
1.999999999999996
100
AcDbArc
 50
90.0
 51
270.0
  0
ARC
  5
111
330
1F
100
AcDbEntity
  8
0
  6
Continuous
 62
     7
370
    15
100
AcDbCircle
 10
59.8583679093
 20
29.607169586
 30
0.0
 40
1.999999999999997
100
AcDbArc
 50
75.00000000000001
 51
255.0
  0
ARC
  5
112
330
1F
100
AcDbEntity
  8
0
  6
Continuous
 62
     7
370
    15
100
AcDbCircle
 10
57.3908274735
 20
23.65
 30
0.0
 40
1.999999999999996
100
AcDbArc
 50
59.99999999999996
 51
239.9999999999999
  0
ARC
  5
113
330
1F
100
AcDbEntity
  8
0
  6
Continuous
 62
     7
370
    15
100
AcDbCircle
 10
53.4655374953
 20
18.5344625047
 30
0.0
 40
2.000000000000001
100
AcDbArc
 50
44.99999999999993
 51
225.0000000000001
  0
ARC
  5
114
330
1F
100
AcDbEntity
  8
0
  6
Continuous
 62
     7
370
    15
100
AcDbCircle
 10
48.35
 20
14.6091725265
 30
0.0
 40
1.999999999999997
100
AcDbArc
 50
30.00000000000004
 51
210.0
  0
ARC
  5
115
330
1F
100
AcDbEntity
  8
0
  6
Continuous
 62
     7
370
    15
100
AcDbCircle
 10
42.392830414
 20
12.1416320907
 30
0.0
 40
1.999999999999997
100
AcDbArc
 50
14.99999999999998
 51
194.9999999999999
  0
ARC
  5
116
330
1F
100
AcDbEntity
  8
0
  6
Continuous
 62
     7
370
    15
100
AcDbCircle
 10
36.0
 20
11.3
 30
0.0
 40
1.999999999999996
100
AcDbArc
 50
0.0
 51
180.0
  0
ARC
  5
117
330
1F
100
AcDbEntity
  8
0
  6
Continuous
 62
     7
370
    15
100
AcDbCircle
 10
29.607169586
 20
12.1416320907
 30
0.0
 40
1.999999999999997
100
AcDbArc
 50
345.0
 51
165.0
  0
ARC
  5
118
330
1F
100
AcDbEntity
  8
0
  6
Continuous
 62
     7
370
    15
100
AcDbCircle
 10
23.65
 20
14.6091725265
 30
0.0
 40
2.0
100
AcDbArc
 50
330.0
 51
150.0
  0
ARC
  5
119
330
1F
100
AcDbEntity
  8
0
  6
Continuous
 62
     7
370
    15
100
AcDbCircle
 10
18.5344625047
 20
18.5344625047
 30
0.0
 40
2.000000000000001
100
AcDbArc
 50
315.0
 51
135.0
  0
ARC
  5
11A
330
1F
100
AcDbEntity
  8
0
  6
Continuous
 62
     7
370
    15
100
AcDbCircle
 10
14.6091725265
 20
23.65
 30
0.0
 40
1.999999999999996
100
AcDbArc
 50
300.0
 51
119.9999999999999
  0
ARC
  5
11B
330
1F
100
AcDbEntity
  8
0
  6
Continuous
 62
     7
370
    15
100
AcDbCircle
 10
12.1416320907
 20
29.607169586
 30
0.0
 40
1.999999999999998
100
AcDbArc
 50
285.0
 51
105.0
  0
ARC
  5
11C
330
1F
100
AcDbEntity
  8
0
  6
Continuous
 62
     7
370
    15
100
AcDbCircle
 10
11.3
 20
36.0
 30
0.0
 40
1.999999999999996
100
AcDbArc
 50
270.0
 51
90.0
  0
ARC
  5
11D
330
1F
100
AcDbEntity
  8
0
  6
Continuous
 62
     7
370
    15
100
AcDbCircle
 10
12.1416320907
 20
42.392830414
 30
0.0
 40
1.999999999999998
100
AcDbArc
 50
255.0000000000001
 51
75.00000000000001
  0
ARC
  5
11E
330
1F
100
AcDbEntity
  8
0
  6
Continuous
 62
     7
370
    15
100
AcDbCircle
 10
14.6091725265
 20
48.35
 30
0.0
 40
2.0
100
AcDbArc
 50
239.9999999999999
 51
59.99999999999996
  0
ARC
  5
11F
330
1F
100
AcDbEntity
  8
0
  6
Continuous
 62
     7
370
    15
100
AcDbCircle
 10
18.5344625047
 20
53.4655374953
 30
0.0
 40
2.000000000000001
100
AcDbArc
 50
224.9999999999999
 51
45.00000000000008
  0
ARC
  5
120
330
1F
100
AcDbEntity
  8
0
  6
Continuous
 62
     7
370
    15
100
AcDbCircle
 10
23.65
 20
57.3908274735
 30
0.0
 40
1.999999999999996
100
AcDbArc
 50
209.9999999999999
 51
30.00000000000004
  0
ARC
  5
121
330
1F
100
AcDbEntity
  8
0
  6
Continuous
 62
     7
370
    15
100
AcDbCircle
 10
29.607169586
 20
59.8583679093
 30
0.0
 40
1.999999999999998
100
AcDbArc
 50
194.9999999999999
 51
14.99999999999996
  0
ARC
  5
122
330
1F
100
AcDbEntity
  8
0
  6
Continuous
 62
     7
370
    15
100
AcDbCircle
 10
36.0
 20
60.7
 30
0.0
 40
1.999999999999996
100
AcDbArc
 50
180.0
 51
0.0
  0
ARC
  5
123
330
1F
100
AcDbEntity
  8
0
  6
Continuous
 62
     7
370
    15
100
AcDbCircle
 10
42.392830414
 20
59.8583679093
 30
0.0
 40
1.999999999999997
100
AcDbArc
 50
165.0
 51
345.0
  0
ARC
  5
124
330
1F
100
AcDbEntity
  8
0
  6
Continuous
 62
     7
370
    15
100
AcDbCircle
 10
36.0
 20
36.0
 30
0.0
 40
32.99999999999883
100
AcDbArc
 50
78.4746007931
 51
86.5253992069
  0
ARC
  5
125
330
1F
100
AcDbEntity
  8
0
  6
Continuous
 62
     7
370
    15
100
AcDbCircle
 10
36.0
 20
36.0
 30
0.0
 40
32.99999999999673
100
AcDbArc
 50
93.47460079309998
 51
101.5253992069
  0
ARC
  5
126
330
1F
100
AcDbEntity
  8
0
  6
Continuous
 62
     7
370
    15
100
AcDbCircle
 10
36.0
 20
36.0
 30
0.0
 40
32.99999999999584
100
AcDbArc
 50
108.4746007931
 51
116.5253992069
  0
ARC
  5
127
330
1F
100
AcDbEntity
  8
0
  6
Continuous
 62
     7
370
    15
100
AcDbCircle
 10
36.0
 20
36.0
 30
0.0
 40
32.99999999999841
100
AcDbArc
 50
123.4746007931
 51
131.5253992069
  0
ARC
  5
128
330
1F
100
AcDbEntity
  8
0
  6
Continuous
 62
     7
370
    15
100
AcDbCircle
 10
36.0
 20
36.0
 30
0.0
 40
32.99999999999601
100
AcDbArc
 50
138.4746007931
 51
146.5253992069
  0
ARC
  5
129
330
1F
100
AcDbEntity
  8
0
  6
Continuous
 62
     7
370
    15
100
AcDbCircle
 10
36.0
 20
36.0
 30
0.0
 40
32.99999999999564
100
AcDbArc
 50
153.4746007931
 51
161.5253992069
  0
ARC
  5
12A
330
1F
100
AcDbEntity
  8
0
  6
Continuous
 62
     7
370
    15
100
AcDbCircle
 10
36.0
 20
36.0
 30
0.0
 40
32.99999999999672
100
AcDbArc
 50
168.4746007931
 51
176.5253992069
  0
ARC
  5
12B
330
1F
100
AcDbEntity
  8
0
  6
Continuous
 62
     7
370
    15
100
AcDbCircle
 10
36.0
 20
36.0
 30
0.0
 40
32.99999999999667
100
AcDbArc
 50
183.4746007931
 51
191.5253992069
  0
ARC
  5
12C
330
1F
100
AcDbEntity
  8
0
  6
Continuous
 62
     7
370
    15
100
AcDbCircle
 10
36.0
 20
36.0
 30
0.0
 40
32.99999999999292
100
AcDbArc
 50
198.4746007931
 51
206.5253992069
  0
ARC
  5
12D
330
1F
100
AcDbEntity
  8
0
  6
Continuous
 62
     7
370
    15
100
AcDbCircle
 10
36.0
 20
36.0
 30
0.0
 40
32.99999999999434
100
AcDbArc
 50
213.4746007931
 51
221.5253992069
  0
ARC
  5
12E
330
1F
100
AcDbEntity
  8
0
  6
Continuous
 62
     7
370
    15
100
AcDbCircle
 10
36.0
 20
36.0
 30
0.0
 40
32.99999999999734
100
AcDbArc
 50
228.4746007931
 51
236.5253992069
  0
ARC
  5
12F
330
1F
100
AcDbEntity
  8
0
  6
Continuous
 62
     7
370
    15
100
AcDbCircle
 10
36.0
 20
36.0
 30
0.0
 40
32.99999999999476
100
AcDbArc
 50
243.4746007931
 51
251.5253992069
  0
ARC
  5
130
330
1F
100
AcDbEntity
  8
0
  6
Continuous
 62
     7
370
    15
100
AcDbCircle
 10
36.0
 20
36.0
 30
0.0
 40
32.99999999999925
100
AcDbArc
 50
258.4746007931
 51
266.5253992069
  0
ARC
  5
131
330
1F
100
AcDbEntity
  8
0
  6
Continuous
 62
     7
370
    15
100
AcDbCircle
 10
36.0
 20
36.0
 30
0.0
 40
33.00000000000183
100
AcDbArc
 50
273.4746007931
 51
281.5253992069
  0
ARC
  5
132
330
1F
100
AcDbEntity
  8
0
  6
Continuous
 62
     7
370
    15
100
AcDbCircle
 10
36.0
 20
36.0
 30
0.0
 40
32.99999999999482
100
AcDbArc
 50
288.4746007931
 51
296.5253992069
  0
ARC
  5
133
330
1F
100
AcDbEntity
  8
0
  6
Continuous
 62
     7
370
    15
100
AcDbCircle
 10
36.0
 20
36.0
 30
0.0
 40
32.99999999999773
100
AcDbArc
 50
303.4746007931
 51
311.5253992069
  0
ARC
  5
134
330
1F
100
AcDbEntity
  8
0
  6
Continuous
 62
     7
370
    15
100
AcDbCircle
 10
36.0
 20
36.0
 30
0.0
 40
32.99999999999605
100
AcDbArc
 50
318.4746007931
 51
326.5253992069
  0
ARC
  5
135
330
1F
100
AcDbEntity
  8
0
  6
Continuous
 62
     7
370
    15
100
AcDbCircle
 10
36.0
 20
36.0
 30
0.0
 40
32.99999999999454
100
AcDbArc
 50
333.4746007931
 51
341.5253992069
  0
ARC
  5
136
330
1F
100
AcDbEntity
  8
0
  6
Continuous
 62
     7
370
    15
100
AcDbCircle
 10
36.0
 20
36.0
 30
0.0
 40
32.99999999999805
100
AcDbArc
 50
348.4746007931
 51
356.5253992069
  0
ARC
  5
137
330
1F
100
AcDbEntity
  8
0
  6
Continuous
 62
     7
370
    15
100
AcDbCircle
 10
36.0
 20
36.0
 30
0.0
 40
32.99999999999377
100
AcDbArc
 50
3.474600793100005
 51
11.5253992069
  0
ARC
  5
138
330
1F
100
AcDbEntity
  8
0
  6
Continuous
 62
     7
370
    15
100
AcDbCircle
 10
36.0
 20
36.0
 30
0.0
 40
32.99999999999632
100
AcDbArc
 50
18.4746007931
 51
26.52539920689999
  0
ARC
  5
139
330
1F
100
AcDbEntity
  8
0
  6
Continuous
 62
     7
370
    15
100
AcDbCircle
 10
36.0
 20
36.0
 30
0.0
 40
32.99999999999579
100
AcDbArc
 50
33.4746007931
 51
41.5253992069
  0
ARC
  5
13A
330
1F
100
AcDbEntity
  8
0
  6
Continuous
 62
     7
370
    15
100
AcDbCircle
 10
36.0
 20
36.0
 30
0.0
 40
32.99999999999681
100
AcDbArc
 50
48.47460079310001
 51
56.52539920689999
  0
ARC
  5
13B
330
1F
100
AcDbEntity
  8
0
  6
Continuous
 62
     7
370
    15
100
AcDbCircle
 10
36.0
 20
36.0
 30
0.0
 40
32.99999999999685
100
AcDbArc
 50
63.4746007931
 51
71.5253992069
  0
POINT
  5
161
330
1F
100
AcDbEntity
  8
0
100
AcDbPoint
 10
21.7196398748
 20
46.9577057222
 30
0.0
  0
POINT
  5
162
330
1F
100
AcDbEntity
  8
0
100
AcDbPoint
 10
38.34947146
 20
53.8460075047
 30
0.0
  0
POINT
  5
163
330
1F
100
AcDbEntity
  8
0
100
AcDbPoint
 10
52.6298315852
 20
42.8883017826
 30
0.0
  0
POINT
  5
164
330
1F
100
AcDbEntity
  8
0
100
AcDbPoint
 10
50.2803601252
 20
25.0422942778
 30
0.0
  0
POINT
  5
165
330
1F
100
AcDbEntity
  8
0
100
AcDbPoint
 10
33.65052854
 20
18.1539924953
 30
0.0
  0
POINT
  5
166
330
1F
100
AcDbEntity
  8
0
100
AcDbPoint
 10
19.3701684148
 20
29.1116982174
 30
0.0
  0
CIRCLE
  5
168
330
1F
100
AcDbEntity
  8
0
  6
Continuous
 62
     7
370
    15
100
AcDbCircle
 10
108.0
 20
36.0
 30
0.0
 40
12.71
  0
CIRCLE
  5
169
330
1F
100
AcDbEntity
  8
0
  6
Continuous
 62
     7
370
    15
100
AcDbCircle
 10
110.34947146
 20
53.8460075047
 30
0.0
 40
2.999999999999987
  0
CIRCLE
  5
16A
330
1F
100
AcDbEntity
  8
0
  6
Continuous
 62
     7
370
    15
100
AcDbCircle
 10
93.71963987480001
 20
46.9577057222
 30
0.0
 40
3.000000000000012
  0
CIRCLE
  5
16B
330
1F
100
AcDbEntity
  8
0
  6
Continuous
 62
     7
370
    15
100
AcDbCircle
 10
91.37016841479999
 20
29.1116982174
 30
0.0
 40
3.000000000000021
  0
CIRCLE
  5
16C
330
1F
100
AcDbEntity
  8
0
  6
Continuous
 62
     7
370
    15
100
AcDbCircle
 10
105.65052854
 20
18.1539924953
 30
0.0
 40
2.999999999999988
  0
CIRCLE
  5
16D
330
1F
100
AcDbEntity
  8
0
  6
Continuous
 62
     7
370
    15
100
AcDbCircle
 10
122.2803601252
 20
25.0422942778
 30
0.0
 40
3.000000000000002
  0
CIRCLE
  5
16E
330
1F
100
AcDbEntity
  8
0
  6
Continuous
 62
     7
370
    15
100
AcDbCircle
 10
124.6298315852
 20
42.8883017826
 30
0.0
 40
3.000000000000004
  0
CIRCLE
  5
16F
330
1F
100
AcDbEntity
  8
0
  6
Continuous
 62
     7
370
    15
100
AcDbCircle
 10
91.37016841479999
 20
29.1116982174
 30
0.0
 40
1.5
  0
CIRCLE
  5
170
330
1F
100
AcDbEntity
  8
0
  6
Continuous
 62
     7
370
    15
100
AcDbCircle
 10
105.65052854
 20
18.1539924953
 30
0.0
 40
1.499999999999999
  0
CIRCLE
  5
171
330
1F
100
AcDbEntity
  8
0
  6
Continuous
 62
     7
370
    15
100
AcDbCircle
 10
110.34947146
 20
53.8460075047
 30
0.0
 40
1.499999999999998
  0
CIRCLE
  5
172
330
1F
100
AcDbEntity
  8
0
  6
Continuous
 62
     7
370
    15
100
AcDbCircle
 10
124.6298315852
 20
42.8883017826
 30
0.0
 40
1.499999999999996
  0
CIRCLE
  5
173
330
1F
100
AcDbEntity
  8
0
  6
Continuous
 62
     7
370
    15
100
AcDbCircle
 10
122.2803601252
 20
25.0422942778
 30
0.0
 40
1.500000000000002
  0
CIRCLE
  5
174
330
1F
100
AcDbEntity
  8
0
  6
Continuous
 62
     7
370
    15
100
AcDbCircle
 10
93.71963987480001
 20
46.9577057222
 30
0.0
 40
1.5
  0
LINE
  5
175
330
1F
100
AcDbEntity
  8
0
  6
Continuous
 62
     7
370
    15
100
AcDbLine
 10
122.7376182844
 20
65.5263036512
 30
0.0
 11
118.6179491924
 21
58.3908274735
 31
0.0
  0
LINE
  5
176
330
1F
100
AcDbEntity
  8
0
  6
Continuous
 62
     7
370
    15
100
AcDbLine
 10
122.0820508076
 20
56.3908274735
 30
0.0
 11
126.2017198996
 21
63.5263036512
 31
0.0
  0
LINE
  5
177
330
1F
100
AcDbEntity
  8
0
  6
Continuous
 62
     7
370
    15
100
AcDbLine
 10
129.8774158353
 20
60.7058429601
 30
0.0
 11
124.0513239329
 21
54.8797510577
 31
0.0
  0
LINE
  5
178
330
1F
100
AcDbEntity
  8
0
  6
Continuous
 62
     7
370
    15
100
AcDbLine
 10
126.8797510577
 20
52.0513239329
 30
0.0
 11
132.7058429601
 21
57.8774158353
 31
0.0
  0
LINE
  5
179
330
1F
100
AcDbEntity
  8
0
  6
Continuous
 62
     7
370
    15
100
AcDbLine
 10
135.5263036512
 20
54.2017198996
 30
0.0
 11
128.3908274735
 21
50.0820508076
 31
0.0
  0
LINE
  5
17A
330
1F
100
AcDbEntity
  8
0
  6
Continuous
 62
     7
370
    15
100
AcDbLine
 10
130.3908274735
 20
46.6179491924
 30
0.0
 11
137.5263036512
 21
50.7376182844
 31
0.0
  0
LINE
  5
17B
330
1F
100
AcDbEntity
  8
0
  6
Continuous
 62
     7
370
    15
100
AcDbLine
 10
139.2993193626
 20
46.4571797077
 30
0.0
 11
131.3407298191
 21
44.3246820666
 31
0.0
  0
LINE
  5
17C
330
1F
100
AcDbEntity
  8
0
  6
Continuous
 62
     7
370
    15
100
AcDbLine
 10
132.3760059995
 20
40.4609787615
 30
0.0
 11
140.334595543
 21
42.5934764025
 31
0.0
  0
LINE
  5
17D
330
1F
100
AcDbEntity
  8
0
  6
Continuous
 62
     7
370
    15
100
AcDbLine
 10
140.939338184
 20
38.0
 30
0.0
 11
132.7
 21
38.0
 31
0.0
  0
LINE
  5
17E
330
1F
100
AcDbEntity
  8
0
  6
Continuous
 62
     7
370
    15
100
AcDbLine
 10
132.7
 20
34.0
 30
0.0
 11
140.939338184
 21
34.0
 31
0.0
  0
LINE
  5
17F
330
1F
100
AcDbEntity
  8
0
  6
Continuous
 62
     7
370
    15
100
AcDbLine
 10
140.334595543
 20
29.4065235975
 30
0.0
 11
132.3760059995
 21
31.5390212385
 31
0.0
  0
LINE
  5
180
330
1F
100
AcDbEntity
  8
0
  6
Continuous
 62
     7
370
    15
100
AcDbLine
 10
131.3407298191
 20
27.6753179334
 30
0.0
 11
139.2993193626
 21
25.5428202923
 31
0.0
  0
LINE
  5
181
330
1F
100
AcDbEntity
  8
0
  6
Continuous
 62
     7
370
    15
100
AcDbLine
 10
137.5263036512
 20
21.2623817156
 30
0.0
 11
130.3908274735
 21
25.3820508076
 31
0.0
  0
LINE
  5
182
330
1F
100
AcDbEntity
  8
0
  6
Continuous
 62
     7
370
    15
100
AcDbLine
 10
128.3908274735
 20
21.9179491924
 30
0.0
 11
135.5263036512
 21
17.7982801004
 31
0.0
  0
LINE
  5
183
330
1F
100
AcDbEntity
  8
0
  6
Continuous
 62
     7
370
    15
100
AcDbLine
 10
132.7058429601
 20
14.1225841647
 30
0.0
 11
126.8797510577
 21
19.9486760671
 31
0.0
  0
LINE
  5
184
330
1F
100
AcDbEntity
  8
0
  6
Continuous
 62
     7
370
    15
100
AcDbLine
 10
124.0513239329
 20
17.1202489423
 30
0.0
 11
129.8774158353
 21
11.2941570399
 31
0.0
  0
LINE
  5
185
330
1F
100
AcDbEntity
  8
0
  6
Continuous
 62
     7
370
    15
100
AcDbLine
 10
126.2017198996
 20
8.4736963488
 30
0.0
 11
122.0820508076
 21
15.6091725265
 31
0.0
  0
LINE
  5
186
330
1F
100
AcDbEntity
  8
0
  6
Continuous
 62
     7
370
    15
100
AcDbLine
 10
118.6179491924
 20
13.6091725265
 30
0.0
 11
122.7376182844
 21
6.473696348800001
 31
0.0
  0
LINE
  5
187
330
1F
100
AcDbEntity
  8
0
  6
Continuous
 62
     7
370
    15
100
AcDbLine
 10
118.4571797077
 20
4.700680637400001
 30
0.0
 11
116.3246820666
 21
12.6592701809
 31
0.0
  0
LINE
  5
188
330
1F
100
AcDbEntity
  8
0
  6
Continuous
 62
     7
370
    15
100
AcDbLine
 10
112.4609787615
 20
11.6239940005
 30
0.0
 11
114.5934764025
 21
3.665404457000001
 31
0.0
  0
LINE
  5
189
330
1F
100
AcDbEntity
  8
0
  6
Continuous
 62
     7
370
    15
100
AcDbLine
 10
110.0
 20
3.060661816
 30
0.0
 11
110.0
 21
11.3
 31
0.0
  0
LINE
  5
18A
330
1F
100
AcDbEntity
  8
0
  6
Continuous
 62
     7
370
    15
100
AcDbLine
 10
106.0
 20
11.3
 30
0.0
 11
106.0
 21
3.060661816
 31
0.0
  0
LINE
  5
18B
330
1F
100
AcDbEntity
  8
0
  6
Continuous
 62
     7
370
    15
100
AcDbLine
 10
101.4065235975
 20
3.665404457000001
 30
0.0
 11
103.5390212385
 21
11.6239940005
 31
0.0
  0
LINE
  5
18C
330
1F
100
AcDbEntity
  8
0
  6
Continuous
 62
     7
370
    15
100
AcDbLine
 10
99.67531793340001
 20
12.6592701809
 30
0.0
 11
97.54282029230001
 21
4.700680637400001
 31
0.0
  0
LINE
  5
18D
330
1F
100
AcDbEntity
  8
0
  6
Continuous
 62
     7
370
    15
100
AcDbLine
 10
93.2623817156
 20
6.473696348800001
 30
0.0
 11
97.3820508076
 21
13.6091725265
 31
0.0
  0
LINE
  5
18E
330
1F
100
AcDbEntity
  8
0
  6
Continuous
 62
     7
370
    15
100
AcDbLine
 10
93.9179491924
 20
15.6091725265
 30
0.0
 11
89.7982801004
 21
8.4736963488
 31
0.0
  0
LINE
  5
18F
330
1F
100
AcDbEntity
  8
0
  6
Continuous
 62
     7
370
    15
100
AcDbLine
 10
86.1225841647
 20
11.2941570399
 30
0.0
 11
91.9486760671
 21
17.1202489423
 31
0.0
  0
LINE
  5
190
330
1F
100
AcDbEntity
  8
0
  6
Continuous
 62
     7
370
    15
100
AcDbLine
 10
89.12024894230001
 20
19.9486760671
 30
0.0
 11
83.2941570399
 21
14.1225841647
 31
0.0
  0
LINE
  5
191
330
1F
100
AcDbEntity
  8
0
  6
Continuous
 62
     7
370
    15
100
AcDbLine
 10
80.4736963488
 20
17.7982801004
 30
0.0
 11
87.6091725265
 21
21.9179491924
 31
0.0
  0
LINE
  5
192
330
1F
100
AcDbEntity
  8
0
  6
Continuous
 62
     7
370
    15
100
AcDbLine
 10
85.6091725265
 20
25.3820508076
 30
0.0
 11
78.4736963488
 21
21.2623817156
 31
0.0
  0
LINE
  5
193
330
1F
100
AcDbEntity
  8
0
  6
Continuous
 62
     7
370
    15
100
AcDbLine
 10
76.7006806374
 20
25.5428202923
 30
0.0
 11
84.6592701809
 21
27.6753179334
 31
0.0
  0
LINE
  5
194
330
1F
100
AcDbEntity
  8
0
  6
Continuous
 62
     7
370
    15
100
AcDbLine
 10
83.6239940005
 20
31.5390212385
 30
0.0
 11
75.665404457
 21
29.4065235975
 31
0.0
  0
LINE
  5
195
330
1F
100
AcDbEntity
  8
0
  6
Continuous
 62
     7
370
    15
100
AcDbLine
 10
75.06066181599999
 20
34.0
 30
0.0
 11
83.3
 21
34.0
 31
0.0
  0
LINE
  5
196
330
1F
100
AcDbEntity
  8
0
  6
Continuous
 62
     7
370
    15
100
AcDbLine
 10
83.3
 20
38.0
 30
0.0
 11
75.06066181599999
 21
38.0
 31
0.0
  0
LINE
  5
197
330
1F
100
AcDbEntity
  8
0
  6
Continuous
 62
     7
370
    15
100
AcDbLine
 10
75.665404457
 20
42.5934764025
 30
0.0
 11
83.6239940005
 21
40.4609787615
 31
0.0
  0
LINE
  5
198
330
1F
100
AcDbEntity
  8
0
  6
Continuous
 62
     7
370
    15
100
AcDbLine
 10
84.6592701809
 20
44.3246820666
 30
0.0
 11
76.7006806374
 21
46.4571797077
 31
0.0
  0
LINE
  5
199
330
1F
100
AcDbEntity
  8
0
  6
Continuous
 62
     7
370
    15
100
AcDbLine
 10
78.4736963488
 20
50.7376182844
 30
0.0
 11
85.6091725265
 21
46.6179491924
 31
0.0
  0
LINE
  5
19A
330
1F
100
AcDbEntity
  8
0
  6
Continuous
 62
     7
370
    15
100
AcDbLine
 10
87.6091725265
 20
50.0820508076
 30
0.0
 11
80.4736963488
 21
54.2017198996
 31
0.0
  0
LINE
  5
19B
330
1F
100
AcDbEntity
  8
0
  6
Continuous
 62
     7
370
    15
100
AcDbLine
 10
83.2941570399
 20
57.8774158353
 30
0.0
 11
89.12024894230001
 21
52.0513239329
 31
0.0
  0
LINE
  5
19C
330
1F
100
AcDbEntity
  8
0
  6
Continuous
 62
     7
370
    15
100
AcDbLine
 10
91.9486760671
 20
54.8797510577
 30
0.0
 11
86.1225841647
 21
60.7058429601
 31
0.0
  0
LINE
  5
19D
330
1F
100
AcDbEntity
  8
0
  6
Continuous
 62
     7
370
    15
100
AcDbLine
 10
89.7982801004
 20
63.5263036512
 30
0.0
 11
93.9179491924
 21
56.3908274735
 31
0.0
  0
LINE
  5
19E
330
1F
100
AcDbEntity
  8
0
  6
Continuous
 62
     7
370
    15
100
AcDbLine
 10
97.3820508076
 20
58.3908274735
 30
0.0
 11
93.2623817156
 21
65.5263036512
 31
0.0
  0
LINE
  5
19F
330
1F
100
AcDbEntity
  8
0
  6
Continuous
 62
     7
370
    15
100
AcDbLine
 10
97.54282029230001
 20
67.2993193626
 30
0.0
 11
99.67531793340001
 21
59.34072981910001
 31
0.0
  0
LINE
  5
1A0
330
1F
100
AcDbEntity
  8
0
  6
Continuous
 62
     7
370
    15
100
AcDbLine
 10
103.5390212385
 20
60.37600599949999
 30
0.0
 11
101.4065235975
 21
68.334595543
 31
0.0
  0
LINE
  5
1A1
330
1F
100
AcDbEntity
  8
0
  6
Continuous
 62
     7
370
    15
100
AcDbLine
 10
106.0
 20
68.93933818400001
 30
0.0
 11
106.0
 21
60.7
 31
0.0
  0
LINE
  5
1A2
330
1F
100
AcDbEntity
  8
0
  6
Continuous
 62
     7
370
    15
100
AcDbLine
 10
110.0
 20
60.7
 30
0.0
 11
110.0
 21
68.93933818400001
 31
0.0
  0
LINE
  5
1A3
330
1F
100
AcDbEntity
  8
0
  6
Continuous
 62
     7
370
    15
100
AcDbLine
 10
114.5934764025
 20
68.334595543
 30
0.0
 11
112.4609787615
 21
60.37600599949999
 31
0.0
  0
LINE
  5
1A4
330
1F
100
AcDbEntity
  8
0
  6
Continuous
 62
     7
370
    15
100
AcDbLine
 10
116.3246820666
 20
59.34072981910001
 30
0.0
 11
118.4571797077
 21
67.2993193626
 31
0.0
  0
ARC
  5
1A5
330
1F
100
AcDbEntity
  8
0
  6
Continuous
 62
     7
370
    15
100
AcDbCircle
 10
120.35
 20
57.3908274735
 30
0.0
 40
1.999999999999998
100
AcDbArc
 50
149.9999999999999
 51
330.0000000000001
  0
ARC
  5
1A6
330
1F
100
AcDbEntity
  8
0
  6
Continuous
 62
     7
370
    15
100
AcDbCircle
 10
125.4655374953
 20
53.4655374953
 30
0.0
 40
2.000000000000001
100
AcDbArc
 50
134.9999999999999
 51
315.0000000000003
  0
ARC
  5
1A7
330
1F
100
AcDbEntity
  8
0
  6
Continuous
 62
     7
370
    15
100
AcDbCircle
 10
129.3908274735
 20
48.35
 30
0.0
 40
1.999999999999998
100
AcDbArc
 50
120.0
 51
300.0
  0
ARC
  5
1A8
330
1F
100
AcDbEntity
  8
0
  6
Continuous
 62
     7
370
    15
100
AcDbCircle
 10
131.8583679093
 20
42.392830414
 30
0.0
 40
1.999999999999997
100
AcDbArc
 50
104.9999999999996
 51
284.9999999999996
  0
ARC
  5
1A9
330
1F
100
AcDbEntity
  8
0
  6
Continuous
 62
     7
370
    15
100
AcDbCircle
 10
132.7
 20
36.0
 30
0.0
 40
1.999999999999996
100
AcDbArc
 50
90.0
 51
270.0
  0
ARC
  5
1AA
330
1F
100
AcDbEntity
  8
0
  6
Continuous
 62
     7
370
    15
100
AcDbCircle
 10
131.8583679093
 20
29.607169586
 30
0.0
 40
1.999999999999997
100
AcDbArc
 50
75.00000000000041
 51
255.0000000000004
  0
ARC
  5
1AB
330
1F
100
AcDbEntity
  8
0
  6
Continuous
 62
     7
370
    15
100
AcDbCircle
 10
129.3908274735
 20
23.65
 30
0.0
 40
1.999999999999996
100
AcDbArc
 50
59.99999999999996
 51
239.9999999999999
  0
ARC
  5
1AC
330
1F
100
AcDbEntity
  8
0
  6
Continuous
 62
     7
370
    15
100
AcDbCircle
 10
125.4655374953
 20
18.5344625047
 30
0.0
 40
2.000000000000001
100
AcDbArc
 50
44.99999999999972
 51
225.0000000000001
  0
ARC
  5
1AD
330
1F
100
AcDbEntity
  8
0
  6
Continuous
 62
     7
370
    15
100
AcDbCircle
 10
120.35
 20
14.6091725265
 30
0.0
 40
1.999999999999997
100
AcDbArc
 50
29.99999999999993
 51
210.0000000000001
  0
ARC
  5
1AE
330
1F
100
AcDbEntity
  8
0
  6
Continuous
 62
     7
370
    15
100
AcDbCircle
 10
114.392830414
 20
12.1416320907
 30
0.0
 40
1.999999999999997
100
AcDbArc
 50
14.99999999999998
 51
194.9999999999999
  0
ARC
  5
1AF
330
1F
100
AcDbEntity
  8
0
  6
Continuous
 62
     7
370
    15
100
AcDbCircle
 10
108.0
 20
11.3
 30
0.0
 40
1.999999999999996
100
AcDbArc
 50
0.0
 51
180.0
  0
ARC
  5
1B0
330
1F
100
AcDbEntity
  8
0
  6
Continuous
 62
     7
370
    15
100
AcDbCircle
 10
101.607169586
 20
12.1416320907
 30
0.0
 40
1.999999999999997
100
AcDbArc
 50
345.0
 51
165.0
  0
ARC
  5
1B1
330
1F
100
AcDbEntity
  8
0
  6
Continuous
 62
     7
370
    15
100
AcDbCircle
 10
95.65
 20
14.6091725265
 30
0.0
 40
2.0
100
AcDbArc
 50
329.9999999999999
 51
150.0000000000001
  0
ARC
  5
1B2
330
1F
100
AcDbEntity
  8
0
  6
Continuous
 62
     7
370
    15
100
AcDbCircle
 10
90.5344625047
 20
18.5344625047
 30
0.0
 40
2.000000000000001
100
AcDbArc
 50
314.9999999999999
 51
135.0000000000002
  0
ARC
  5
1B3
330
1F
100
AcDbEntity
  8
0
  6
Continuous
 62
     7
370
    15
100
AcDbCircle
 10
86.6091725265
 20
23.65
 30
0.0
 40
1.999999999999996
100
AcDbArc
 50
300.0
 51
120.0
  0
ARC
  5
1B4
330
1F
100
AcDbEntity
  8
0
  6
Continuous
 62
     7
370
    15
100
AcDbCircle
 10
84.1416320907
 20
29.607169586
 30
0.0
 40
1.999999999999998
100
AcDbArc
 50
285.0
 51
105.0
  0
ARC
  5
1B5
330
1F
100
AcDbEntity
  8
0
  6
Continuous
 62
     7
370
    15
100
AcDbCircle
 10
83.3
 20
36.0
 30
0.0
 40
1.999999999999996
100
AcDbArc
 50
270.0
 51
90.0
  0
ARC
  5
1B6
330
1F
100
AcDbEntity
  8
0
  6
Continuous
 62
     7
370
    15
100
AcDbCircle
 10
84.1416320907
 20
42.392830414
 30
0.0
 40
1.999999999999998
100
AcDbArc
 50
255.0
 51
75.00000000000001
  0
ARC
  5
1B7
330
1F
100
AcDbEntity
  8
0
  6
Continuous
 62
     7
370
    15
100
AcDbCircle
 10
86.6091725265
 20
48.35
 30
0.0
 40
2.0
100
AcDbArc
 50
239.9999999999999
 51
59.99999999999996
  0
ARC
  5
1B8
330
1F
100
AcDbEntity
  8
0
  6
Continuous
 62
     7
370
    15
100
AcDbCircle
 10
90.5344625047
 20
53.4655374953
 30
0.0
 40
2.000000000000001
100
AcDbArc
 50
224.9999999999997
 51
45.00000000000015
  0
ARC
  5
1B9
330
1F
100
AcDbEntity
  8
0
  6
Continuous
 62
     7
370
    15
100
AcDbCircle
 10
95.65
 20
57.3908274735
 30
0.0
 40
1.999999999999996
100
AcDbArc
 50
209.9999999999997
 51
30.00000000000014
  0
ARC
  5
1BA
330
1F
100
AcDbEntity
  8
0
  6
Continuous
 62
     7
370
    15
100
AcDbCircle
 10
101.607169586
 20
59.8583679093
 30
0.0
 40
1.999999999999998
100
AcDbArc
 50
195.0
 51
14.99999999999998
  0
ARC
  5
1BB
330
1F
100
AcDbEntity
  8
0
  6
Continuous
 62
     7
370
    15
100
AcDbCircle
 10
108.0
 20
60.7
 30
0.0
 40
1.999999999999996
100
AcDbArc
 50
180.0
 51
0.0
  0
ARC
  5
1BC
330
1F
100
AcDbEntity
  8
0
  6
Continuous
 62
     7
370
    15
100
AcDbCircle
 10
114.392830414
 20
59.8583679093
 30
0.0
 40
1.999999999999997
100
AcDbArc
 50
165.0
 51
345.0
  0
ARC
  5
1BD
330
1F
100
AcDbEntity
  8
0
  6
Continuous
 62
     7
370
    15
100
AcDbCircle
 10
108.0
 20
36.0
 30
0.0
 40
32.99999999999883
100
AcDbArc
 50
78.4746007931
 51
86.52539920689999
  0
ARC
  5
1BE
330
1F
100
AcDbEntity
  8
0
  6
Continuous
 62
     7
370
    15
100
AcDbCircle
 10
108.0
 20
36.0
 30
0.0
 40
32.99999999999673
100
AcDbArc
 50
93.47460079309998
 51
101.5253992069
  0
ARC
  5
1BF
330
1F
100
AcDbEntity
  8
0
  6
Continuous
 62
     7
370
    15
100
AcDbCircle
 10
108.0
 20
36.0
 30
0.0
 40
32.99999999999584
100
AcDbArc
 50
108.4746007931
 51
116.5253992069
  0
ARC
  5
1C0
330
1F
100
AcDbEntity
  8
0
  6
Continuous
 62
     7
370
    15
100
AcDbCircle
 10
108.0
 20
36.0
 30
0.0
 40
32.99999999999841
100
AcDbArc
 50
123.4746007931
 51
131.5253992069
  0
ARC
  5
1C1
330
1F
100
AcDbEntity
  8
0
  6
Continuous
 62
     7
370
    15
100
AcDbCircle
 10
108.0
 20
36.0
 30
0.0
 40
32.99999999999601
100
AcDbArc
 50
138.4746007931
 51
146.5253992069
  0
ARC
  5
1C2
330
1F
100
AcDbEntity
  8
0
  6
Continuous
 62
     7
370
    15
100
AcDbCircle
 10
108.0
 20
36.0
 30
0.0
 40
32.99999999999564
100
AcDbArc
 50
153.4746007931
 51
161.5253992069
  0
ARC
  5
1C3
330
1F
100
AcDbEntity
  8
0
  6
Continuous
 62
     7
370
    15
100
AcDbCircle
 10
108.0
 20
36.0
 30
0.0
 40
32.99999999999672
100
AcDbArc
 50
168.4746007931
 51
176.5253992069
  0
ARC
  5
1C4
330
1F
100
AcDbEntity
  8
0
  6
Continuous
 62
     7
370
    15
100
AcDbCircle
 10
108.0
 20
36.0
 30
0.0
 40
32.99999999999667
100
AcDbArc
 50
183.4746007931
 51
191.5253992068999
  0
ARC
  5
1C5
330
1F
100
AcDbEntity
  8
0
  6
Continuous
 62
     7
370
    15
100
AcDbCircle
 10
108.0
 20
36.0
 30
0.0
 40
32.99999999999292
100
AcDbArc
 50
198.4746007931
 51
206.5253992069
  0
ARC
  5
1C6
330
1F
100
AcDbEntity
  8
0
  6
Continuous
 62
     7
370
    15
100
AcDbCircle
 10
108.0
 20
36.0
 30
0.0
 40
32.99999999999434
100
AcDbArc
 50
213.4746007931
 51
221.5253992068999
  0
ARC
  5
1C7
330
1F
100
AcDbEntity
  8
0
  6
Continuous
 62
     7
370
    15
100
AcDbCircle
 10
108.0
 20
36.0
 30
0.0
 40
32.99999999999734
100
AcDbArc
 50
228.4746007931
 51
236.5253992069
  0
ARC
  5
1C8
330
1F
100
AcDbEntity
  8
0
  6
Continuous
 62
     7
370
    15
100
AcDbCircle
 10
108.0
 20
36.0
 30
0.0
 40
32.99999999999476
100
AcDbArc
 50
243.4746007931
 51
251.5253992069
  0
ARC
  5
1C9
330
1F
100
AcDbEntity
  8
0
  6
Continuous
 62
     7
370
    15
100
AcDbCircle
 10
108.0
 20
36.0
 30
0.0
 40
32.99999999999925
100
AcDbArc
 50
258.4746007931
 51
266.5253992069
  0
ARC
  5
1CA
330
1F
100
AcDbEntity
  8
0
  6
Continuous
 62
     7
370
    15
100
AcDbCircle
 10
108.0
 20
36.0
 30
0.0
 40
33.00000000000183
100
AcDbArc
 50
273.4746007931
 51
281.5253992069
  0
ARC
  5
1CB
330
1F
100
AcDbEntity
  8
0
  6
Continuous
 62
     7
370
    15
100
AcDbCircle
 10
108.0
 20
36.0
 30
0.0
 40
32.99999999999482
100
AcDbArc
 50
288.4746007931
 51
296.5253992069
  0
ARC
  5
1CC
330
1F
100
AcDbEntity
  8
0
  6
Continuous
 62
     7
370
    15
100
AcDbCircle
 10
108.0
 20
36.0
 30
0.0
 40
32.99999999999773
100
AcDbArc
 50
303.4746007931
 51
311.5253992069
  0
ARC
  5
1CD
330
1F
100
AcDbEntity
  8
0
  6
Continuous
 62
     7
370
    15
100
AcDbCircle
 10
108.0
 20
36.0
 30
0.0
 40
32.99999999999605
100
AcDbArc
 50
318.4746007931
 51
326.5253992069
  0
ARC
  5
1CE
330
1F
100
AcDbEntity
  8
0
  6
Continuous
 62
     7
370
    15
100
AcDbCircle
 10
108.0
 20
36.0
 30
0.0
 40
32.99999999999454
100
AcDbArc
 50
333.4746007931
 51
341.5253992069
  0
ARC
  5
1CF
330
1F
100
AcDbEntity
  8
0
  6
Continuous
 62
     7
370
    15
100
AcDbCircle
 10
108.0
 20
36.0
 30
0.0
 40
32.99999999999805
100
AcDbArc
 50
348.4746007931
 51
356.5253992069
  0
ARC
  5
1D0
330
1F
100
AcDbEntity
  8
0
  6
Continuous
 62
     7
370
    15
100
AcDbCircle
 10
108.0
 20
36.0
 30
0.0
 40
32.99999999999377
100
AcDbArc
 50
3.474600793100005
 51
11.5253992069
  0
ARC
  5
1D1
330
1F
100
AcDbEntity
  8
0
  6
Continuous
 62
     7
370
    15
100
AcDbCircle
 10
108.0
 20
36.0
 30
0.0
 40
32.99999999999632
100
AcDbArc
 50
18.4746007931
 51
26.52539920689999
  0
ARC
  5
1D2
330
1F
100
AcDbEntity
  8
0
  6
Continuous
 62
     7
370
    15
100
AcDbCircle
 10
108.0
 20
36.0
 30
0.0
 40
32.99999999999579
100
AcDbArc
 50
33.47460079309999
 51
41.52539920689999
  0
ARC
  5
1D3
330
1F
100
AcDbEntity
  8
0
  6
Continuous
 62
     7
370
    15
100
AcDbCircle
 10
108.0
 20
36.0
 30
0.0
 40
32.99999999999681
100
AcDbArc
 50
48.47460079310001
 51
56.52539920689999
  0
ARC
  5
1D4
330
1F
100
AcDbEntity
  8
0
  6
Continuous
 62
     7
370
    15
100
AcDbCircle
 10
108.0
 20
36.0
 30
0.0
 40
32.99999999999685
100
AcDbArc
 50
63.4746007931
 51
71.52539920690003
  0
POINT
  5
1D5
330
1F
100
AcDbEntity
  8
0
100
AcDbPoint
 10
93.71963987480001
 20
46.9577057222
 30
0.0
  0
POINT
  5
1D6
330
1F
100
AcDbEntity
  8
0
100
AcDbPoint
 10
110.34947146
 20
53.8460075047
 30
0.0
  0
POINT
  5
1D7
330
1F
100
AcDbEntity
  8
0
100
AcDbPoint
 10
124.6298315852
 20
42.8883017826
 30
0.0
  0
POINT
  5
1D8
330
1F
100
AcDbEntity
  8
0
100
AcDbPoint
 10
122.2803601252
 20
25.0422942778
 30
0.0
  0
POINT
  5
1D9
330
1F
100
AcDbEntity
  8
0
100
AcDbPoint
 10
105.65052854
 20
18.1539924953
 30
0.0
  0
POINT
  5
1DA
330
1F
100
AcDbEntity
  8
0
100
AcDbPoint
 10
91.37016841479999
 20
29.1116982174
 30
0.0
  0
CIRCLE
  5
1DB
330
1F
100
AcDbEntity
  8
0
  6
Continuous
 62
     7
370
    15
100
AcDbCircle
 10
36.0
 20
108.0
 30
0.0
 40
12.71
  0
CIRCLE
  5
1DC
330
1F
100
AcDbEntity
  8
0
  6
Continuous
 62
     7
370
    15
100
AcDbCircle
 10
38.34947146
 20
125.8460075047
 30
0.0
 40
2.999999999999987
  0
CIRCLE
  5
1DD
330
1F
100
AcDbEntity
  8
0
  6
Continuous
 62
     7
370
    15
100
AcDbCircle
 10
21.7196398748
 20
118.9577057222
 30
0.0
 40
3.000000000000012
  0
CIRCLE
  5
1DE
330
1F
100
AcDbEntity
  8
0
  6
Continuous
 62
     7
370
    15
100
AcDbCircle
 10
19.3701684148
 20
101.1116982174
 30
0.0
 40
3.000000000000021
  0
CIRCLE
  5
1DF
330
1F
100
AcDbEntity
  8
0
  6
Continuous
 62
     7
370
    15
100
AcDbCircle
 10
33.65052854
 20
90.1539924953
 30
0.0
 40
2.999999999999988
  0
CIRCLE
  5
1E0
330
1F
100
AcDbEntity
  8
0
  6
Continuous
 62
     7
370
    15
100
AcDbCircle
 10
50.2803601252
 20
97.0422942778
 30
0.0
 40
3.000000000000002
  0
CIRCLE
  5
1E1
330
1F
100
AcDbEntity
  8
0
  6
Continuous
 62
     7
370
    15
100
AcDbCircle
 10
52.6298315852
 20
114.8883017826
 30
0.0
 40
3.000000000000004
  0
CIRCLE
  5
1E2
330
1F
100
AcDbEntity
  8
0
  6
Continuous
 62
     7
370
    15
100
AcDbCircle
 10
19.3701684148
 20
101.1116982174
 30
0.0
 40
1.5
  0
CIRCLE
  5
1E3
330
1F
100
AcDbEntity
  8
0
  6
Continuous
 62
     7
370
    15
100
AcDbCircle
 10
33.65052854
 20
90.1539924953
 30
0.0
 40
1.499999999999999
  0
CIRCLE
  5
1E4
330
1F
100
AcDbEntity
  8
0
  6
Continuous
 62
     7
370
    15
100
AcDbCircle
 10
38.34947146
 20
125.8460075047
 30
0.0
 40
1.499999999999998
  0
CIRCLE
  5
1E5
330
1F
100
AcDbEntity
  8
0
  6
Continuous
 62
     7
370
    15
100
AcDbCircle
 10
52.6298315852
 20
114.8883017826
 30
0.0
 40
1.499999999999996
  0
CIRCLE
  5
1E6
330
1F
100
AcDbEntity
  8
0
  6
Continuous
 62
     7
370
    15
100
AcDbCircle
 10
50.2803601252
 20
97.0422942778
 30
0.0
 40
1.500000000000002
  0
CIRCLE
  5
1E7
330
1F
100
AcDbEntity
  8
0
  6
Continuous
 62
     7
370
    15
100
AcDbCircle
 10
21.7196398748
 20
118.9577057222
 30
0.0
 40
1.5
  0
LINE
  5
1E8
330
1F
100
AcDbEntity
  8
0
  6
Continuous
 62
     7
370
    15
100
AcDbLine
 10
50.7376182844
 20
137.5263036512
 30
0.0
 11
46.6179491924
 21
130.3908274735
 31
0.0
  0
LINE
  5
1E9
330
1F
100
AcDbEntity
  8
0
  6
Continuous
 62
     7
370
    15
100
AcDbLine
 10
50.0820508076
 20
128.3908274735
 30
0.0
 11
54.2017198996
 21
135.5263036512
 31
0.0
  0
LINE
  5
1EA
330
1F
100
AcDbEntity
  8
0
  6
Continuous
 62
     7
370
    15
100
AcDbLine
 10
57.8774158353
 20
132.7058429601
 30
0.0
 11
52.0513239329
 21
126.8797510577
 31
0.0
  0
LINE
  5
1EB
330
1F
100
AcDbEntity
  8
0
  6
Continuous
 62
     7
370
    15
100
AcDbLine
 10
54.8797510577
 20
124.0513239329
 30
0.0
 11
60.7058429601
 21
129.8774158353
 31
0.0
  0
LINE
  5
1EC
330
1F
100
AcDbEntity
  8
0
  6
Continuous
 62
     7
370
    15
100
AcDbLine
 10
63.5263036512
 20
126.2017198996
 30
0.0
 11
56.3908274735
 21
122.0820508076
 31
0.0
  0
LINE
  5
1ED
330
1F
100
AcDbEntity
  8
0
  6
Continuous
 62
     7
370
    15
100
AcDbLine
 10
58.3908274735
 20
118.6179491924
 30
0.0
 11
65.5263036512
 21
122.7376182844
 31
0.0
  0
LINE
  5
1EE
330
1F
100
AcDbEntity
  8
0
  6
Continuous
 62
     7
370
    15
100
AcDbLine
 10
67.2993193626
 20
118.4571797077
 30
0.0
 11
59.34072981910001
 21
116.3246820666
 31
0.0
  0
LINE
  5
1EF
330
1F
100
AcDbEntity
  8
0
  6
Continuous
 62
     7
370
    15
100
AcDbLine
 10
60.37600599949999
 20
112.4609787615
 30
0.0
 11
68.334595543
 21
114.5934764025
 31
0.0
  0
LINE
  5
1F0
330
1F
100
AcDbEntity
  8
0
  6
Continuous
 62
     7
370
    15
100
AcDbLine
 10
68.93933818400001
 20
110.0
 30
0.0
 11
60.7
 21
110.0
 31
0.0
  0
LINE
  5
1F1
330
1F
100
AcDbEntity
  8
0
  6
Continuous
 62
     7
370
    15
100
AcDbLine
 10
60.7
 20
106.0
 30
0.0
 11
68.93933818400001
 21
106.0
 31
0.0
  0
LINE
  5
1F2
330
1F
100
AcDbEntity
  8
0
  6
Continuous
 62
     7
370
    15
100
AcDbLine
 10
68.334595543
 20
101.4065235975
 30
0.0
 11
60.37600599949999
 21
103.5390212385
 31
0.0
  0
LINE
  5
1F3
330
1F
100
AcDbEntity
  8
0
  6
Continuous
 62
     7
370
    15
100
AcDbLine
 10
59.34072981910001
 20
99.67531793340001
 30
0.0
 11
67.2993193626
 21
97.54282029230001
 31
0.0
  0
LINE
  5
1F4
330
1F
100
AcDbEntity
  8
0
  6
Continuous
 62
     7
370
    15
100
AcDbLine
 10
65.5263036512
 20
93.2623817156
 30
0.0
 11
58.3908274735
 21
97.3820508076
 31
0.0
  0
LINE
  5
1F5
330
1F
100
AcDbEntity
  8
0
  6
Continuous
 62
     7
370
    15
100
AcDbLine
 10
56.3908274735
 20
93.9179491924
 30
0.0
 11
63.5263036512
 21
89.7982801004
 31
0.0
  0
LINE
  5
1F6
330
1F
100
AcDbEntity
  8
0
  6
Continuous
 62
     7
370
    15
100
AcDbLine
 10
60.7058429601
 20
86.1225841647
 30
0.0
 11
54.8797510577
 21
91.9486760671
 31
0.0
  0
LINE
  5
1F7
330
1F
100
AcDbEntity
  8
0
  6
Continuous
 62
     7
370
    15
100
AcDbLine
 10
52.0513239329
 20
89.12024894230001
 30
0.0
 11
57.8774158353
 21
83.2941570399
 31
0.0
  0
LINE
  5
1F8
330
1F
100
AcDbEntity
  8
0
  6
Continuous
 62
     7
370
    15
100
AcDbLine
 10
54.2017198996
 20
80.4736963488
 30
0.0
 11
50.0820508076
 21
87.6091725265
 31
0.0
  0
LINE
  5
1F9
330
1F
100
AcDbEntity
  8
0
  6
Continuous
 62
     7
370
    15
100
AcDbLine
 10
46.6179491924
 20
85.6091725265
 30
0.0
 11
50.7376182844
 21
78.4736963488
 31
0.0
  0
LINE
  5
1FA
330
1F
100
AcDbEntity
  8
0
  6
Continuous
 62
     7
370
    15
100
AcDbLine
 10
46.4571797077
 20
76.7006806374
 30
0.0
 11
44.3246820666
 21
84.6592701809
 31
0.0
  0
LINE
  5
1FB
330
1F
100
AcDbEntity
  8
0
  6
Continuous
 62
     7
370
    15
100
AcDbLine
 10
40.4609787615
 20
83.6239940005
 30
0.0
 11
42.5934764025
 21
75.665404457
 31
0.0
  0
LINE
  5
1FC
330
1F
100
AcDbEntity
  8
0
  6
Continuous
 62
     7
370
    15
100
AcDbLine
 10
38.0
 20
75.06066181599999
 30
0.0
 11
38.0
 21
83.3
 31
0.0
  0
LINE
  5
1FD
330
1F
100
AcDbEntity
  8
0
  6
Continuous
 62
     7
370
    15
100
AcDbLine
 10
34.0
 20
83.3
 30
0.0
 11
34.0
 21
75.06066181599999
 31
0.0
  0
LINE
  5
1FE
330
1F
100
AcDbEntity
  8
0
  6
Continuous
 62
     7
370
    15
100
AcDbLine
 10
29.4065235975
 20
75.665404457
 30
0.0
 11
31.5390212385
 21
83.6239940005
 31
0.0
  0
LINE
  5
1FF
330
1F
100
AcDbEntity
  8
0
  6
Continuous
 62
     7
370
    15
100
AcDbLine
 10
27.6753179334
 20
84.6592701809
 30
0.0
 11
25.5428202923
 21
76.7006806374
 31
0.0
  0
LINE
  5
200
330
1F
100
AcDbEntity
  8
0
  6
Continuous
 62
     7
370
    15
100
AcDbLine
 10
21.2623817156
 20
78.4736963488
 30
0.0
 11
25.3820508076
 21
85.6091725265
 31
0.0
  0
LINE
  5
201
330
1F
100
AcDbEntity
  8
0
  6
Continuous
 62
     7
370
    15
100
AcDbLine
 10
21.9179491924
 20
87.6091725265
 30
0.0
 11
17.7982801004
 21
80.4736963488
 31
0.0
  0
LINE
  5
202
330
1F
100
AcDbEntity
  8
0
  6
Continuous
 62
     7
370
    15
100
AcDbLine
 10
14.1225841647
 20
83.2941570399
 30
0.0
 11
19.9486760671
 21
89.12024894230001
 31
0.0
  0
LINE
  5
203
330
1F
100
AcDbEntity
  8
0
  6
Continuous
 62
     7
370
    15
100
AcDbLine
 10
17.1202489423
 20
91.9486760671
 30
0.0
 11
11.2941570399
 21
86.1225841647
 31
0.0
  0
LINE
  5
204
330
1F
100
AcDbEntity
  8
0
  6
Continuous
 62
     7
370
    15
100
AcDbLine
 10
8.4736963488
 20
89.7982801004
 30
0.0
 11
15.6091725265
 21
93.9179491924
 31
0.0
  0
LINE
  5
205
330
1F
100
AcDbEntity
  8
0
  6
Continuous
 62
     7
370
    15
100
AcDbLine
 10
13.6091725265
 20
97.3820508076
 30
0.0
 11
6.473696348800001
 21
93.2623817156
 31
0.0
  0
LINE
  5
206
330
1F
100
AcDbEntity
  8
0
  6
Continuous
 62
     7
370
    15
100
AcDbLine
 10
4.700680637400001
 20
97.54282029230001
 30
0.0
 11
12.6592701809
 21
99.67531793340001
 31
0.0
  0
LINE
  5
207
330
1F
100
AcDbEntity
  8
0
  6
Continuous
 62
     7
370
    15
100
AcDbLine
 10
11.6239940005
 20
103.5390212385
 30
0.0
 11
3.665404457000001
 21
101.4065235975
 31
0.0
  0
LINE
  5
208
330
1F
100
AcDbEntity
  8
0
  6
Continuous
 62
     7
370
    15
100
AcDbLine
 10
3.060661816
 20
106.0
 30
0.0
 11
11.3
 21
106.0
 31
0.0
  0
LINE
  5
209
330
1F
100
AcDbEntity
  8
0
  6
Continuous
 62
     7
370
    15
100
AcDbLine
 10
11.3
 20
110.0
 30
0.0
 11
3.060661816
 21
110.0
 31
0.0
  0
LINE
  5
20A
330
1F
100
AcDbEntity
  8
0
  6
Continuous
 62
     7
370
    15
100
AcDbLine
 10
3.665404457000001
 20
114.5934764025
 30
0.0
 11
11.6239940005
 21
112.4609787615
 31
0.0
  0
LINE
  5
20B
330
1F
100
AcDbEntity
  8
0
  6
Continuous
 62
     7
370
    15
100
AcDbLine
 10
12.6592701809
 20
116.3246820666
 30
0.0
 11
4.700680637400001
 21
118.4571797077
 31
0.0
  0
LINE
  5
20C
330
1F
100
AcDbEntity
  8
0
  6
Continuous
 62
     7
370
    15
100
AcDbLine
 10
6.473696348800001
 20
122.7376182844
 30
0.0
 11
13.6091725265
 21
118.6179491924
 31
0.0
  0
LINE
  5
20D
330
1F
100
AcDbEntity
  8
0
  6
Continuous
 62
     7
370
    15
100
AcDbLine
 10
15.6091725265
 20
122.0820508076
 30
0.0
 11
8.4736963488
 21
126.2017198996
 31
0.0
  0
LINE
  5
20E
330
1F
100
AcDbEntity
  8
0
  6
Continuous
 62
     7
370
    15
100
AcDbLine
 10
11.2941570399
 20
129.8774158353
 30
0.0
 11
17.1202489423
 21
124.0513239329
 31
0.0
  0
LINE
  5
20F
330
1F
100
AcDbEntity
  8
0
  6
Continuous
 62
     7
370
    15
100
AcDbLine
 10
19.9486760671
 20
126.8797510577
 30
0.0
 11
14.1225841647
 21
132.7058429601
 31
0.0
  0
LINE
  5
210
330
1F
100
AcDbEntity
  8
0
  6
Continuous
 62
     7
370
    15
100
AcDbLine
 10
17.7982801004
 20
135.5263036512
 30
0.0
 11
21.9179491924
 21
128.3908274735
 31
0.0
  0
LINE
  5
211
330
1F
100
AcDbEntity
  8
0
  6
Continuous
 62
     7
370
    15
100
AcDbLine
 10
25.3820508076
 20
130.3908274735
 30
0.0
 11
21.2623817156
 21
137.5263036512
 31
0.0
  0
LINE
  5
212
330
1F
100
AcDbEntity
  8
0
  6
Continuous
 62
     7
370
    15
100
AcDbLine
 10
25.5428202923
 20
139.2993193626
 30
0.0
 11
27.6753179334
 21
131.3407298191
 31
0.0
  0
LINE
  5
213
330
1F
100
AcDbEntity
  8
0
  6
Continuous
 62
     7
370
    15
100
AcDbLine
 10
31.5390212385
 20
132.3760059995
 30
0.0
 11
29.4065235975
 21
140.334595543
 31
0.0
  0
LINE
  5
214
330
1F
100
AcDbEntity
  8
0
  6
Continuous
 62
     7
370
    15
100
AcDbLine
 10
34.0
 20
140.939338184
 30
0.0
 11
34.0
 21
132.7
 31
0.0
  0
LINE
  5
215
330
1F
100
AcDbEntity
  8
0
  6
Continuous
 62
     7
370
    15
100
AcDbLine
 10
38.0
 20
132.7
 30
0.0
 11
38.0
 21
140.939338184
 31
0.0
  0
LINE
  5
216
330
1F
100
AcDbEntity
  8
0
  6
Continuous
 62
     7
370
    15
100
AcDbLine
 10
42.5934764025
 20
140.334595543
 30
0.0
 11
40.4609787615
 21
132.3760059995
 31
0.0
  0
LINE
  5
217
330
1F
100
AcDbEntity
  8
0
  6
Continuous
 62
     7
370
    15
100
AcDbLine
 10
44.3246820666
 20
131.3407298191
 30
0.0
 11
46.4571797077
 21
139.2993193626
 31
0.0
  0
ARC
  5
218
330
1F
100
AcDbEntity
  8
0
  6
Continuous
 62
     7
370
    15
100
AcDbCircle
 10
48.35
 20
129.3908274735
 30
0.0
 40
1.999999999999998
100
AcDbArc
 50
150.0
 51
330.0
  0
ARC
  5
219
330
1F
100
AcDbEntity
  8
0
  6
Continuous
 62
     7
370
    15
100
AcDbCircle
 10
53.4655374953
 20
125.4655374953
 30
0.0
 40
2.000000000000001
100
AcDbArc
 50
134.9999999999997
 51
315.0000000000002
  0
ARC
  5
21A
330
1F
100
AcDbEntity
  8
0
  6
Continuous
 62
     7
370
    15
100
AcDbCircle
 10
57.3908274735
 20
120.35
 30
0.0
 40
1.999999999999998
100
AcDbArc
 50
119.9999999999999
 51
300.0000000000001
  0
ARC
  5
21B
330
1F
100
AcDbEntity
  8
0
  6
Continuous
 62
     7
370
    15
100
AcDbCircle
 10
59.8583679093
 20
114.392830414
 30
0.0
 40
1.999999999999997
100
AcDbArc
 50
105.0
 51
285.0
  0
ARC
  5
21C
330
1F
100
AcDbEntity
  8
0
  6
Continuous
 62
     7
370
    15
100
AcDbCircle
 10
60.7
 20
108.0
 30
0.0
 40
1.999999999999996
100
AcDbArc
 50
90.0
 51
270.0
  0
ARC
  5
21D
330
1F
100
AcDbEntity
  8
0
  6
Continuous
 62
     7
370
    15
100
AcDbCircle
 10
59.8583679093
 20
101.607169586
 30
0.0
 40
1.999999999999997
100
AcDbArc
 50
75.00000000000001
 51
255.0
  0
ARC
  5
21E
330
1F
100
AcDbEntity
  8
0
  6
Continuous
 62
     7
370
    15
100
AcDbCircle
 10
57.3908274735
 20
95.65
 30
0.0
 40
1.999999999999996
100
AcDbArc
 50
59.99999999999986
 51
240.0
  0
ARC
  5
21F
330
1F
100
AcDbEntity
  8
0
  6
Continuous
 62
     7
370
    15
100
AcDbCircle
 10
53.4655374953
 20
90.5344625047
 30
0.0
 40
2.000000000000001
100
AcDbArc
 50
44.99999999999986
 51
225.0000000000003
  0
ARC
  5
220
330
1F
100
AcDbEntity
  8
0
  6
Continuous
 62
     7
370
    15
100
AcDbCircle
 10
48.35
 20
86.6091725265
 30
0.0
 40
1.999999999999997
100
AcDbArc
 50
30.00000000000004
 51
210.0
  0
ARC
  5
221
330
1F
100
AcDbEntity
  8
0
  6
Continuous
 62
     7
370
    15
100
AcDbCircle
 10
42.392830414
 20
84.1416320907
 30
0.0
 40
1.999999999999997
100
AcDbArc
 50
14.99999999999998
 51
195.0
  0
ARC
  5
222
330
1F
100
AcDbEntity
  8
0
  6
Continuous
 62
     7
370
    15
100
AcDbCircle
 10
36.0
 20
83.3
 30
0.0
 40
1.999999999999996
100
AcDbArc
 50
0.0
 51
180.0
  0
ARC
  5
223
330
1F
100
AcDbEntity
  8
0
  6
Continuous
 62
     7
370
    15
100
AcDbCircle
 10
29.607169586
 20
84.1416320907
 30
0.0
 40
1.999999999999997
100
AcDbArc
 50
345.0
 51
165.0
  0
ARC
  5
224
330
1F
100
AcDbEntity
  8
0
  6
Continuous
 62
     7
370
    15
100
AcDbCircle
 10
23.65
 20
86.6091725265
 30
0.0
 40
2.0
100
AcDbArc
 50
330.0
 51
150.0
  0
ARC
  5
225
330
1F
100
AcDbEntity
  8
0
  6
Continuous
 62
     7
370
    15
100
AcDbCircle
 10
18.5344625047
 20
90.5344625047
 30
0.0
 40
2.000000000000001
100
AcDbArc
 50
314.9999999999998
 51
135.0000000000001
  0
ARC
  5
226
330
1F
100
AcDbEntity
  8
0
  6
Continuous
 62
     7
370
    15
100
AcDbCircle
 10
14.6091725265
 20
95.65
 30
0.0
 40
1.999999999999996
100
AcDbArc
 50
299.9999999999998
 51
120.0
  0
ARC
  5
227
330
1F
100
AcDbEntity
  8
0
  6
Continuous
 62
     7
370
    15
100
AcDbCircle
 10
12.1416320907
 20
101.607169586
 30
0.0
 40
1.999999999999998
100
AcDbArc
 50
285.0
 51
105.0
  0
ARC
  5
228
330
1F
100
AcDbEntity
  8
0
  6
Continuous
 62
     7
370
    15
100
AcDbCircle
 10
11.3
 20
108.0
 30
0.0
 40
1.999999999999996
100
AcDbArc
 50
270.0
 51
90.0
  0
ARC
  5
229
330
1F
100
AcDbEntity
  8
0
  6
Continuous
 62
     7
370
    15
100
AcDbCircle
 10
12.1416320907
 20
114.392830414
 30
0.0
 40
1.999999999999998
100
AcDbArc
 50
255.0
 51
75.00000000000001
  0
ARC
  5
22A
330
1F
100
AcDbEntity
  8
0
  6
Continuous
 62
     7
370
    15
100
AcDbCircle
 10
14.6091725265
 20
120.35
 30
0.0
 40
2.0
100
AcDbArc
 50
239.9999999999998
 51
60.00000000000008
  0
ARC
  5
22B
330
1F
100
AcDbEntity
  8
0
  6
Continuous
 62
     7
370
    15
100
AcDbCircle
 10
18.5344625047
 20
125.4655374953
 30
0.0
 40
2.000000000000001
100
AcDbArc
 50
224.9999999999998
 51
45.00000000000029
  0
ARC
  5
22C
330
1F
100
AcDbEntity
  8
0
  6
Continuous
 62
     7
370
    15
100
AcDbCircle
 10
23.65
 20
129.3908274735
 30
0.0
 40
1.999999999999996
100
AcDbArc
 50
210.0
 51
30.00000000000004
  0
ARC
  5
22D
330
1F
100
AcDbEntity
  8
0
  6
Continuous
 62
     7
370
    15
100
AcDbCircle
 10
29.607169586
 20
131.8583679093
 30
0.0
 40
1.999999999999998
100
AcDbArc
 50
194.9999999999995
 51
14.99999999999956
  0
ARC
  5
22E
330
1F
100
AcDbEntity
  8
0
  6
Continuous
 62
     7
370
    15
100
AcDbCircle
 10
36.0
 20
132.7
 30
0.0
 40
1.999999999999996
100
AcDbArc
 50
180.0
 51
0.0
  0
ARC
  5
22F
330
1F
100
AcDbEntity
  8
0
  6
Continuous
 62
     7
370
    15
100
AcDbCircle
 10
42.392830414
 20
131.8583679093
 30
0.0
 40
1.999999999999997
100
AcDbArc
 50
165.0000000000004
 51
345.0000000000004
  0
ARC
  5
230
330
1F
100
AcDbEntity
  8
0
  6
Continuous
 62
     7
370
    15
100
AcDbCircle
 10
36.0
 20
108.0
 30
0.0
 40
32.99999999999883
100
AcDbArc
 50
78.4746007931
 51
86.5253992069
  0
ARC
  5
231
330
1F
100
AcDbEntity
  8
0
  6
Continuous
 62
     7
370
    15
100
AcDbCircle
 10
36.0
 20
108.0
 30
0.0
 40
32.99999999999673
100
AcDbArc
 50
93.47460079309998
 51
101.5253992069
  0
ARC
  5
232
330
1F
100
AcDbEntity
  8
0
  6
Continuous
 62
     7
370
    15
100
AcDbCircle
 10
36.0
 20
108.0
 30
0.0
 40
32.99999999999584
100
AcDbArc
 50
108.4746007931
 51
116.5253992069
  0
ARC
  5
233
330
1F
100
AcDbEntity
  8
0
  6
Continuous
 62
     7
370
    15
100
AcDbCircle
 10
36.0
 20
108.0
 30
0.0
 40
32.99999999999841
100
AcDbArc
 50
123.4746007931
 51
131.5253992069
  0
ARC
  5
234
330
1F
100
AcDbEntity
  8
0
  6
Continuous
 62
     7
370
    15
100
AcDbCircle
 10
36.0
 20
108.0
 30
0.0
 40
32.99999999999601
100
AcDbArc
 50
138.4746007931
 51
146.5253992069
  0
ARC
  5
235
330
1F
100
AcDbEntity
  8
0
  6
Continuous
 62
     7
370
    15
100
AcDbCircle
 10
36.0
 20
108.0
 30
0.0
 40
32.99999999999564
100
AcDbArc
 50
153.4746007931
 51
161.5253992069
  0
ARC
  5
236
330
1F
100
AcDbEntity
  8
0
  6
Continuous
 62
     7
370
    15
100
AcDbCircle
 10
36.0
 20
108.0
 30
0.0
 40
32.99999999999672
100
AcDbArc
 50
168.4746007931
 51
176.5253992069
  0
ARC
  5
237
330
1F
100
AcDbEntity
  8
0
  6
Continuous
 62
     7
370
    15
100
AcDbCircle
 10
36.0
 20
108.0
 30
0.0
 40
32.99999999999667
100
AcDbArc
 50
183.4746007931
 51
191.5253992069
  0
ARC
  5
238
330
1F
100
AcDbEntity
  8
0
  6
Continuous
 62
     7
370
    15
100
AcDbCircle
 10
36.0
 20
108.0
 30
0.0
 40
32.99999999999292
100
AcDbArc
 50
198.4746007931
 51
206.5253992069
  0
ARC
  5
239
330
1F
100
AcDbEntity
  8
0
  6
Continuous
 62
     7
370
    15
100
AcDbCircle
 10
36.0
 20
108.0
 30
0.0
 40
32.99999999999434
100
AcDbArc
 50
213.4746007930999
 51
221.5253992069
  0
ARC
  5
23A
330
1F
100
AcDbEntity
  8
0
  6
Continuous
 62
     7
370
    15
100
AcDbCircle
 10
36.0
 20
108.0
 30
0.0
 40
32.99999999999734
100
AcDbArc
 50
228.4746007931
 51
236.5253992069
  0
ARC
  5
23B
330
1F
100
AcDbEntity
  8
0
  6
Continuous
 62
     7
370
    15
100
AcDbCircle
 10
36.0
 20
108.0
 30
0.0
 40
32.99999999999476
100
AcDbArc
 50
243.4746007931
 51
251.5253992069
  0
ARC
  5
23C
330
1F
100
AcDbEntity
  8
0
  6
Continuous
 62
     7
370
    15
100
AcDbCircle
 10
36.0
 20
108.0
 30
0.0
 40
32.99999999999925
100
AcDbArc
 50
258.4746007931
 51
266.5253992069
  0
ARC
  5
23D
330
1F
100
AcDbEntity
  8
0
  6
Continuous
 62
     7
370
    15
100
AcDbCircle
 10
36.0
 20
108.0
 30
0.0
 40
33.00000000000183
100
AcDbArc
 50
273.4746007931
 51
281.5253992069
  0
ARC
  5
23E
330
1F
100
AcDbEntity
  8
0
  6
Continuous
 62
     7
370
    15
100
AcDbCircle
 10
36.0
 20
108.0
 30
0.0
 40
32.99999999999482
100
AcDbArc
 50
288.4746007931
 51
296.5253992069
  0
ARC
  5
23F
330
1F
100
AcDbEntity
  8
0
  6
Continuous
 62
     7
370
    15
100
AcDbCircle
 10
36.0
 20
108.0
 30
0.0
 40
32.99999999999773
100
AcDbArc
 50
303.4746007931
 51
311.5253992069
  0
ARC
  5
240
330
1F
100
AcDbEntity
  8
0
  6
Continuous
 62
     7
370
    15
100
AcDbCircle
 10
36.0
 20
108.0
 30
0.0
 40
32.99999999999605
100
AcDbArc
 50
318.4746007931
 51
326.5253992069
  0
ARC
  5
241
330
1F
100
AcDbEntity
  8
0
  6
Continuous
 62
     7
370
    15
100
AcDbCircle
 10
36.0
 20
108.0
 30
0.0
 40
32.99999999999454
100
AcDbArc
 50
333.4746007931
 51
341.5253992069
  0
ARC
  5
242
330
1F
100
AcDbEntity
  8
0
  6
Continuous
 62
     7
370
    15
100
AcDbCircle
 10
36.0
 20
108.0
 30
0.0
 40
32.99999999999805
100
AcDbArc
 50
348.4746007931
 51
356.5253992068999
  0
ARC
  5
243
330
1F
100
AcDbEntity
  8
0
  6
Continuous
 62
     7
370
    15
100
AcDbCircle
 10
36.0
 20
108.0
 30
0.0
 40
32.99999999999377
100
AcDbArc
 50
3.474600793100005
 51
11.52539920689999
  0
ARC
  5
244
330
1F
100
AcDbEntity
  8
0
  6
Continuous
 62
     7
370
    15
100
AcDbCircle
 10
36.0
 20
108.0
 30
0.0
 40
32.99999999999632
100
AcDbArc
 50
18.4746007931
 51
26.52539920689999
  0
ARC
  5
245
330
1F
100
AcDbEntity
  8
0
  6
Continuous
 62
     7
370
    15
100
AcDbCircle
 10
36.0
 20
108.0
 30
0.0
 40
32.99999999999579
100
AcDbArc
 50
33.4746007931
 51
41.5253992069
  0
ARC
  5
246
330
1F
100
AcDbEntity
  8
0
  6
Continuous
 62
     7
370
    15
100
AcDbCircle
 10
36.0
 20
108.0
 30
0.0
 40
32.99999999999681
100
AcDbArc
 50
48.47460079310002
 51
56.5253992069
  0
ARC
  5
247
330
1F
100
AcDbEntity
  8
0
  6
Continuous
 62
     7
370
    15
100
AcDbCircle
 10
36.0
 20
108.0
 30
0.0
 40
32.99999999999685
100
AcDbArc
 50
63.4746007931
 51
71.5253992069
  0
POINT
  5
248
330
1F
100
AcDbEntity
  8
0
100
AcDbPoint
 10
21.7196398748
 20
118.9577057222
 30
0.0
  0
POINT
  5
249
330
1F
100
AcDbEntity
  8
0
100
AcDbPoint
 10
38.34947146
 20
125.8460075047
 30
0.0
  0
POINT
  5
24A
330
1F
100
AcDbEntity
  8
0
100
AcDbPoint
 10
52.6298315852
 20
114.8883017826
 30
0.0
  0
POINT
  5
24B
330
1F
100
AcDbEntity
  8
0
100
AcDbPoint
 10
50.2803601252
 20
97.0422942778
 30
0.0
  0
POINT
  5
24C
330
1F
100
AcDbEntity
  8
0
100
AcDbPoint
 10
33.65052854
 20
90.1539924953
 30
0.0
  0
POINT
  5
24D
330
1F
100
AcDbEntity
  8
0
100
AcDbPoint
 10
19.3701684148
 20
101.1116982174
 30
0.0
  0
CIRCLE
  5
24E
330
1F
100
AcDbEntity
  8
0
  6
Continuous
 62
     7
370
    15
100
AcDbCircle
 10
108.0
 20
108.0
 30
0.0
 40
12.71
  0
CIRCLE
  5
24F
330
1F
100
AcDbEntity
  8
0
  6
Continuous
 62
     7
370
    15
100
AcDbCircle
 10
110.34947146
 20
125.8460075047
 30
0.0
 40
2.999999999999987
  0
CIRCLE
  5
250
330
1F
100
AcDbEntity
  8
0
  6
Continuous
 62
     7
370
    15
100
AcDbCircle
 10
93.71963987480001
 20
118.9577057222
 30
0.0
 40
3.000000000000012
  0
CIRCLE
  5
251
330
1F
100
AcDbEntity
  8
0
  6
Continuous
 62
     7
370
    15
100
AcDbCircle
 10
91.37016841479999
 20
101.1116982174
 30
0.0
 40
3.000000000000021
  0
CIRCLE
  5
252
330
1F
100
AcDbEntity
  8
0
  6
Continuous
 62
     7
370
    15
100
AcDbCircle
 10
105.65052854
 20
90.1539924953
 30
0.0
 40
2.999999999999988
  0
CIRCLE
  5
253
330
1F
100
AcDbEntity
  8
0
  6
Continuous
 62
     7
370
    15
100
AcDbCircle
 10
122.2803601252
 20
97.0422942778
 30
0.0
 40
3.000000000000002
  0
CIRCLE
  5
254
330
1F
100
AcDbEntity
  8
0
  6
Continuous
 62
     7
370
    15
100
AcDbCircle
 10
124.6298315852
 20
114.8883017826
 30
0.0
 40
3.000000000000004
  0
CIRCLE
  5
255
330
1F
100
AcDbEntity
  8
0
  6
Continuous
 62
     7
370
    15
100
AcDbCircle
 10
91.37016841479999
 20
101.1116982174
 30
0.0
 40
1.5
  0
CIRCLE
  5
256
330
1F
100
AcDbEntity
  8
0
  6
Continuous
 62
     7
370
    15
100
AcDbCircle
 10
105.65052854
 20
90.1539924953
 30
0.0
 40
1.499999999999999
  0
CIRCLE
  5
257
330
1F
100
AcDbEntity
  8
0
  6
Continuous
 62
     7
370
    15
100
AcDbCircle
 10
110.34947146
 20
125.8460075047
 30
0.0
 40
1.499999999999998
  0
CIRCLE
  5
258
330
1F
100
AcDbEntity
  8
0
  6
Continuous
 62
     7
370
    15
100
AcDbCircle
 10
124.6298315852
 20
114.8883017826
 30
0.0
 40
1.499999999999996
  0
CIRCLE
  5
259
330
1F
100
AcDbEntity
  8
0
  6
Continuous
 62
     7
370
    15
100
AcDbCircle
 10
122.2803601252
 20
97.0422942778
 30
0.0
 40
1.500000000000002
  0
CIRCLE
  5
25A
330
1F
100
AcDbEntity
  8
0
  6
Continuous
 62
     7
370
    15
100
AcDbCircle
 10
93.71963987480001
 20
118.9577057222
 30
0.0
 40
1.5
  0
LINE
  5
25B
330
1F
100
AcDbEntity
  8
0
  6
Continuous
 62
     7
370
    15
100
AcDbLine
 10
122.7376182844
 20
137.5263036512
 30
0.0
 11
118.6179491924
 21
130.3908274735
 31
0.0
  0
LINE
  5
25C
330
1F
100
AcDbEntity
  8
0
  6
Continuous
 62
     7
370
    15
100
AcDbLine
 10
122.0820508076
 20
128.3908274735
 30
0.0
 11
126.2017198996
 21
135.5263036512
 31
0.0
  0
LINE
  5
25D
330
1F
100
AcDbEntity
  8
0
  6
Continuous
 62
     7
370
    15
100
AcDbLine
 10
129.8774158353
 20
132.7058429601
 30
0.0
 11
124.0513239329
 21
126.8797510577
 31
0.0
  0
LINE
  5
25E
330
1F
100
AcDbEntity
  8
0
  6
Continuous
 62
     7
370
    15
100
AcDbLine
 10
126.8797510577
 20
124.0513239329
 30
0.0
 11
132.7058429601
 21
129.8774158353
 31
0.0
  0
LINE
  5
25F
330
1F
100
AcDbEntity
  8
0
  6
Continuous
 62
     7
370
    15
100
AcDbLine
 10
135.5263036512
 20
126.2017198996
 30
0.0
 11
128.3908274735
 21
122.0820508076
 31
0.0
  0
LINE
  5
260
330
1F
100
AcDbEntity
  8
0
  6
Continuous
 62
     7
370
    15
100
AcDbLine
 10
130.3908274735
 20
118.6179491924
 30
0.0
 11
137.5263036512
 21
122.7376182844
 31
0.0
  0
LINE
  5
261
330
1F
100
AcDbEntity
  8
0
  6
Continuous
 62
     7
370
    15
100
AcDbLine
 10
139.2993193626
 20
118.4571797077
 30
0.0
 11
131.3407298191
 21
116.3246820666
 31
0.0
  0
LINE
  5
262
330
1F
100
AcDbEntity
  8
0
  6
Continuous
 62
     7
370
    15
100
AcDbLine
 10
132.3760059995
 20
112.4609787615
 30
0.0
 11
140.334595543
 21
114.5934764025
 31
0.0
  0
LINE
  5
263
330
1F
100
AcDbEntity
  8
0
  6
Continuous
 62
     7
370
    15
100
AcDbLine
 10
140.939338184
 20
110.0
 30
0.0
 11
132.7
 21
110.0
 31
0.0
  0
LINE
  5
264
330
1F
100
AcDbEntity
  8
0
  6
Continuous
 62
     7
370
    15
100
AcDbLine
 10
132.7
 20
106.0
 30
0.0
 11
140.939338184
 21
106.0
 31
0.0
  0
LINE
  5
265
330
1F
100
AcDbEntity
  8
0
  6
Continuous
 62
     7
370
    15
100
AcDbLine
 10
140.334595543
 20
101.4065235975
 30
0.0
 11
132.3760059995
 21
103.5390212385
 31
0.0
  0
LINE
  5
266
330
1F
100
AcDbEntity
  8
0
  6
Continuous
 62
     7
370
    15
100
AcDbLine
 10
131.3407298191
 20
99.67531793340001
 30
0.0
 11
139.2993193626
 21
97.54282029230001
 31
0.0
  0
LINE
  5
267
330
1F
100
AcDbEntity
  8
0
  6
Continuous
 62
     7
370
    15
100
AcDbLine
 10
137.5263036512
 20
93.2623817156
 30
0.0
 11
130.3908274735
 21
97.3820508076
 31
0.0
  0
LINE
  5
268
330
1F
100
AcDbEntity
  8
0
  6
Continuous
 62
     7
370
    15
100
AcDbLine
 10
128.3908274735
 20
93.9179491924
 30
0.0
 11
135.5263036512
 21
89.7982801004
 31
0.0
  0
LINE
  5
269
330
1F
100
AcDbEntity
  8
0
  6
Continuous
 62
     7
370
    15
100
AcDbLine
 10
132.7058429601
 20
86.1225841647
 30
0.0
 11
126.8797510577
 21
91.9486760671
 31
0.0
  0
LINE
  5
26A
330
1F
100
AcDbEntity
  8
0
  6
Continuous
 62
     7
370
    15
100
AcDbLine
 10
124.0513239329
 20
89.12024894230001
 30
0.0
 11
129.8774158353
 21
83.2941570399
 31
0.0
  0
LINE
  5
26B
330
1F
100
AcDbEntity
  8
0
  6
Continuous
 62
     7
370
    15
100
AcDbLine
 10
126.2017198996
 20
80.4736963488
 30
0.0
 11
122.0820508076
 21
87.6091725265
 31
0.0
  0
LINE
  5
26C
330
1F
100
AcDbEntity
  8
0
  6
Continuous
 62
     7
370
    15
100
AcDbLine
 10
118.6179491924
 20
85.6091725265
 30
0.0
 11
122.7376182844
 21
78.4736963488
 31
0.0
  0
LINE
  5
26D
330
1F
100
AcDbEntity
  8
0
  6
Continuous
 62
     7
370
    15
100
AcDbLine
 10
118.4571797077
 20
76.7006806374
 30
0.0
 11
116.3246820666
 21
84.6592701809
 31
0.0
  0
LINE
  5
26E
330
1F
100
AcDbEntity
  8
0
  6
Continuous
 62
     7
370
    15
100
AcDbLine
 10
112.4609787615
 20
83.6239940005
 30
0.0
 11
114.5934764025
 21
75.665404457
 31
0.0
  0
LINE
  5
26F
330
1F
100
AcDbEntity
  8
0
  6
Continuous
 62
     7
370
    15
100
AcDbLine
 10
110.0
 20
75.06066181599999
 30
0.0
 11
110.0
 21
83.3
 31
0.0
  0
LINE
  5
270
330
1F
100
AcDbEntity
  8
0
  6
Continuous
 62
     7
370
    15
100
AcDbLine
 10
106.0
 20
83.3
 30
0.0
 11
106.0
 21
75.06066181599999
 31
0.0
  0
LINE
  5
271
330
1F
100
AcDbEntity
  8
0
  6
Continuous
 62
     7
370
    15
100
AcDbLine
 10
101.4065235975
 20
75.665404457
 30
0.0
 11
103.5390212385
 21
83.6239940005
 31
0.0
  0
LINE
  5
272
330
1F
100
AcDbEntity
  8
0
  6
Continuous
 62
     7
370
    15
100
AcDbLine
 10
99.67531793340001
 20
84.6592701809
 30
0.0
 11
97.54282029230001
 21
76.7006806374
 31
0.0
  0
LINE
  5
273
330
1F
100
AcDbEntity
  8
0
  6
Continuous
 62
     7
370
    15
100
AcDbLine
 10
93.2623817156
 20
78.4736963488
 30
0.0
 11
97.3820508076
 21
85.6091725265
 31
0.0
  0
LINE
  5
274
330
1F
100
AcDbEntity
  8
0
  6
Continuous
 62
     7
370
    15
100
AcDbLine
 10
93.9179491924
 20
87.6091725265
 30
0.0
 11
89.7982801004
 21
80.4736963488
 31
0.0
  0
LINE
  5
275
330
1F
100
AcDbEntity
  8
0
  6
Continuous
 62
     7
370
    15
100
AcDbLine
 10
86.1225841647
 20
83.2941570399
 30
0.0
 11
91.9486760671
 21
89.12024894230001
 31
0.0
  0
LINE
  5
276
330
1F
100
AcDbEntity
  8
0
  6
Continuous
 62
     7
370
    15
100
AcDbLine
 10
89.12024894230001
 20
91.9486760671
 30
0.0
 11
83.2941570399
 21
86.1225841647
 31
0.0
  0
LINE
  5
277
330
1F
100
AcDbEntity
  8
0
  6
Continuous
 62
     7
370
    15
100
AcDbLine
 10
80.4736963488
 20
89.7982801004
 30
0.0
 11
87.6091725265
 21
93.9179491924
 31
0.0
  0
LINE
  5
278
330
1F
100
AcDbEntity
  8
0
  6
Continuous
 62
     7
370
    15
100
AcDbLine
 10
85.6091725265
 20
97.3820508076
 30
0.0
 11
78.4736963488
 21
93.2623817156
 31
0.0
  0
LINE
  5
279
330
1F
100
AcDbEntity
  8
0
  6
Continuous
 62
     7
370
    15
100
AcDbLine
 10
76.7006806374
 20
97.54282029230001
 30
0.0
 11
84.6592701809
 21
99.67531793340001
 31
0.0
  0
LINE
  5
27A
330
1F
100
AcDbEntity
  8
0
  6
Continuous
 62
     7
370
    15
100
AcDbLine
 10
83.6239940005
 20
103.5390212385
 30
0.0
 11
75.665404457
 21
101.4065235975
 31
0.0
  0
LINE
  5
27B
330
1F
100
AcDbEntity
  8
0
  6
Continuous
 62
     7
370
    15
100
AcDbLine
 10
75.06066181599999
 20
106.0
 30
0.0
 11
83.3
 21
106.0
 31
0.0
  0
LINE
  5
27C
330
1F
100
AcDbEntity
  8
0
  6
Continuous
 62
     7
370
    15
100
AcDbLine
 10
83.3
 20
110.0
 30
0.0
 11
75.06066181599999
 21
110.0
 31
0.0
  0
LINE
  5
27D
330
1F
100
AcDbEntity
  8
0
  6
Continuous
 62
     7
370
    15
100
AcDbLine
 10
75.665404457
 20
114.5934764025
 30
0.0
 11
83.6239940005
 21
112.4609787615
 31
0.0
  0
LINE
  5
27E
330
1F
100
AcDbEntity
  8
0
  6
Continuous
 62
     7
370
    15
100
AcDbLine
 10
84.6592701809
 20
116.3246820666
 30
0.0
 11
76.7006806374
 21
118.4571797077
 31
0.0
  0
LINE
  5
27F
330
1F
100
AcDbEntity
  8
0
  6
Continuous
 62
     7
370
    15
100
AcDbLine
 10
78.4736963488
 20
122.7376182844
 30
0.0
 11
85.6091725265
 21
118.6179491924
 31
0.0
  0
LINE
  5
280
330
1F
100
AcDbEntity
  8
0
  6
Continuous
 62
     7
370
    15
100
AcDbLine
 10
87.6091725265
 20
122.0820508076
 30
0.0
 11
80.4736963488
 21
126.2017198996
 31
0.0
  0
LINE
  5
281
330
1F
100
AcDbEntity
  8
0
  6
Continuous
 62
     7
370
    15
100
AcDbLine
 10
83.2941570399
 20
129.8774158353
 30
0.0
 11
89.12024894230001
 21
124.0513239329
 31
0.0
  0
LINE
  5
282
330
1F
100
AcDbEntity
  8
0
  6
Continuous
 62
     7
370
    15
100
AcDbLine
 10
91.9486760671
 20
126.8797510577
 30
0.0
 11
86.1225841647
 21
132.7058429601
 31
0.0
  0
LINE
  5
283
330
1F
100
AcDbEntity
  8
0
  6
Continuous
 62
     7
370
    15
100
AcDbLine
 10
89.7982801004
 20
135.5263036512
 30
0.0
 11
93.9179491924
 21
128.3908274735
 31
0.0
  0
LINE
  5
284
330
1F
100
AcDbEntity
  8
0
  6
Continuous
 62
     7
370
    15
100
AcDbLine
 10
97.3820508076
 20
130.3908274735
 30
0.0
 11
93.2623817156
 21
137.5263036512
 31
0.0
  0
LINE
  5
285
330
1F
100
AcDbEntity
  8
0
  6
Continuous
 62
     7
370
    15
100
AcDbLine
 10
97.54282029230001
 20
139.2993193626
 30
0.0
 11
99.67531793340001
 21
131.3407298191
 31
0.0
  0
LINE
  5
286
330
1F
100
AcDbEntity
  8
0
  6
Continuous
 62
     7
370
    15
100
AcDbLine
 10
103.5390212385
 20
132.3760059995
 30
0.0
 11
101.4065235975
 21
140.334595543
 31
0.0
  0
LINE
  5
287
330
1F
100
AcDbEntity
  8
0
  6
Continuous
 62
     7
370
    15
100
AcDbLine
 10
106.0
 20
140.939338184
 30
0.0
 11
106.0
 21
132.7
 31
0.0
  0
LINE
  5
288
330
1F
100
AcDbEntity
  8
0
  6
Continuous
 62
     7
370
    15
100
AcDbLine
 10
110.0
 20
132.7
 30
0.0
 11
110.0
 21
140.939338184
 31
0.0
  0
LINE
  5
289
330
1F
100
AcDbEntity
  8
0
  6
Continuous
 62
     7
370
    15
100
AcDbLine
 10
114.5934764025
 20
140.334595543
 30
0.0
 11
112.4609787615
 21
132.3760059995
 31
0.0
  0
LINE
  5
28A
330
1F
100
AcDbEntity
  8
0
  6
Continuous
 62
     7
370
    15
100
AcDbLine
 10
116.3246820666
 20
131.3407298191
 30
0.0
 11
118.4571797077
 21
139.2993193626
 31
0.0
  0
ARC
  5
28B
330
1F
100
AcDbEntity
  8
0
  6
Continuous
 62
     7
370
    15
100
AcDbCircle
 10
120.35
 20
129.3908274735
 30
0.0
 40
1.999999999999998
100
AcDbArc
 50
149.9999999999999
 51
330.0000000000001
  0
ARC
  5
28C
330
1F
100
AcDbEntity
  8
0
  6
Continuous
 62
     7
370
    15
100
AcDbCircle
 10
125.4655374953
 20
125.4655374953
 30
0.0
 40
2.000000000000001
100
AcDbArc
 50
134.9999999999997
 51
315.0000000000003
  0
ARC
  5
28D
330
1F
100
AcDbEntity
  8
0
  6
Continuous
 62
     7
370
    15
100
AcDbCircle
 10
129.3908274735
 20
120.35
 30
0.0
 40
1.999999999999998
100
AcDbArc
 50
119.9999999999999
 51
300.0000000000001
  0
ARC
  5
28E
330
1F
100
AcDbEntity
  8
0
  6
Continuous
 62
     7
370
    15
100
AcDbCircle
 10
131.8583679093
 20
114.392830414
 30
0.0
 40
1.999999999999997
100
AcDbArc
 50
104.9999999999996
 51
284.9999999999996
  0
ARC
  5
28F
330
1F
100
AcDbEntity
  8
0
  6
Continuous
 62
     7
370
    15
100
AcDbCircle
 10
132.7
 20
108.0
 30
0.0
 40
1.999999999999996
100
AcDbArc
 50
90.0
 51
270.0
  0
ARC
  5
290
330
1F
100
AcDbEntity
  8
0
  6
Continuous
 62
     7
370
    15
100
AcDbCircle
 10
131.8583679093
 20
101.607169586
 30
0.0
 40
1.999999999999997
100
AcDbArc
 50
75.00000000000041
 51
255.0000000000004
  0
ARC
  5
291
330
1F
100
AcDbEntity
  8
0
  6
Continuous
 62
     7
370
    15
100
AcDbCircle
 10
129.3908274735
 20
95.65
 30
0.0
 40
1.999999999999996
100
AcDbArc
 50
59.99999999999986
 51
240.0
  0
ARC
  5
292
330
1F
100
AcDbEntity
  8
0
  6
Continuous
 62
     7
370
    15
100
AcDbCircle
 10
125.4655374953
 20
90.5344625047
 30
0.0
 40
2.000000000000001
100
AcDbArc
 50
44.99999999999972
 51
225.0000000000003
  0
ARC
  5
293
330
1F
100
AcDbEntity
  8
0
  6
Continuous
 62
     7
370
    15
100
AcDbCircle
 10
120.35
 20
86.6091725265
 30
0.0
 40
1.999999999999997
100
AcDbArc
 50
29.99999999999993
 51
210.0000000000001
  0
ARC
  5
294
330
1F
100
AcDbEntity
  8
0
  6
Continuous
 62
     7
370
    15
100
AcDbCircle
 10
114.392830414
 20
84.1416320907
 30
0.0
 40
1.999999999999997
100
AcDbArc
 50
14.99999999999998
 51
195.0
  0
ARC
  5
295
330
1F
100
AcDbEntity
  8
0
  6
Continuous
 62
     7
370
    15
100
AcDbCircle
 10
108.0
 20
83.3
 30
0.0
 40
1.999999999999996
100
AcDbArc
 50
0.0
 51
180.0
  0
ARC
  5
296
330
1F
100
AcDbEntity
  8
0
  6
Continuous
 62
     7
370
    15
100
AcDbCircle
 10
101.607169586
 20
84.1416320907
 30
0.0
 40
1.999999999999997
100
AcDbArc
 50
345.0
 51
165.0
  0
ARC
  5
297
330
1F
100
AcDbEntity
  8
0
  6
Continuous
 62
     7
370
    15
100
AcDbCircle
 10
95.65
 20
86.6091725265
 30
0.0
 40
2.0
100
AcDbArc
 50
329.9999999999999
 51
150.0000000000001
  0
ARC
  5
298
330
1F
100
AcDbEntity
  8
0
  6
Continuous
 62
     7
370
    15
100
AcDbCircle
 10
90.5344625047
 20
90.5344625047
 30
0.0
 40
2.000000000000001
100
AcDbArc
 50
314.9999999999997
 51
135.0000000000003
  0
ARC
  5
299
330
1F
100
AcDbEntity
  8
0
  6
Continuous
 62
     7
370
    15
100
AcDbCircle
 10
86.6091725265
 20
95.65
 30
0.0
 40
1.999999999999996
100
AcDbArc
 50
299.9999999999999
 51
120.0000000000002
  0
ARC
  5
29A
330
1F
100
AcDbEntity
  8
0
  6
Continuous
 62
     7
370
    15
100
AcDbCircle
 10
84.1416320907
 20
101.607169586
 30
0.0
 40
1.999999999999998
100
AcDbArc
 50
285.0
 51
105.0
  0
ARC
  5
29B
330
1F
100
AcDbEntity
  8
0
  6
Continuous
 62
     7
370
    15
100
AcDbCircle
 10
83.3
 20
108.0
 30
0.0
 40
1.999999999999996
100
AcDbArc
 50
270.0
 51
90.0
  0
ARC
  5
29C
330
1F
100
AcDbEntity
  8
0
  6
Continuous
 62
     7
370
    15
100
AcDbCircle
 10
84.1416320907
 20
114.392830414
 30
0.0
 40
1.999999999999998
100
AcDbArc
 50
255.0
 51
75.00000000000001
  0
ARC
  5
29D
330
1F
100
AcDbEntity
  8
0
  6
Continuous
 62
     7
370
    15
100
AcDbCircle
 10
86.6091725265
 20
120.35
 30
0.0
 40
2.0
100
AcDbArc
 50
239.9999999999998
 51
60.00000000000008
  0
ARC
  5
29E
330
1F
100
AcDbEntity
  8
0
  6
Continuous
 62
     7
370
    15
100
AcDbCircle
 10
90.5344625047
 20
125.4655374953
 30
0.0
 40
2.000000000000001
100
AcDbArc
 50
224.9999999999997
 51
45.00000000000029
  0
ARC
  5
29F
330
1F
100
AcDbEntity
  8
0
  6
Continuous
 62
     7
370
    15
100
AcDbCircle
 10
95.65
 20
129.3908274735
 30
0.0
 40
1.999999999999996
100
AcDbArc
 50
209.9999999999999
 51
30.00000000000014
  0
ARC
  5
2A0
330
1F
100
AcDbEntity
  8
0
  6
Continuous
 62
     7
370
    15
100
AcDbCircle
 10
101.607169586
 20
131.8583679093
 30
0.0
 40
1.999999999999998
100
AcDbArc
 50
194.9999999999996
 51
14.99999999999959
  0
ARC
  5
2A1
330
1F
100
AcDbEntity
  8
0
  6
Continuous
 62
     7
370
    15
100
AcDbCircle
 10
108.0
 20
132.7
 30
0.0
 40
1.999999999999996
100
AcDbArc
 50
180.0
 51
0.0
  0
ARC
  5
2A2
330
1F
100
AcDbEntity
  8
0
  6
Continuous
 62
     7
370
    15
100
AcDbCircle
 10
114.392830414
 20
131.8583679093
 30
0.0
 40
1.999999999999997
100
AcDbArc
 50
165.0000000000004
 51
345.0000000000004
  0
ARC
  5
2A3
330
1F
100
AcDbEntity
  8
0
  6
Continuous
 62
     7
370
    15
100
AcDbCircle
 10
108.0
 20
108.0
 30
0.0
 40
32.99999999999883
100
AcDbArc
 50
78.4746007931
 51
86.52539920689999
  0
ARC
  5
2A4
330
1F
100
AcDbEntity
  8
0
  6
Continuous
 62
     7
370
    15
100
AcDbCircle
 10
108.0
 20
108.0
 30
0.0
 40
32.99999999999673
100
AcDbArc
 50
93.47460079309998
 51
101.5253992069
  0
ARC
  5
2A5
330
1F
100
AcDbEntity
  8
0
  6
Continuous
 62
     7
370
    15
100
AcDbCircle
 10
108.0
 20
108.0
 30
0.0
 40
32.99999999999584
100
AcDbArc
 50
108.4746007931
 51
116.5253992069
  0
ARC
  5
2A6
330
1F
100
AcDbEntity
  8
0
  6
Continuous
 62
     7
370
    15
100
AcDbCircle
 10
108.0
 20
108.0
 30
0.0
 40
32.99999999999841
100
AcDbArc
 50
123.4746007931
 51
131.5253992069
  0
ARC
  5
2A7
330
1F
100
AcDbEntity
  8
0
  6
Continuous
 62
     7
370
    15
100
AcDbCircle
 10
108.0
 20
108.0
 30
0.0
 40
32.99999999999601
100
AcDbArc
 50
138.4746007931
 51
146.5253992069
  0
ARC
  5
2A8
330
1F
100
AcDbEntity
  8
0
  6
Continuous
 62
     7
370
    15
100
AcDbCircle
 10
108.0
 20
108.0
 30
0.0
 40
32.99999999999564
100
AcDbArc
 50
153.4746007931
 51
161.5253992069
  0
ARC
  5
2A9
330
1F
100
AcDbEntity
  8
0
  6
Continuous
 62
     7
370
    15
100
AcDbCircle
 10
108.0
 20
108.0
 30
0.0
 40
32.99999999999672
100
AcDbArc
 50
168.4746007931
 51
176.5253992069
  0
ARC
  5
2AA
330
1F
100
AcDbEntity
  8
0
  6
Continuous
 62
     7
370
    15
100
AcDbCircle
 10
108.0
 20
108.0
 30
0.0
 40
32.99999999999667
100
AcDbArc
 50
183.4746007931
 51
191.5253992069
  0
ARC
  5
2AB
330
1F
100
AcDbEntity
  8
0
  6
Continuous
 62
     7
370
    15
100
AcDbCircle
 10
108.0
 20
108.0
 30
0.0
 40
32.99999999999292
100
AcDbArc
 50
198.4746007931
 51
206.5253992069
  0
ARC
  5
2AC
330
1F
100
AcDbEntity
  8
0
  6
Continuous
 62
     7
370
    15
100
AcDbCircle
 10
108.0
 20
108.0
 30
0.0
 40
32.99999999999434
100
AcDbArc
 50
213.4746007931
 51
221.5253992068999
  0
ARC
  5
2AD
330
1F
100
AcDbEntity
  8
0
  6
Continuous
 62
     7
370
    15
100
AcDbCircle
 10
108.0
 20
108.0
 30
0.0
 40
32.99999999999734
100
AcDbArc
 50
228.4746007931
 51
236.5253992069
  0
ARC
  5
2AE
330
1F
100
AcDbEntity
  8
0
  6
Continuous
 62
     7
370
    15
100
AcDbCircle
 10
108.0
 20
108.0
 30
0.0
 40
32.99999999999476
100
AcDbArc
 50
243.4746007931
 51
251.5253992069
  0
ARC
  5
2AF
330
1F
100
AcDbEntity
  8
0
  6
Continuous
 62
     7
370
    15
100
AcDbCircle
 10
108.0
 20
108.0
 30
0.0
 40
32.99999999999925
100
AcDbArc
 50
258.4746007931
 51
266.5253992069
  0
ARC
  5
2B0
330
1F
100
AcDbEntity
  8
0
  6
Continuous
 62
     7
370
    15
100
AcDbCircle
 10
108.0
 20
108.0
 30
0.0
 40
33.00000000000183
100
AcDbArc
 50
273.4746007931
 51
281.5253992069
  0
ARC
  5
2B1
330
1F
100
AcDbEntity
  8
0
  6
Continuous
 62
     7
370
    15
100
AcDbCircle
 10
108.0
 20
108.0
 30
0.0
 40
32.99999999999482
100
AcDbArc
 50
288.4746007931
 51
296.5253992069
  0
ARC
  5
2B2
330
1F
100
AcDbEntity
  8
0
  6
Continuous
 62
     7
370
    15
100
AcDbCircle
 10
108.0
 20
108.0
 30
0.0
 40
32.99999999999773
100
AcDbArc
 50
303.4746007931
 51
311.5253992069
  0
ARC
  5
2B3
330
1F
100
AcDbEntity
  8
0
  6
Continuous
 62
     7
370
    15
100
AcDbCircle
 10
108.0
 20
108.0
 30
0.0
 40
32.99999999999605
100
AcDbArc
 50
318.4746007931
 51
326.5253992069
  0
ARC
  5
2B4
330
1F
100
AcDbEntity
  8
0
  6
Continuous
 62
     7
370
    15
100
AcDbCircle
 10
108.0
 20
108.0
 30
0.0
 40
32.99999999999454
100
AcDbArc
 50
333.4746007931
 51
341.5253992069
  0
ARC
  5
2B5
330
1F
100
AcDbEntity
  8
0
  6
Continuous
 62
     7
370
    15
100
AcDbCircle
 10
108.0
 20
108.0
 30
0.0
 40
32.99999999999805
100
AcDbArc
 50
348.4746007931
 51
356.5253992068999
  0
ARC
  5
2B6
330
1F
100
AcDbEntity
  8
0
  6
Continuous
 62
     7
370
    15
100
AcDbCircle
 10
108.0
 20
108.0
 30
0.0
 40
32.99999999999377
100
AcDbArc
 50
3.474600793100005
 51
11.52539920689999
  0
ARC
  5
2B7
330
1F
100
AcDbEntity
  8
0
  6
Continuous
 62
     7
370
    15
100
AcDbCircle
 10
108.0
 20
108.0
 30
0.0
 40
32.99999999999632
100
AcDbArc
 50
18.4746007931
 51
26.52539920689999
  0
ARC
  5
2B8
330
1F
100
AcDbEntity
  8
0
  6
Continuous
 62
     7
370
    15
100
AcDbCircle
 10
108.0
 20
108.0
 30
0.0
 40
32.99999999999579
100
AcDbArc
 50
33.47460079309999
 51
41.52539920689999
  0
ARC
  5
2B9
330
1F
100
AcDbEntity
  8
0
  6
Continuous
 62
     7
370
    15
100
AcDbCircle
 10
108.0
 20
108.0
 30
0.0
 40
32.99999999999681
100
AcDbArc
 50
48.47460079310002
 51
56.5253992069
  0
ARC
  5
2BA
330
1F
100
AcDbEntity
  8
0
  6
Continuous
 62
     7
370
    15
100
AcDbCircle
 10
108.0
 20
108.0
 30
0.0
 40
32.99999999999685
100
AcDbArc
 50
63.4746007931
 51
71.52539920690003
  0
POINT
  5
2BB
330
1F
100
AcDbEntity
  8
0
100
AcDbPoint
 10
93.71963987480001
 20
118.9577057222
 30
0.0
  0
POINT
  5
2BC
330
1F
100
AcDbEntity
  8
0
100
AcDbPoint
 10
110.34947146
 20
125.8460075047
 30
0.0
  0
POINT
  5
2BD
330
1F
100
AcDbEntity
  8
0
100
AcDbPoint
 10
124.6298315852
 20
114.8883017826
 30
0.0
  0
POINT
  5
2BE
330
1F
100
AcDbEntity
  8
0
100
AcDbPoint
 10
122.2803601252
 20
97.0422942778
 30
0.0
  0
POINT
  5
2BF
330
1F
100
AcDbEntity
  8
0
100
AcDbPoint
 10
105.65052854
 20
90.1539924953
 30
0.0
  0
POINT
  5
2C0
330
1F
100
AcDbEntity
  8
0
100
AcDbPoint
 10
91.37016841479999
 20
101.1116982174
 30
0.0
  0
ENDSEC
  0
SECTION
  2
OBJECTS
  0
DICTIONARY
  5
C
330
0
100
AcDbDictionary
281
     1
  3
ACAD_DETAILVIEWSTYLE
350
2C6
  3
ACAD_GROUP
350
D
  3
ACAD_IMAGE_VARS
350
160
  3
ACAD_LAYOUT
350
1A
  3
ACAD_MLINESTYLE
350
17
  3
ACAD_PLOTSETTINGS
350
19
  3
ACAD_PLOTSTYLENAME
350
E
  3
ACAD_SCALELIST
350
47
  3
ACAD_SECTIONVIEWSTYLE
350
2C7
  3
AcDbVariableDictionary
350
2C1
  3
APPDATA
350
15E
  3
DWGPROPS
350
2C8
  0
DICTIONARY
  5
2C6
102
{ACAD_REACTORS
330
C
102
}
330
C
100
AcDbDictionary
281
     1
  0
DICTIONARY
  5
D
102
{ACAD_REACTORS
330
C
102
}
330
C
100
AcDbDictionary
281
     1
  0
RASTERVARIABLES
  5
160
102
{ACAD_REACTORS
330
C
102
}
330
C
100
AcDbRasterVariables
 90
        0
 70
     1
 71
     1
 72
     1
  0
DICTIONARY
  5
1A
102
{ACAD_REACTORS
330
C
102
}
330
C
100
AcDbDictionary
281
     1
  3
Layout1
350
1E
  3
Layout2
350
26
  3
Model
350
22
  0
DICTIONARY
  5
17
102
{ACAD_REACTORS
330
C
102
}
330
C
100
AcDbDictionary
281
     1
  3
Standard
350
18
  0
DICTIONARY
  5
19
102
{ACAD_REACTORS
330
C
102
}
330
C
100
AcDbDictionary
281
     1
  0
ACDBDICTIONARYWDFLT
  5
E
102
{ACAD_REACTORS
330
C
102
}
330
C
100
AcDbDictionary
281
     1
  3
Normal
350
F
100
AcDbDictionaryWithDefault
340
F
  0
DICTIONARY
  5
47
102
{ACAD_REACTORS
330
C
102
}
330
C
100
AcDbDictionary
281
     1
  3
A0
350
48
  3
A1
350
49
  3
A2
350
4A
  3
A3
350
4B
  3
A4
350
4C
  3
A5
350
4D
  3
A6
350
4E
  3
A7
350
4F
  3
A8
350
50
  3
A9
350
51
  3
B0
350
52
  3
B1
350
53
  3
B2
350
54
  3
B3
350
55
  3
B4
350
56
  3
B5
350
57
  3
B6
350
58
  3
B7
350
59
  3
B8
350
5A
  3
B9
350
5B
  3
C0
350
5C
  3
C1
350
5D
  3
C2
350
5E
  3
C3
350
5F
  3
C4
350
60
  3
C5
350
61
  3
C6
350
62
  3
C7
350
63
  3
C8
350
64
  3
C9
350
65
  3
D0
350
66
  3
D1
350
67
  3
D2
350
68
  0
DICTIONARY
  5
2C7
102
{ACAD_REACTORS
330
C
102
}
330
C
100
AcDbDictionary
281
     1
  0
DICTIONARY
  5
2C1
102
{ACAD_REACTORS
330
C
102
}
330
C
100
AcDbDictionary
281
     1
  0
DICTIONARY
  5
15E
102
{ACAD_REACTORS
330
C
102
}
330
C
100
AcDbDictionary
281
     1
  0
XRECORD
  5
2C8
102
{ACAD_REACTORS
330
C
102
}
330
C
100
AcDbXrecord
280
     1
  1
DWGPROPS COOKIE
  2

  3

  4

  6

  7

  8
Reiko
  9

300
=
301
=
302
=
303
=
304
=
305
=
306
=
307
=
308
=
309
=
 40
0.0
 41
2456877.461468287
 42
2456877.488234155
  1

 90
        0
  0
LAYOUT
  5
1E
102
{ACAD_REACTORS
330
1A
102
}
330
1A
100
AcDbPlotSettings
  1

  2
none_device
  4

  6

 40
0.0
 41
0.0
 42
0.0
 43
0.0
 44
0.0
 45
0.0
 46
0.0
 47
0.0
 48
0.0
 49
0.0
140
0.0
141
0.0
142
1.0
143
1.0
 70
   688
 72
     1
 73
     0
 74
     5
  7

 75
    16
147
1.0
148
0.0
149
0.0
100
AcDbLayout
  1
Layout1
 70
     1
 71
     1
 10
0.0
 20
0.0
 11
420.0
 21
297.0
 12
0.0
 22
0.0
 32
0.0
 14
1.000000000000000E+20
 24
1.000000000000000E+20
 34
1.000000000000000E+20
 15
-1.000000000000000E+20
 25
-1.000000000000000E+20
 35
-1.000000000000000E+20
146
0.0
 13
0.0
 23
0.0
 33
0.0
 16
1.0
 26
0.0
 36
0.0
 17
0.0
 27
1.0
 37
0.0
 76
     0
330
1B
  0
LAYOUT
  5
26
102
{ACAD_REACTORS
330
1A
102
}
330
1A
100
AcDbPlotSettings
  1

  2
none_device
  4

  6

 40
0.0
 41
0.0
 42
0.0
 43
0.0
 44
0.0
 45
0.0
 46
0.0
 47
0.0
 48
0.0
 49
0.0
140
0.0
141
0.0
142
1.0
143
1.0
 70
   688
 72
     1
 73
     0
 74
     5
  7

 75
    16
147
1.0
148
0.0
149
0.0
100
AcDbLayout
  1
Layout2
 70
     1
 71
     2
 10
0.0
 20
0.0
 11
0.0
 21
0.0
 12
0.0
 22
0.0
 32
0.0
 14
0.0
 24
0.0
 34
0.0
 15
0.0
 25
0.0
 35
0.0
146
0.0
 13
0.0
 23
0.0
 33
0.0
 16
1.0
 26
0.0
 36
0.0
 17
0.0
 27
1.0
 37
0.0
 76
     0
330
23
  0
LAYOUT
  5
22
102
{ACAD_REACTORS
330
1A
102
}
330
1A
100
AcDbPlotSettings
  1

  2
none_device
  4
ANSI_A_(11.00_x_8.50_Inches)
  6

 40
6.35
 41
19.05
 42
6.35000508
 43
19.05000254
 44
279.4
 45
215.9
 46
133.34999746
 47
88.89999873
 48
0.0
 49
0.0
140
0.0
141
0.0
142
0.1277348068
143
1.0
 70
  1696
 72
     0
 73
     0
 74
     0
  7

 75
     0
147
0.0179189148
148
-1300.4909072572
149
0.0
100
AcDbLayout
  1
Model
 70
     1
 71
     0
 10
0.0
 20
0.0
 11
420.0
 21
297.0
 12
0.0
 22
0.0
 32
0.0
 14
-32.939338184
 24
-32.939338184
 34
0.0
 15
32.939338184
 25
32.939338184
 35
0.0
146
0.0
 13
0.0
 23
0.0
 33
0.0
 16
1.0
 26
0.0
 36
0.0
 17
0.0
 27
1.0
 37
0.0
 76
     0
330
1F
331
29
  0
MLINESTYLE
  5
18
102
{ACAD_REACTORS
330
17
102
}
330
17
100
AcDbMlineStyle
  2
Standard
 70
     0
  3

 62
   256
 51
90.0
 52
90.0
 71
     2
 49
0.5
 62
   256
  6
BYLAYER
 49
-0.5
 62
   256
  6
BYLAYER
  0
ACDBPLACEHOLDER
  5
F
102
{ACAD_REACTORS
330
E
102
}
330
E
  0
SCALE
  5
48
102
{ACAD_REACTORS
330
47
102
}
330
47
100
AcDbScale
 70
     0
300
1:1
140
1.0
141
1.0
290
     1
  0
SCALE
  5
49
102
{ACAD_REACTORS
330
47
102
}
330
47
100
AcDbScale
 70
     0
300
1:2
140
1.0
141
2.0
290
     0
  0
SCALE
  5
4A
102
{ACAD_REACTORS
330
47
102
}
330
47
100
AcDbScale
 70
     0
300
1:4
140
1.0
141
4.0
290
     0
  0
SCALE
  5
4B
102
{ACAD_REACTORS
330
47
102
}
330
47
100
AcDbScale
 70
     0
300
1:5
140
1.0
141
5.0
290
     0
  0
SCALE
  5
4C
102
{ACAD_REACTORS
330
47
102
}
330
47
100
AcDbScale
 70
     0
300
1:8
140
1.0
141
8.0
290
     0
  0
SCALE
  5
4D
102
{ACAD_REACTORS
330
47
102
}
330
47
100
AcDbScale
 70
     0
300
1:10
140
1.0
141
10.0
290
     0
  0
SCALE
  5
4E
102
{ACAD_REACTORS
330
47
102
}
330
47
100
AcDbScale
 70
     0
300
1:16
140
1.0
141
16.0
290
     0
  0
SCALE
  5
4F
102
{ACAD_REACTORS
330
47
102
}
330
47
100
AcDbScale
 70
     0
300
1:20
140
1.0
141
20.0
290
     0
  0
SCALE
  5
50
102
{ACAD_REACTORS
330
47
102
}
330
47
100
AcDbScale
 70
     0
300
1:30
140
1.0
141
30.0
290
     0
  0
SCALE
  5
51
102
{ACAD_REACTORS
330
47
102
}
330
47
100
AcDbScale
 70
     0
300
1:40
140
1.0
141
40.0
290
     0
  0
SCALE
  5
52
102
{ACAD_REACTORS
330
47
102
}
330
47
100
AcDbScale
 70
     0
300
1:50
140
1.0
141
50.0
290
     0
  0
SCALE
  5
53
102
{ACAD_REACTORS
330
47
102
}
330
47
100
AcDbScale
 70
     0
300
1:100
140
1.0
141
100.0
290
     0
  0
SCALE
  5
54
102
{ACAD_REACTORS
330
47
102
}
330
47
100
AcDbScale
 70
     0
300
2:1
140
2.0
141
1.0
290
     0
  0
SCALE
  5
55
102
{ACAD_REACTORS
330
47
102
}
330
47
100
AcDbScale
 70
     0
300
4:1
140
4.0
141
1.0
290
     0
  0
SCALE
  5
56
102
{ACAD_REACTORS
330
47
102
}
330
47
100
AcDbScale
 70
     0
300
8:1
140
8.0
141
1.0
290
     0
  0
SCALE
  5
57
102
{ACAD_REACTORS
330
47
102
}
330
47
100
AcDbScale
 70
     0
300
10:1
140
10.0
141
1.0
290
     0
  0
SCALE
  5
58
102
{ACAD_REACTORS
330
47
102
}
330
47
100
AcDbScale
 70
     0
300
100:1
140
100.0
141
1.0
290
     0
  0
SCALE
  5
59
102
{ACAD_REACTORS
330
47
102
}
330
47
100
AcDbScale
 70
     0
300
1/128" = 1'-0"
140
0.0078125
141
12.0
290
     0
  0
SCALE
  5
5A
102
{ACAD_REACTORS
330
47
102
}
330
47
100
AcDbScale
 70
     0
300
1/64" = 1'-0"
140
0.015625
141
12.0
290
     0
  0
SCALE
  5
5B
102
{ACAD_REACTORS
330
47
102
}
330
47
100
AcDbScale
 70
     0
300
1/32" = 1'-0"
140
0.03125
141
12.0
290
     0
  0
SCALE
  5
5C
102
{ACAD_REACTORS
330
47
102
}
330
47
100
AcDbScale
 70
     0
300
1/16" = 1'-0"
140
0.0625
141
12.0
290
     0
  0
SCALE
  5
5D
102
{ACAD_REACTORS
330
47
102
}
330
47
100
AcDbScale
 70
     0
300
3/32" = 1'-0"
140
0.09375
141
12.0
290
     0
  0
SCALE
  5
5E
102
{ACAD_REACTORS
330
47
102
}
330
47
100
AcDbScale
 70
     0
300
1/8" = 1'-0"
140
0.125
141
12.0
290
     0
  0
SCALE
  5
5F
102
{ACAD_REACTORS
330
47
102
}
330
47
100
AcDbScale
 70
     0
300
3/16" = 1'-0"
140
0.1875
141
12.0
290
     0
  0
SCALE
  5
60
102
{ACAD_REACTORS
330
47
102
}
330
47
100
AcDbScale
 70
     0
300
1/4" = 1'-0"
140
0.25
141
12.0
290
     0
  0
SCALE
  5
61
102
{ACAD_REACTORS
330
47
102
}
330
47
100
AcDbScale
 70
     0
300
3/8" = 1'-0"
140
0.375
141
12.0
290
     0
  0
SCALE
  5
62
102
{ACAD_REACTORS
330
47
102
}
330
47
100
AcDbScale
 70
     0
300
1/2" = 1'-0"
140
0.5
141
12.0
290
     0
  0
SCALE
  5
63
102
{ACAD_REACTORS
330
47
102
}
330
47
100
AcDbScale
 70
     0
300
3/4" = 1'-0"
140
0.75
141
12.0
290
     0
  0
SCALE
  5
64
102
{ACAD_REACTORS
330
47
102
}
330
47
100
AcDbScale
 70
     0
300
1" = 1'-0"
140
1.0
141
12.0
290
     0
  0
SCALE
  5
65
102
{ACAD_REACTORS
330
47
102
}
330
47
100
AcDbScale
 70
     0
300
1-1/2" = 1'-0"
140
1.5
141
12.0
290
     0
  0
SCALE
  5
66
102
{ACAD_REACTORS
330
47
102
}
330
47
100
AcDbScale
 70
     0
300
3" = 1'-0"
140
3.0
141
12.0
290
     0
  0
SCALE
  5
67
102
{ACAD_REACTORS
330
47
102
}
330
47
100
AcDbScale
 70
     0
300
6" = 1'-0"
140
6.0
141
12.0
290
     0
  0
SCALE
  5
68
102
{ACAD_REACTORS
330
47
102
}
330
47
100
AcDbScale
 70
     0
300
1'-0" = 1'-0"
140
12.0
141
12.0
290
     0
  0
ENDSEC
  0
EOF
