  0
SECTION
  2
HEADER
  9
$ACADVER
  1
AC1015
  9
$ACADMAINTVER
 70
     6
  9
$DWGCODEPAGE
  3
ANSI_1257
  9
$INSBASE
 10
0.0
 20
0.0
 30
0.0
  9
$EXTMIN
 10
-65.9827560573
 20
-87.1959594929
 30
0.0
  9
$EXTMAX
 10
65.9827560573
 20
87.1959594929
 30
0.0
  9
$LIMMIN
 10
0.0
 20
0.0
  9
$LIMMAX
 10
420.0
 20
297.0
  9
$ORTHOMODE
 70
     0
  9
$REGENMODE
 70
     1
  9
$FILLMODE
 70
     1
  9
$QTEXTMODE
 70
     0
  9
$MIRRTEXT
 70
     1
  9
$LTSCALE
 40
1.0
  9
$ATTMODE
 70
     1
  9
$TEXTSIZE
 40
3.5
  9
$TRACEWID
 40
1.0
  9
$TEXTSTYLE
  7
Standard
  9
$CLAYER
  8
0
  9
$CELTYPE
  6
ByLayer
  9
$CECOLOR
 62
   256
  9
$CELTSCALE
 40
1.0
  9
$DISPSILH
 70
     0
  9
$DIMSCALE
 40
1.0
  9
$DIMASZ
 40
3.302
  9
$DIMEXO
 40
1.0
  9
$DIMDLI
 40
3.75
  9
$DIMRND
 40
0.0
  9
$DIMDLE
 40
0.0
  9
$DIMEXE
 40
1.0
  9
$DIMTP
 40
0.0
  9
$DIMTM
 40
0.0
  9
$DIMTXT
 40
3.5
  9
$DIMCEN
 40
2.5
  9
$DIMTSZ
 40
0.0
  9
$DIMTOL
 70
     0
  9
$DIMLIM
 70
     0
  9
$DIMTIH
 70
     1
  9
$DIMTOH
 70
     1
  9
$DIMSE1
 70
     0
  9
$DIMSE2
 70
     0
  9
$DIMTAD
 70
     1
  9
$DIMZIN
 70
     0
  9
$DIMBLK
  1

  9
$DIMASO
 70
     1
  9
$DIMSHO
 70
     1
  9
$DIMPOST
  1

  9
$DIMAPOST
  1

  9
$DIMALT
 70
     0
  9
$DIMALTD
 70
     3
  9
$DIMALTF
 40
0.0393700787
  9
$DIMLFAC
 40
1.0
  9
$DIMTOFL
 70
     1
  9
$DIMTVP
 40
0.0
  9
$DIMTIX
 70
     0
  9
$DIMSOXD
 70
     0
  9
$DIMSAH
 70
     0
  9
$DIMBLK1
  1

  9
$DIMBLK2
  1

  9
$DIMSTYLE
  2
ISO-25
  9
$DIMCLRD
 70
     0
  9
$DIMCLRE
 70
     0
  9
$DIMCLRT
 70
     0
  9
$DIMTFAC
 40
1.0
  9
$DIMGAP
 40
1.524
  9
$DIMJUST
 70
     0
  9
$DIMSD1
 70
     0
  9
$DIMSD2
 70
     0
  9
$DIMTOLJ
 70
     0
  9
$DIMTZIN
 70
     0
  9
$DIMALTZ
 70
     0
  9
$DIMALTTZ
 70
     0
  9
$DIMUPT
 70
     0
  9
$DIMDEC
 70
     3
  9
$DIMTDEC
 70
     3
  9
$DIMALTU
 70
     2
  9
$DIMALTTD
 70
     3
  9
$DIMTXSTY
  7
Standard
  9
$DIMAUNIT
 70
     0
  9
$DIMADEC
 70
     2
  9
$DIMALTRND
 40
0.0
  9
$DIMAZIN
 70
     0
  9
$DIMDSEP
 70
    44
  9
$DIMATFIT
 70
     3
  9
$DIMFRAC
 70
     0
  9
$DIMLDRBLK
  1

  9
$DIMLUNIT
 70
     2
  9
$DIMLWD
 70
    -2
  9
$DIMLWE
 70
    -2
  9
$DIMTMOVE
 70
     0
  9
$LUNITS
 70
     2
  9
$LUPREC
 70
     2
  9
$SKETCHINC
 40
1.0
  9
$FILLETRAD
 40
10.0
  9
$AUNITS
 70
     0
  9
$AUPREC
 70
     2
  9
$MENU
  1
.
  9
$ELEVATION
 40
0.0
  9
$PELEVATION
 40
0.0
  9
$THICKNESS
 40
0.0
  9
$LIMCHECK
 70
     0
  9
$CHAMFERA
 40
10.0
  9
$CHAMFERB
 40
10.0
  9
$CHAMFERC
 40
20.0
  9
$CHAMFERD
 40
0.0
  9
$SKPOLY
 70
     0
  9
$TDCREATE
 40
2456599.490492002
  9
$TDUCREATE
 40
2456599.407158669
  9
$TDUPDATE
 40
2456599.526067234
  9
$TDUUPDATE
 40
2456599.442733901
  9
$TDINDWG
 40
0.0283289352
  9
$TDUSRTIMER
 40
2456599.41440456
  9
$USRTIMER
 70
     1
  9
$ANGBASE
 50
0.0
  9
$ANGDIR
 70
     0
  9
$PDMODE
 70
     0
  9
$PDSIZE
 40
-1.0
  9
$PLINEWID
 40
0.0
  9
$SPLFRAME
 70
     0
  9
$SPLINETYPE
 70
     6
  9
$SPLINESEGS
 70
     8
  9
$HANDSEED
  5
294
  9
$SURFTAB1
 70
     6
  9
$SURFTAB2
 70
     6
  9
$SURFTYPE
 70
     6
  9
$SURFU
 70
     6
  9
$SURFV
 70
     6
  9
$UCSBASE
  2

  9
$UCSNAME
  2

  9
$UCSORG
 10
0.0
 20
0.0
 30
0.0
  9
$UCSXDIR
 10
1.0
 20
0.0
 30
0.0
  9
$UCSYDIR
 10
0.0
 20
1.0
 30
0.0
  9
$UCSORTHOREF
  2

  9
$UCSORTHOVIEW
 70
     0
  9
$UCSORGTOP
 10
0.0
 20
0.0
 30
0.0
  9
$UCSORGBOTTOM
 10
0.0
 20
0.0
 30
0.0
  9
$UCSORGLEFT
 10
0.0
 20
0.0
 30
0.0
  9
$UCSORGRIGHT
 10
0.0
 20
0.0
 30
0.0
  9
$UCSORGFRONT
 10
0.0
 20
0.0
 30
0.0
  9
$UCSORGBACK
 10
0.0
 20
0.0
 30
0.0
  9
$PUCSBASE
  2

  9
$PUCSNAME
  2

  9
$PUCSORG
 10
0.0
 20
0.0
 30
0.0
  9
$PUCSXDIR
 10
1.0
 20
0.0
 30
0.0
  9
$PUCSYDIR
 10
0.0
 20
1.0
 30
0.0
  9
$PUCSORTHOREF
  2

  9
$PUCSORTHOVIEW
 70
     0
  9
$PUCSORGTOP
 10
0.0
 20
0.0
 30
0.0
  9
$PUCSORGBOTTOM
 10
0.0
 20
0.0
 30
0.0
  9
$PUCSORGLEFT
 10
0.0
 20
0.0
 30
0.0
  9
$PUCSORGRIGHT
 10
0.0
 20
0.0
 30
0.0
  9
$PUCSORGFRONT
 10
0.0
 20
0.0
 30
0.0
  9
$PUCSORGBACK
 10
0.0
 20
0.0
 30
0.0
  9
$USERI1
 70
     0
  9
$USERI2
 70
     0
  9
$USERI3
 70
     0
  9
$USERI4
 70
     0
  9
$USERI5
 70
     0
  9
$USERR1
 40
0.0
  9
$USERR2
 40
0.0
  9
$USERR3
 40
0.0
  9
$USERR4
 40
0.0
  9
$USERR5
 40
0.0
  9
$WORLDVIEW
 70
     1
  9
$SHADEDGE
 70
     3
  9
$SHADEDIF
 70
    70
  9
$TILEMODE
 70
     1
  9
$MAXACTVP
 70
    64
  9
$PINSBASE
 10
0.0
 20
0.0
 30
0.0
  9
$PLIMCHECK
 70
     0
  9
$PEXTMIN
 10
1.000000000000000E+20
 20
1.000000000000000E+20
 30
1.000000000000000E+20
  9
$PEXTMAX
 10
-1.000000000000000E+20
 20
-1.000000000000000E+20
 30
-1.000000000000000E+20
  9
$PLIMMIN
 10
0.0
 20
0.0
  9
$PLIMMAX
 10
0.0
 20
0.0
  9
$UNITMODE
 70
     0
  9
$VISRETAIN
 70
     1
  9
$PLINEGEN
 70
     0
  9
$PSLTSCALE
 70
     1
  9
$TREEDEPTH
 70
  3020
  9
$CMLSTYLE
  2
Standard
  9
$CMLJUST
 70
     0
  9
$CMLSCALE
 40
20.0
  9
$PROXYGRAPHICS
 70
     1
  9
$MEASUREMENT
 70
     1
  9
$CELWEIGHT
370
    -1
  9
$ENDCAPS
280
     0
  9
$JOINSTYLE
280
     0
  9
$LWDISPLAY
290
     1
  9
$INSUNITS
 70
     4
  9
$HYPERLINKBASE
  1

  9
$STYLESHEET
  1

  9
$XEDIT
290
     1
  9
$CEPSNTYPE
380
     0
  9
$PSTYLEMODE
290
     1
  9
$FINGERPRINTGUID
  2
{8153E411-6309-41CF-8EA2-2278A1399F1F}
  9
$VERSIONGUID
  2
{FAEB1C32-E019-11D5-929B-00C0DF256EC4}
  9
$EXTNAMES
290
     1
  9
$PSVPSCALE
 40
0.0
  9
$OLESTARTUP
290
     0
  0
ENDSEC
  0
SECTION
  2
CLASSES
  0
CLASS
  1
ACDBDICTIONARYWDFLT
  2
AcDbDictionaryWithDefault
  3
ObjectDBX Classes
 90
        0
280
     0
281
     0
  0
CLASS
  1
VISUALSTYLE
  2
AcDbVisualStyle
  3
ObjectDBX Classes
 90
     4095
280
     0
281
     0
  0
CLASS
  1
MATERIAL
  2
AcDbMaterial
  3
ObjectDBX Classes
 90
     1153
280
     0
281
     0
  0
CLASS
  1
ACDBPLACEHOLDER
  2
AcDbPlaceHolder
  3
ObjectDBX Classes
 90
        0
280
     0
281
     0
  0
CLASS
  1
LAYOUT
  2
AcDbLayout
  3
ObjectDBX Classes
 90
        0
280
     0
281
     0
  0
CLASS
  1
SCALE
  2
AcDbScale
  3
ObjectDBX Classes
 90
     1153
280
     0
281
     0
  0
CLASS
  1
TABLESTYLE
  2
AcDbTableStyle
  3
ObjectDBX Classes
 90
     4095
280
     0
281
     0
  0
CLASS
  1
SUN
  2
AcDbSun
  3
SCENEOE
 90
     1153
280
     0
281
     0
  0
CLASS
  1
RASTERVARIABLES
  2
AcDbRasterVariables
  3
ISM
 90
        0
280
     0
281
     0
  0
CLASS
  1
DICTIONARYVAR
  2
AcDbDictionaryVar
  3
ObjectDBX Classes
 90
        0
280
     0
281
     0
  0
ENDSEC
  0
SECTION
  2
TABLES
  0
TABLE
  2
VPORT
  5
8
330
0
100
AcDbSymbolTable
 70
     1
  0
VPORT
  5
29
330
8
100
AcDbSymbolTableRecord
100
AcDbViewportTableRecord
  2
*Active
 70
     0
 10
0.0
 20
0.0
 11
1.0
 21
1.0
 12
200.8546479589361
 22
110.705751293024
 13
0.0
 23
0.0
 14
10.0
 24
10.0
 15
10.0
 25
10.0
 16
0.0
 26
0.0
 36
1.0
 17
0.0
 27
0.0
 37
0.0
 40
347.4214011044921
 41
1.524122807017544
 42
50.0
 43
0.0
 44
0.0
 50
0.0
 51
0.0
 71
    16
 72
   100
 73
     1
 74
     3
 75
     0
 76
     0
 77
     0
 78
     0
281
     0
 65
     1
110
0.0
120
0.0
130
0.0
111
1.0
121
0.0
131
0.0
112
0.0
122
1.0
132
0.0
 79
     0
146
0.0
  0
ENDTAB
  0
TABLE
  2
LTYPE
  5
5
330
0
100
AcDbSymbolTable
 70
     6
  0
LTYPE
  5
14
330
5
100
AcDbSymbolTableRecord
100
AcDbLinetypeTableRecord
  2
ByBlock
 70
     0
  3

 72
    65
 73
     0
 40
0.0
  0
LTYPE
  5
15
330
5
100
AcDbSymbolTableRecord
100
AcDbLinetypeTableRecord
  2
ByLayer
 70
     0
  3

 72
    65
 73
     0
 40
0.0
  0
LTYPE
  5
16
330
5
100
AcDbSymbolTableRecord
100
AcDbLinetypeTableRecord
  2
Continuous
 70
     0
  3
Solid line
 72
    65
 73
     0
 40
0.0
  0
LTYPE
  5
3F
330
5
100
AcDbSymbolTableRecord
100
AcDbLinetypeTableRecord
  2
HIDDEN
 70
     0
  3
Hidden __ __ __ __ __ __ __ __ __ __ __ __ __ __
 72
    65
 73
     2
 40
1.905
 49
1.27
 74
     0
 49
-0.635
 74
     0
  0
LTYPE
  5
40
330
5
100
AcDbSymbolTableRecord
100
AcDbLinetypeTableRecord
  2
PHANTOM
 70
     0
  3
Phantom ______  __  __  ______  __  __  ______
 72
    65
 73
     6
 40
12.7
 49
6.35
 74
     0
 49
-1.27
 74
     0
 49
1.27
 74
     0
 49
-1.27
 74
     0
 49
1.27
 74
     0
 49
-1.27
 74
     0
  0
LTYPE
  5
41
330
5
100
AcDbSymbolTableRecord
100
AcDbLinetypeTableRecord
  2
CENTER
 70
     0
  3
Center ____ _ ____ _ ____ _ ____ _ ____ _ ____
 72
    65
 73
     4
 40
10.16
 49
6.35
 74
     0
 49
-1.27
 74
     0
 49
1.27
 74
     0
 49
-1.27
 74
     0
  0
LTYPE
  5
42
330
5
100
AcDbSymbolTableRecord
100
AcDbLinetypeTableRecord
  2
CENTERX2
 70
     0
  3
Center (2x) ________  __  ________  __  _____
 72
    65
 73
     4
 40
20.32
 49
12.7
 74
     0
 49
-2.54
 74
     0
 49
2.54
 74
     0
 49
-2.54
 74
     0
  0
LTYPE
  5
43
330
5
100
AcDbSymbolTableRecord
100
AcDbLinetypeTableRecord
  2
DOT2
 70
     0
  3
Dot (.5x) ........................................
 72
    65
 73
     2
 40
0.635
 49
0.0
 74
     0
 49
-0.635
 74
     0
  0
ENDTAB
  0
TABLE
  2
LAYER
  5
2
330
0
100
AcDbSymbolTable
 70
     2
  0
LAYER
  5
10
330
2
100
AcDbSymbolTableRecord
100
AcDbLayerTableRecord
  2
0
 70
     0
 62
     7
  6
Continuous
370
    -3
390
F
  0
LAYER
  5
27B
330
2
100
AcDbSymbolTableRecord
100
AcDbLayerTableRecord
  2
Defpoints
 70
     0
 62
     7
  6
Continuous
290
     0
370
    -3
390
F
  0
ENDTAB
  0
TABLE
  2
STYLE
  5
3
330
0
100
AcDbSymbolTable
 70
     2
  0
STYLE
  5
11
330
3
100
AcDbSymbolTableRecord
100
AcDbTextStyleTableRecord
  2
Standard
 70
     0
 40
0.0
 41
1.0
 50
0.0
 71
     0
 42
3.5
  3
txt
  4

  0
STYLE
  5
DE
330
3
100
AcDbSymbolTableRecord
100
AcDbTextStyleTableRecord
  2
SLDTEXTSTYLE0
 70
     0
 40
0.0
 41
0.7
 50
0.0
 71
     0
 42
0.2
  3
TXT
  4

  0
ENDTAB
  0
TABLE
  2
VIEW
  5
6
330
0
100
AcDbSymbolTable
 70
     0
  0
ENDTAB
  0
TABLE
  2
UCS
  5
7
330
0
100
AcDbSymbolTable
 70
     0
  0
ENDTAB
  0
TABLE
  2
APPID
  5
9
330
0
100
AcDbSymbolTable
 70
     1
  0
APPID
  5
12
330
9
100
AcDbSymbolTableRecord
100
AcDbRegAppTableRecord
  2
ACAD
 70
     0
  0
ENDTAB
  0
TABLE
  2
DIMSTYLE
  5
A
330
0
100
AcDbSymbolTable
 70
     1
100
AcDbDimStyleTable
  0
DIMSTYLE
105
27
330
A
100
AcDbSymbolTableRecord
100
AcDbDimStyleTableRecord
  2
ISO-25
 70
     0
 41
2.5
 42
0.625
 43
3.75
 44
1.25
 73
     0
 74
     0
 77
     1
 78
     8
140
2.5
141
2.5
143
0.0393700787
147
0.625
171
     3
172
     1
178
     0
271
     2
272
     2
274
     3
278
    44
283
     0
284
     8
340
11
  0
ENDTAB
  0
TABLE
  2
BLOCK_RECORD
  5
1
330
0
100
AcDbSymbolTable
 70
     3
  0
BLOCK_RECORD
  5
1F
330
1
100
AcDbSymbolTableRecord
100
AcDbBlockTableRecord
  2
*Model_Space
340
22
  0
BLOCK_RECORD
  5
1B
330
1
100
AcDbSymbolTableRecord
100
AcDbBlockTableRecord
  2
*Paper_Space
340
1E
  0
BLOCK_RECORD
  5
23
330
1
100
AcDbSymbolTableRecord
100
AcDbBlockTableRecord
  2
*Paper_Space0
340
26
  0
ENDTAB
  0
ENDSEC
  0
SECTION
  2
BLOCKS
  0
BLOCK
  5
20
330
1F
100
AcDbEntity
  8
0
100
AcDbBlockBegin
  2
*Model_Space
 70
     0
 10
0.0
 20
0.0
 30
0.0
  3
*Model_Space
  1
*Model_Space
  0
ENDBLK
  5
21
330
1F
100
AcDbEntity
  8
0
100
AcDbBlockEnd
  0
BLOCK
  5
1C
330
1B
100
AcDbEntity
 67
     1
  8
0
100
AcDbBlockBegin
  2
*Paper_Space
 70
     0
 10
0.0
 20
0.0
 30
0.0
  3
*Paper_Space
  1
*Paper_Space
  0
ENDBLK
  5
1D
330
1B
100
AcDbEntity
 67
     1
  8
0
100
AcDbBlockEnd
  0
BLOCK
  5
24
330
23
100
AcDbEntity
  8
0
100
AcDbBlockBegin
  2
*Paper_Space0
 70
     0
 10
0.0
 20
0.0
 30
0.0
  3
*Paper_Space0
  1
*Paper_Space0
  0
ENDBLK
  5
25
330
23
100
AcDbEntity
  8
0
100
AcDbBlockEnd
  0
ENDSEC
  0
SECTION
  2
ENTITIES
  0
CIRCLE
  5
44
330
1F
100
AcDbEntity
  8
0
  6
Continuous
 62
     7
370
    15
100
AcDbCircle
 10
283.83
 20
58.69999999999996
 30
0.0
 40
1.249999999999998
  0
CIRCLE
  5
45
330
1F
100
AcDbEntity
  8
0
  6
Continuous
 62
     7
370
    15
100
AcDbCircle
 10
283.83
 20
79.29999999999995
 30
0.0
 40
1.249999999999998
  0
CIRCLE
  5
46
330
1F
100
AcDbEntity
  8
0
  6
Continuous
 62
     7
370
    15
100
AcDbCircle
 10
357.1959594929
 20
126.9827560573
 30
0.0
 40
1.5
  0
CIRCLE
  5
47
330
1F
100
AcDbEntity
  8
0
  6
Continuous
 62
     7
370
    15
100
AcDbCircle
 10
198.8040405071
 20
126.9827560573
 30
0.0
 40
1.5
  0
CIRCLE
  5
48
330
1F
100
AcDbEntity
  8
0
  6
Continuous
 62
     7
370
    15
100
AcDbCircle
 10
198.8040405071
 20
11.01724394269996
 30
0.0
 40
1.499999999999986
  0
CIRCLE
  5
49
330
1F
100
AcDbEntity
  8
0
  6
Continuous
 62
     7
370
    15
100
AcDbCircle
 10
357.1959594929
 20
11.01724394269996
 30
0.0
 40
1.499999999999986
  0
CIRCLE
  5
92
330
1F
100
AcDbEntity
  8
0
  6
Continuous
 62
     7
370
    15
100
AcDbCircle
 10
213.0
 20
108.0
 30
0.0
 40
1.500000000000014
  0
CIRCLE
  5
94
330
1F
100
AcDbEntity
  8
0
  6
Continuous
 62
     7
370
    15
100
AcDbCircle
 10
333.0
 20
107.9999999999999
 30
0.0
 40
1.500000000000007
  0
CIRCLE
  5
96
330
1F
100
AcDbEntity
  8
0
  6
Continuous
 62
     7
370
    15
100
AcDbCircle
 10
213.0
 20
29.99999999999997
 30
0.0
 40
1.500000000000014
  0
CIRCLE
  5
98
330
1F
100
AcDbEntity
  8
0
  6
Continuous
 62
     7
370
    15
100
AcDbCircle
 10
333.0
 20
29.99999999999994
 30
0.0
 40
1.500000000000007
  0
LINE
  5
9A
330
1F
100
AcDbEntity
  8
0
  6
Continuous
 62
     7
370
    15
100
AcDbLine
 10
312.641181807
 20
39.69716587899995
 30
0.0
 11
310.7477073465
 21
41.50330710839995
 31
0.0
  0
LINE
  5
9B
330
1F
100
AcDbEntity
  8
0
  6
Continuous
 62
     7
370
    15
100
AcDbLine
 10
290.9802536165
 20
64.99999999999994
 30
0.0
 11
296.5781431333
 21
64.99999999999994
 31
0.0
  0
LINE
  5
9C
330
1F
100
AcDbEntity
  8
0
  6
Continuous
 62
     7
370
    15
100
AcDbLine
 10
283.1696249322
 20
45.17348877939997
 30
0.0
 11
288.0906743953
 21
62.80643159909994
 31
0.0
  0
LINE
  5
9D
330
1F
100
AcDbEntity
  8
0
  6
Continuous
 62
     7
370
    15
100
AcDbLine
 10
310.7477073465
 20
96.49669289159993
 30
0.0
 11
312.641181807
 21
98.30283412099996
 31
0.0
  0
LINE
  5
9E
330
1F
100
AcDbEntity
  8
0
  6
Continuous
 62
     7
370
    15
100
AcDbLine
 10
296.5781431333
 20
72.99999999999994
 30
0.0
 11
290.9802536165
 21
72.99999999999994
 31
0.0
  0
LINE
  5
9F
330
1F
100
AcDbEntity
  8
0
  6
Continuous
 62
     7
370
    15
100
AcDbLine
 10
249.7151521164
 20
95.02504193099998
 30
0.0
 11
226.5664376061
 21
104.6328869588
 31
0.0
  0
LINE
  5
A0
330
1F
100
AcDbEntity
  8
0
  6
Continuous
 62
     7
370
    15
100
AcDbLine
 10
222.7164612867
 20
100.5542965134999
 30
0.0
 11
229.976755042
 21
85.56509590079997
 31
0.0
  0
LINE
  5
A1
330
1F
100
AcDbEntity
  8
0
  6
Continuous
 62
     7
370
    15
100
AcDbLine
 10
229.976755042
 20
52.43490409919997
 30
0.0
 11
222.7164612867
 21
37.44570348649995
 31
0.0
  0
LINE
  5
A2
330
1F
100
AcDbEntity
  8
0
  6
Continuous
 62
     7
370
    15
100
AcDbLine
 10
226.5664376061
 20
33.36711304119996
 30
0.0
 11
249.7151521164
 21
42.97495806899997
 31
0.0
  0
LINE
  5
A3
330
1F
100
AcDbEntity
  8
0
  6
Continuous
 62
     7
370
    15
100
AcDbLine
 10
283.3648504574
 20
68.19356840089995
 30
0.0
 11
277.3881907499
 21
46.77819762139995
 31
0.0
  0
LINE
  5
A4
330
1F
100
AcDbEntity
  8
0
  6
Continuous
 62
     7
370
    15
100
AcDbLine
 10
225.0
 20
28.49999999999997
 30
0.0
 11
225.0
 21
31.49999999999997
 31
0.0
  0
LINE
  5
A5
330
1F
100
AcDbEntity
  8
0
  6
Continuous
 62
     7
370
    15
100
AcDbLine
 10
223.5
 20
32.99999999999997
 30
0.0
 11
200.5627408728
 21
32.99999999999997
 31
0.0
  0
LINE
  5
A6
330
1F
100
AcDbEntity
  8
0
  6
Continuous
 62
     7
370
    15
100
AcDbLine
 10
200.5627408728
 20
105.0
 30
0.0
 11
223.5
 21
105.0
 31
0.0
  0
LINE
  5
A7
330
1F
100
AcDbEntity
  8
0
  6
Continuous
 62
     7
370
    15
100
AcDbLine
 10
225.0
 20
106.5
 30
0.0
 11
225.0
 21
109.5
 31
0.0
  0
LINE
  5
A8
330
1F
100
AcDbEntity
  8
0
  6
Continuous
 62
     7
370
    15
100
AcDbLine
 10
223.5
 20
111.0
 30
0.0
 11
197.6565310183
 21
111.0
 31
0.0
  0
LINE
  5
A9
330
1F
100
AcDbEntity
  8
0
  6
Continuous
 62
     7
370
    15
100
AcDbLine
 10
191.6041710168
 20
123.4953674466
 30
0.0
 11
213.7770486888
 21
77.71847152669994
 31
0.0
  0
LINE
  5
AA
330
1F
100
AcDbEntity
  8
0
  6
Continuous
 62
     7
370
    15
100
AcDbLine
 10
256.6153036792
 20
111.6499602288
 30
0.0
 11
201.870774535
 21
134.3716086341
 31
0.0
  0
LINE
  5
AB
330
1F
100
AcDbEntity
  8
0
  6
Continuous
 62
     7
370
    15
100
AcDbLine
 10
355.0454752286
 20
134.6883006472999
 30
0.0
 11
269.6583494098
 21
110.8582301958
 31
0.0
  0
LINE
  5
AC
330
1F
100
AcDbEntity
  8
0
  6
Continuous
 62
     7
370
    15
100
AcDbLine
 10
352.030846562
 20
110.9999999999999
 30
0.0
 11
322.5
 21
110.9999999999999
 31
0.0
  0
LINE
  5
AD
330
1F
100
AcDbEntity
  8
0
  6
Continuous
 62
     7
370
    15
100
AcDbLine
 10
321.0
 20
109.4999999999999
 30
0.0
 11
321.0
 21
106.4999999999999
 31
0.0
  0
LINE
  5
AE
330
1F
100
AcDbEntity
  8
0
  6
Continuous
 62
     7
370
    15
100
AcDbLine
 10
322.5
 20
104.9999999999999
 30
0.0
 11
345.7407256245
 21
104.9999999999999
 31
0.0
  0
LINE
  5
AF
330
1F
100
AcDbEntity
  8
0
  6
Continuous
 62
     7
370
    15
100
AcDbLine
 10
323.1717126024
 20
83.47194362719995
 30
0.0
 11
362.7177396066
 21
121.1939786064
 31
0.0
  0
LINE
  5
B0
330
1F
100
AcDbEntity
  8
0
  6
Continuous
 62
     7
370
    15
100
AcDbLine
 10
345.7407256245
 20
32.99999999999994
 30
0.0
 11
322.5
 21
32.99999999999994
 31
0.0
  0
LINE
  5
B1
330
1F
100
AcDbEntity
  8
0
  6
Continuous
 62
     7
370
    15
100
AcDbLine
 10
321.0
 20
31.49999999999994
 30
0.0
 11
321.0
 21
28.49999999999994
 31
0.0
  0
LINE
  5
B2
330
1F
100
AcDbEntity
  8
0
  6
Continuous
 62
     7
370
    15
100
AcDbLine
 10
322.5
 20
26.99999999999994
 30
0.0
 11
352.030846562
 21
26.99999999999994
 31
0.0
  0
LINE
  5
B3
330
1F
100
AcDbEntity
  8
0
  6
Continuous
 62
     7
370
    15
100
AcDbLine
 10
362.7177396066
 20
16.80602139359996
 30
0.0
 11
323.1717126024
 21
54.52805637279994
 31
0.0
  0
LINE
  5
B4
330
1F
100
AcDbEntity
  8
0
  6
Continuous
 62
     7
370
    15
100
AcDbLine
 10
269.6583494098
 20
27.14176980419995
 30
0.0
 11
355.0454752286
 21
3.311699352699947
 31
0.0
  0
LINE
  5
B5
330
1F
100
AcDbEntity
  8
0
  6
Continuous
 62
     7
370
    15
100
AcDbLine
 10
201.870774535
 20
3.628391365899972
 30
0.0
 11
256.6153036792
 21
26.35003977119996
 31
0.0
  0
LINE
  5
B6
330
1F
100
AcDbEntity
  8
0
  6
Continuous
 62
     7
370
    15
100
AcDbLine
 10
213.7770486888
 20
60.28152847329994
 30
0.0
 11
191.6041710168
 21
14.50463255339997
 31
0.0
  0
LINE
  5
B7
330
1F
100
AcDbEntity
  8
0
  6
Continuous
 62
     7
370
    15
100
AcDbLine
 10
197.6565310183
 20
26.99999999999997
 30
0.0
 11
223.5
 21
26.99999999999997
 31
0.0
  0
LINE
  5
B8
330
1F
100
AcDbEntity
  8
0
  6
Continuous
 62
     7
370
    15
100
AcDbLine
 10
285.2527725544
 20
41.47747795899994
 30
0.0
 11
309.7640826652
 21
34.63679511369997
 31
0.0
  0
LINE
  5
B9
330
1F
100
AcDbEntity
  8
0
  6
Continuous
 62
     7
370
    15
100
AcDbLine
 10
309.7640826652
 20
103.3632048862999
 30
0.0
 11
285.2527725544
 21
96.52252204099995
 31
0.0
  0
LINE
  5
BA
330
1F
100
AcDbEntity
  8
0
  6
Continuous
 62
     7
370
    15
100
AcDbLine
 10
277.3881907499
 20
91.22180237859996
 30
0.0
 11
283.3648504574
 21
69.80643159909994
 31
0.0
  0
LINE
  5
BB
330
1F
100
AcDbEntity
  8
0
  6
Continuous
 62
     7
370
    15
100
AcDbLine
 10
288.0906743953
 20
75.19356840089995
 30
0.0
 11
283.1696249322
 21
92.82651122059997
 31
0.0
  0
ARC
  5
BC
330
1F
100
AcDbEntity
  8
0
  6
Continuous
 62
     7
370
    15
100
AcDbCircle
 10
286.0592041535
 20
44.36705718029998
 30
0.0
 40
3.000000000000013
100
AcDbArc
 50
164.4065011016005
 51
254.4065011016005
  0
ARC
  5
BD
330
1F
100
AcDbEntity
  8
0
  6
Continuous
 62
     7
370
    15
100
AcDbCircle
 10
310.5705142643
 20
37.52637433499996
 30
0.0
 40
3.000000000000009
100
AcDbArc
 50
254.4065011016005
 51
46.35227462299998
  0
ARC
  5
BE
330
1F
100
AcDbEntity
  8
0
  6
Continuous
 62
     7
370
    15
100
AcDbCircle
 10
296.5781431333
 20
61.99999999999994
 30
0.0
 40
3.000000000000008
100
AcDbArc
 50
9.830364779999996
 51
90.0
  0
ARC
  5
BF
330
1F
100
AcDbEntity
  8
0
  6
Continuous
 62
     7
370
    15
100
AcDbCircle
 10
290.9802536165
 20
61.99999999999994
 30
0.0
 40
2.999999999999998
100
AcDbArc
 50
90.0
 51
164.4065011016
  0
ARC
  5
C0
330
1F
100
AcDbEntity
  8
0
  6
Continuous
 62
     7
370
    15
100
AcDbCircle
 10
310.5705142643
 20
100.473625665
 30
0.0
 40
3.00000000000001
100
AcDbArc
 50
313.647725377
 51
105.5934988983995
  0
ARC
  5
C1
330
1F
100
AcDbEntity
  8
0
  6
Continuous
 62
     7
370
    15
100
AcDbCircle
 10
286.0592041535
 20
93.63294281969996
 30
0.0
 40
3.000000000000007
100
AcDbArc
 50
105.5934988983995
 51
195.5934988984
  0
ARC
  5
C2
330
1F
100
AcDbEntity
  8
0
  6
Continuous
 62
     7
370
    15
100
AcDbCircle
 10
290.9802536165
 20
75.99999999999994
 30
0.0
 40
2.999999999999997
100
AcDbArc
 50
195.5934988983995
 51
270.0
  0
ARC
  5
C3
330
1F
100
AcDbEntity
  8
0
  6
Continuous
 62
     7
370
    15
100
AcDbCircle
 10
296.5781431333
 20
75.99999999999994
 30
0.0
 40
3.000000000000013
100
AcDbArc
 50
270.0
 51
350.16963522
  0
ARC
  5
C4
330
1F
100
AcDbEntity
  8
0
  6
Continuous
 62
     7
370
    15
100
AcDbCircle
 10
336.9761628867
 20
68.99999999999994
 30
0.0
 40
37.99999999999993
100
AcDbArc
 50
133.647725377
 51
170.16963522
  0
ARC
  5
C5
330
1F
100
AcDbEntity
  8
0
  6
Continuous
 62
     7
370
    15
100
AcDbCircle
 10
225.4164123456
 20
101.8620672425
 30
0.0
 40
3.000000000000016
100
AcDbArc
 50
67.45916719439995
 51
205.8440770442
  0
ARC
  5
C6
330
1F
100
AcDbEntity
  8
0
  6
Continuous
 62
     7
370
    15
100
AcDbCircle
 10
195.7773749629
 20
68.99999999999994
 30
0.0
 40
37.99999999999989
100
AcDbArc
 50
334.1559229558
 51
25.84407704419997
  0
ARC
  5
C7
330
1F
100
AcDbEntity
  8
0
  6
Continuous
 62
     7
370
    15
100
AcDbCircle
 10
225.4164123456
 20
36.13793275749998
 30
0.0
 40
3.000000000000004
100
AcDbArc
 50
154.1559229558005
 51
292.5408328056001
  0
ARC
  5
C8
330
1F
100
AcDbEntity
  8
0
  6
Continuous
 62
     7
370
    15
100
AcDbCircle
 10
264.282138749
 20
7.877908329199954
 30
0.0
 40
37.99999999999986
100
AcDbArc
 50
75.57087199510005
 51
112.5408328056
  0
ARC
  5
C9
330
1F
100
AcDbEntity
  8
0
  6
Continuous
 62
     7
370
    15
100
AcDbCircle
 10
274.4986115286
 20
47.58462922049995
 30
0.0
 40
3.000000000000008
100
AcDbArc
 50
255.5708719951004
 51
344.4065011016005
  0
ARC
  5
CA
330
1F
100
AcDbEntity
  8
0
  6
Continuous
 62
     7
370
    15
100
AcDbCircle
 10
280.4752712361
 20
68.99999999999994
 30
0.0
 40
3.000000000000022
100
AcDbArc
 50
344.4065011016005
 51
15.59349889840056
  0
ARC
  5
CB
330
1F
100
AcDbEntity
  8
0
  6
Continuous
 62
     7
370
    15
100
AcDbCircle
 10
274.4986115286
 20
90.41537077949994
 30
0.0
 40
2.999999999999997
100
AcDbArc
 50
15.59349889840056
 51
104.4291280048997
  0
ARC
  5
CC
330
1F
100
AcDbEntity
  8
0
  6
Continuous
 62
     7
370
    15
100
AcDbCircle
 10
264.282138749
 20
130.1220916708
 30
0.0
 40
37.99999999999995
100
AcDbArc
 50
247.4591671944
 51
284.4291280048999
  0
ARC
  5
CD
330
1F
100
AcDbEntity
  8
0
  6
Continuous
 62
     7
370
    15
100
AcDbCircle
 10
223.5
 20
28.49999999999997
 30
0.0
 40
1.499999999999993
100
AcDbArc
 50
270.0
 51
0.0
  0
ARC
  5
CE
330
1F
100
AcDbEntity
  8
0
  6
Continuous
 62
     7
370
    15
100
AcDbCircle
 10
223.5
 20
31.49999999999997
 30
0.0
 40
1.499999999999986
100
AcDbArc
 50
0.0
 51
90.0
  0
ARC
  5
CF
330
1F
100
AcDbEntity
  8
0
  6
Continuous
 62
     7
370
    15
100
AcDbCircle
 10
195.7773749629
 20
68.99999999999994
 30
0.0
 40
19.99999999999999
100
AcDbArc
 50
334.1559229558
 51
25.84407704420001
  0
ARC
  5
D0
330
1F
100
AcDbEntity
  8
0
  6
Continuous
 62
     7
370
    15
100
AcDbCircle
 10
223.5
 20
106.5
 30
0.0
 40
1.499999999999993
100
AcDbArc
 50
270.0
 51
0.0
  0
ARC
  5
D1
330
1F
100
AcDbEntity
  8
0
  6
Continuous
 62
     7
370
    15
100
AcDbCircle
 10
223.5
 20
109.5
 30
0.0
 40
1.499999999999986
100
AcDbArc
 50
0.0
 51
90.0
  0
ARC
  5
D2
330
1F
100
AcDbEntity
  8
0
  6
Continuous
 62
     7
370
    15
100
AcDbCircle
 10
198.8040405071
 20
126.9827560573
 30
0.0
 40
8.000000000000044
100
AcDbArc
 50
67.45916719440008
 51
205.8440770442
  0
ARC
  5
D3
330
1F
100
AcDbEntity
  8
0
  6
Continuous
 62
     7
370
    15
100
AcDbCircle
 10
264.282138749
 20
130.1220916708
 30
0.0
 40
20.00000000000017
100
AcDbArc
 50
247.4591671944001
 51
285.5934988984
  0
ARC
  5
D4
330
1F
100
AcDbEntity
  8
0
  6
Continuous
 62
     7
370
    15
100
AcDbCircle
 10
357.1959594929
 20
126.9827560573
 30
0.0
 40
8.000000000000016
100
AcDbArc
 50
313.6477253770001
 51
105.5934988984
  0
ARC
  5
D5
330
1F
100
AcDbEntity
  8
0
  6
Continuous
 62
     7
370
    15
100
AcDbCircle
 10
322.5
 20
109.4999999999999
 30
0.0
 40
1.5
100
AcDbArc
 50
90.0
 51
180.0
  0
ARC
  5
D6
330
1F
100
AcDbEntity
  8
0
  6
Continuous
 62
     7
370
    15
100
AcDbCircle
 10
322.5
 20
106.4999999999999
 30
0.0
 40
1.5
100
AcDbArc
 50
180.0
 51
270.0
  0
ARC
  5
D7
330
1F
100
AcDbEntity
  8
0
  6
Continuous
 62
     7
370
    15
100
AcDbCircle
 10
336.9761628867
 20
68.99999999999994
 30
0.0
 40
19.99999999999997
100
AcDbArc
 50
133.6477253770002
 51
226.3522746229999
  0
ARC
  5
D8
330
1F
100
AcDbEntity
  8
0
  6
Continuous
 62
     7
370
    15
100
AcDbCircle
 10
322.5
 20
31.49999999999994
 30
0.0
 40
1.5
100
AcDbArc
 50
90.0
 51
180.0
  0
ARC
  5
D9
330
1F
100
AcDbEntity
  8
0
  6
Continuous
 62
     7
370
    15
100
AcDbCircle
 10
322.5
 20
28.49999999999994
 30
0.0
 40
1.5
100
AcDbArc
 50
180.0
 51
270.0
  0
ARC
  5
DA
330
1F
100
AcDbEntity
  8
0
  6
Continuous
 62
     7
370
    15
100
AcDbCircle
 10
357.1959594929
 20
11.01724394269996
 30
0.0
 40
7.999999999999971
100
AcDbArc
 50
254.4065011016004
 51
46.35227462299989
  0
ARC
  5
DB
330
1F
100
AcDbEntity
  8
0
  6
Continuous
 62
     7
370
    15
100
AcDbCircle
 10
264.282138749
 20
7.877908329199954
 30
0.0
 40
20.00000000000019
100
AcDbArc
 50
74.40650110160004
 51
112.5408328055999
  0
ARC
  5
DC
330
1F
100
AcDbEntity
  8
0
  6
Continuous
 62
     7
370
    15
100
AcDbCircle
 10
198.8040405071
 20
11.01724394269996
 30
0.0
 40
8.000000000000018
100
AcDbArc
 50
154.1559229558001
 51
292.5408328055997
  0
ARC
  5
DD
330
1F
100
AcDbEntity
  8
0
  6
Continuous
 62
     7
370
    15
100
AcDbCircle
 10
336.9761628867
 20
68.99999999999994
 30
0.0
 40
37.99999999999977
100
AcDbArc
 50
189.83036478
 51
226.352274623
  0
CIRCLE
  5
199
330
1F
100
AcDbEntity
  8
0
  6
Continuous
 62
     7
370
    15
100
AcDbCircle
 10
127.0
 20
44.00000000000003
 30
0.0
 40
1.5
  0
CIRCLE
  5
19A
330
1F
100
AcDbEntity
  8
0
  6
Continuous
 62
     7
370
    15
100
AcDbCircle
 10
164.0
 20
89.0
 30
0.0
 40
1.499999999999986
  0
LINE
  5
19B
330
1F
100
AcDbEntity
  8
0
  6
Continuous
 62
     7
370
    15
100
AcDbLine
 10
144.9907874984
 20
11.65295121370002
 30
0.0
 11
154.5578733075999
 21
34.7499395264
 31
0.0
  0
LINE
  5
19C
330
1F
100
AcDbEntity
  8
0
  6
Continuous
 62
     7
370
    15
100
AcDbLine
 10
130.5370054623
 20
44.69970876790003
 30
0.0
 11
120.9699196531
 21
21.60272045510004
 31
0.0
  0
LINE
  5
19D
330
1F
100
AcDbEntity
  8
0
  6
Continuous
 62
     7
370
    15
100
AcDbLine
 10
122.0523118533999
 20
18.98959452540004
 30
0.0
 11
142.3776615687
 21
10.57055901339999
 31
0.0
  0
LINE
  5
19E
330
1F
100
AcDbEntity
  8
0
  6
Continuous
 62
     7
370
    15
100
AcDbLine
 10
160.355811042
 20
89.95847261699998
 30
0.0
 11
155.3632990811
 21
102.0114627032
 31
0.0
  0
LINE
  5
19F
330
1F
100
AcDbEntity
  8
0
  6
Continuous
 62
     7
370
    15
100
AcDbLine
 10
105.0
 20
29.00000000000003
 30
0.0
 11
106.0
 21
29.00000000000003
 31
0.0
  0
LINE
  5
1A0
330
1F
100
AcDbEntity
  8
0
  6
Continuous
 62
     7
370
    15
100
AcDbLine
 10
105.0
 20
49.00000000000003
 30
0.0
 11
105.0
 21
29.00000000000003
 31
0.0
  0
LINE
  5
1A1
330
1F
100
AcDbEntity
  8
0
  6
Continuous
 62
     7
370
    15
100
AcDbLine
 10
106.0
 20
49.00000000000003
 30
0.0
 11
105.0
 21
49.00000000000003
 31
0.0
  0
LINE
  5
1A2
330
1F
100
AcDbEntity
  8
0
  6
Continuous
 62
     7
370
    15
100
AcDbLine
 10
105.0
 20
149.0
 30
0.0
 11
106.0
 21
149.0
 31
0.0
  0
LINE
  5
1A3
330
1F
100
AcDbEntity
  8
0
  6
Continuous
 62
     7
370
    15
100
AcDbLine
 10
105.0
 20
169.0
 30
0.0
 11
105.0
 21
149.0
 31
0.0
  0
LINE
  5
1A4
330
1F
100
AcDbEntity
  8
0
  6
Continuous
 62
     7
370
    15
100
AcDbLine
 10
108.9942035528
 20
169.0
 30
0.0
 11
105.0
 21
169.0
 31
0.0
  0
LINE
  5
1A5
330
1F
100
AcDbEntity
  8
0
  6
Continuous
 62
     7
370
    15
100
AcDbLine
 10
182.6248381696
 20
130.2688187759
 30
0.0
 11
151.0478693878
 21
117.1892100479
 31
0.0
  0
LINE
  5
1A6
330
1F
100
AcDbEntity
  8
0
  6
Continuous
 62
     7
370
    15
100
AcDbLine
 10
197.1011505026
 20
100.5461610678
 30
0.0
 11
185.2379640993
 21
129.1864265756
 31
0.0
  0
LINE
  5
1A7
330
1F
100
AcDbEntity
  8
0
  6
Continuous
 62
     7
370
    15
100
AcDbLine
 10
148.2379640993
 20
3.813573424400033
 30
0.0
 11
160.1011505026
 21
32.4538389322
 31
0.0
  0
LINE
  5
1A8
330
1F
100
AcDbEntity
  8
0
  6
Continuous
 62
     7
370
    15
100
AcDbLine
 10
114.0478693878
 20
15.81078995210004
 30
0.0
 11
145.6248381696
 21
2.731181224099998
 31
0.0
  0
LINE
  5
1A9
330
1F
100
AcDbEntity
  8
0
  6
Continuous
 62
     7
370
    15
100
AcDbLine
 10
111.0
 20
41.07763816970001
 30
0.0
 11
111.0
 21
34.68452397290002
 31
0.0
  0
LINE
  5
1AA
330
1F
100
AcDbEntity
  8
0
  6
Continuous
 62
     7
370
    15
100
AcDbLine
 10
118.3632990811
 20
30.98853729680002
 30
0.0
 11
124.9937282672
 21
46.99580936210003
 31
0.0
  0
LINE
  5
1AB
330
1F
100
AcDbEntity
  8
0
  6
Continuous
 62
     7
370
    15
100
AcDbLine
 10
191.5578733076
 20
98.2500604736
 30
0.0
 11
181.9907874984
 21
121.3470487863
 31
0.0
  0
LINE
  5
1AC
330
1F
100
AcDbEntity
  8
0
  6
Continuous
 62
     7
370
    15
100
AcDbLine
 10
179.3776615687
 20
122.4294409866
 30
0.0
 11
159.0523118534
 21
114.0104054746
 31
0.0
  0
LINE
  5
1AD
330
1F
100
AcDbEntity
  8
0
  6
Continuous
 62
     7
370
    15
100
AcDbLine
 10
157.9699196531
 20
111.3972795449
 30
0.0
 11
167.5370054623
 21
88.3002912321
 31
0.0
  0
ARC
  5
1AE
330
1F
100
AcDbEntity
  8
0
  6
Continuous
 62
     7
370
    15
100
AcDbCircle
 10
143.1430284334
 20
12.41831807840003
 30
0.0
 40
1.999999999999977
100
AcDbArc
 50
247.4999999999994
 51
337.4999999999994
  0
ARC
  5
1AF
330
1F
100
AcDbEntity
  8
0
  6
Continuous
 62
     7
370
    15
100
AcDbCircle
 10
80.43753808559995
 20
65.45158762300002
 30
0.0
 40
80.22727272727356
100
AcDbArc
 50
337.4999999999999
 51
8.252502497699961
  0
ARC
  5
1B0
330
1F
100
AcDbEntity
  8
0
  6
Continuous
 62
     7
370
    15
100
AcDbCircle
 10
157.8547766795
 20
76.6800054476
 30
0.0
 40
2.000000000000027
100
AcDbArc
 50
8.25250249770026
 51
126.7474975023003
  0
ARC
  5
1B1
330
1F
100
AcDbEntity
  8
0
  6
Continuous
 62
     7
370
    15
100
AcDbCircle
 10
204.6573406842
 20
13.99806067140003
 30
0.0
 40
80.22727272727438
100
AcDbArc
 50
126.7474975023
 51
157.5
  0
ARC
  5
1B2
330
1F
100
AcDbEntity
  8
0
  6
Continuous
 62
     7
370
    15
100
AcDbCircle
 10
122.8176787182
 20
20.83735359040003
 30
0.0
 40
2.0
100
AcDbArc
 50
157.5000000000001
 51
247.4999999999994
  0
ARC
  5
1B3
330
1F
100
AcDbEntity
  8
0
  6
Continuous
 62
     7
370
    15
100
AcDbCircle
 10
158.508051977
 20
89.19310575219998
 30
0.0
 40
1.999999999999988
100
AcDbArc
 50
301.5385970952997
 51
22.50000000000064
  0
ARC
  5
1B4
330
1F
100
AcDbEntity
  8
0
  6
Continuous
 62
     7
370
    15
100
AcDbCircle
 10
153.5155400161
 20
101.2460958385
 30
0.0
 40
2.000000000000013
100
AcDbArc
 50
22.49999999999926
 51
137.4238257894985
  0
ARC
  5
1B5
330
1F
100
AcDbEntity
  8
0
  6
Continuous
 62
     7
370
    15
100
AcDbCircle
 10
140.7883538784
 20
112.9395795805
 30
0.0
 40
15.28348428440534
100
AcDbArc
 50
292.4999999999999
 51
317.4238257895
  0
ARC
  5
1B6
330
1F
100
AcDbEntity
  8
0
  6
Continuous
 62
     7
370
    15
100
AcDbCircle
 10
143.5756226439
 20
106.2105175248
 30
0.0
 40
8.000000000000105
100
AcDbArc
 50
196.3525566588
 51
292.5000000000002
  0
ARC
  5
1B7
330
1F
100
AcDbEntity
  8
0
  6
Continuous
 62
     7
370
    15
100
AcDbCircle
 10
-50.2529595016
 20
49.33802203290006
 30
0.0
 40
193.9999999999924
100
AcDbArc
 50
16.35255665879998
 51
28.69217180619998
  0
ARC
  5
1B8
330
1F
100
AcDbEntity
  8
0
  6
Continuous
 62
     7
370
    15
100
AcDbCircle
 10
118.1716998349
 20
141.5179229192
 30
0.0
 40
1.999999999999996
100
AcDbArc
 50
28.69217180620065
 51
195.6107649165995
  0
ARC
  5
1B9
330
1F
100
AcDbEntity
  8
0
  6
Continuous
 62
     7
370
    15
100
AcDbCircle
 10
-34.0
 20
99.00000000000006
 30
0.0
 40
155.9999999999975
100
AcDbArc
 50
351.1203886727999
 51
15.61076491659997
  0
ARC
  5
1BA
330
1F
100
AcDbEntity
  8
0
  6
Continuous
 62
     7
370
    15
100
AcDbCircle
 10
122.1063473784
 20
74.61130778030002
 30
0.0
 40
1.999999999999989
100
AcDbArc
 50
171.1203886727006
 51
279.082690925101
  0
ARC
  5
1BB
330
1F
100
AcDbEntity
  8
0
  6
Continuous
 62
     7
370
    15
100
AcDbCircle
 10
127.0
 20
44.00000000000003
 30
0.0
 40
28.99999999999998
100
AcDbArc
 50
67.6806799202
 51
99.08269092509998
  0
ARC
  5
1BC
330
1F
100
AcDbEntity
  8
0
  6
Continuous
 62
     7
370
    15
100
AcDbCircle
 10
138.7728116501
 20
72.67753312000002
 30
0.0
 40
2.000000000000049
100
AcDbArc
 50
247.6806799202005
 51
318.3104256273994
  0
ARC
  5
1BD
330
1F
100
AcDbEntity
  8
0
  6
Continuous
 62
     7
370
    15
100
AcDbCircle
 10
204.6573406842
 20
13.99806067140003
 30
0.0
 40
86.22727272727099
100
AcDbArc
 50
121.5385970953
 51
138.3104256274
  0
ARC
  5
1BE
330
1F
100
AcDbEntity
  8
0
  6
Continuous
 62
     7
370
    15
100
AcDbCircle
 10
127.0
 20
44.00000000000003
 30
0.0
 40
26.49999999999971
100
AcDbArc
 50
61.99999999999996
 51
78.00000000000007
  0
ARC
  5
1BF
330
1F
100
AcDbEntity
  8
0
  6
Continuous
 62
     7
370
    15
100
AcDbCircle
 10
132.1977922704
 20
68.45369001830002
 30
0.0
 40
1.500000000000003
100
AcDbArc
 50
77.99999999999939
 51
257.9999999999994
  0
ARC
  5
1C0
330
1F
100
AcDbEntity
  8
0
  6
Continuous
 62
     7
370
    15
100
AcDbCircle
 10
127.0
 20
44.00000000000003
 30
0.0
 40
23.49999999999901
100
AcDbArc
 50
61.99999999999994
 51
77.99999999999996
  0
ARC
  5
1C1
330
1F
100
AcDbEntity
  8
0
  6
Continuous
 62
     7
370
    15
100
AcDbCircle
 10
138.7367890696
 20
66.07368982150001
 30
0.0
 40
1.500000000000006
100
AcDbArc
 50
242.0000000000006
 51
61.99999999999814
  0
ARC
  5
1C2
330
1F
100
AcDbEntity
  8
0
  6
Continuous
 62
     7
370
    15
100
AcDbCircle
 10
106.0
 20
27.00000000000003
 30
0.0
 40
1.999999999998409
100
AcDbArc
 50
72.32290381800098
 51
90.0
  0
ARC
  5
1C3
330
1F
100
AcDbEntity
  8
0
  6
Continuous
 62
     7
370
    15
100
AcDbCircle
 10
106.0
 20
51.00000000000003
 30
0.0
 40
2.00000000000001
100
AcDbArc
 50
270.0
 51
341.0753555839
  0
ARC
  5
1C4
330
1F
100
AcDbEntity
  8
0
  6
Continuous
 62
     7
370
    15
100
AcDbCircle
 10
-34.0
 20
99.00000000000006
 30
0.0
 40
150.0000000000017
100
AcDbArc
 50
341.0753555839
 51
18.92464441609998
  0
ARC
  5
1C5
330
1F
100
AcDbEntity
  8
0
  6
Continuous
 62
     7
370
    15
100
AcDbCircle
 10
106.0
 20
147.0
 30
0.0
 40
2.000000000000032
100
AcDbArc
 50
18.92464441610075
 51
90.0
  0
ARC
  5
1C6
330
1F
100
AcDbEntity
  8
0
  6
Continuous
 62
     7
370
    15
100
AcDbCircle
 10
108.9942035528
 20
167.0
 30
0.0
 40
2.00000000000002
100
AcDbArc
 50
36.45935671810042
 51
90.0
  0
ARC
  5
1C7
330
1F
100
AcDbEntity
  8
0
  6
Continuous
 62
     7
370
    15
100
AcDbCircle
 10
-50.2529595016
 20
49.33802203290006
 30
0.0
 40
200.000000000003
100
AcDbArc
 50
16.35255665879998
 51
36.4593567181
  0
ARC
  5
1C8
330
1F
100
AcDbEntity
  8
0
  6
Continuous
 62
     7
370
    15
100
AcDbCircle
 10
143.5756226439
 20
106.2105175248
 30
0.0
 40
1.999999999999937
100
AcDbArc
 50
196.3525566587995
 51
292.4999999999994
  0
ARC
  5
1C9
330
1F
100
AcDbEntity
  8
0
  6
Continuous
 62
     7
370
    15
100
AcDbCircle
 10
140.7883538784
 20
112.9395795805
 30
0.0
 40
9.283484284405153
100
AcDbArc
 50
292.4999999999999
 51
12.29036668510006
  0
ARC
  5
1CA
330
1F
100
AcDbEntity
  8
0
  6
Continuous
 62
     7
370
    15
100
AcDbCircle
 10
151.8132362525
 20
115.3414509828
 30
0.0
 40
2.000000000000016
100
AcDbArc
 50
112.5000000000003
 51
192.2903666851004
  0
ARC
  5
1CB
330
1F
100
AcDbEntity
  8
0
  6
Continuous
 62
     7
370
    15
100
AcDbCircle
 10
183.3902050343
 20
128.4210597109
 30
0.0
 40
1.999999999999992
100
AcDbArc
 50
22.50000000000064
 51
112.4999999999999
  0
ARC
  5
1CC
330
1F
100
AcDbEntity
  8
0
  6
Continuous
 62
     7
370
    15
100
AcDbCircle
 10
117.4375380856
 20
67.54841237700003
 30
0.0
 40
86.22727272727188
100
AcDbArc
 50
351.7474980796
 51
22.49999999999998
  0
ARC
  5
1CD
330
1F
100
AcDbEntity
  8
0
  6
Continuous
 62
     7
370
    15
100
AcDbCircle
 10
194.8547763285
 20
56.31999539970002
 30
0.0
 40
8.000000468970171
100
AcDbArc
 50
233.2525019204
 51
351.7474980796
  0
ARC
  5
1CE
330
1F
100
AcDbEntity
  8
0
  6
Continuous
 62
     7
370
    15
100
AcDbCircle
 10
241.6573406842
 20
119.0019393286
 30
0.0
 40
86.22727272727377
100
AcDbArc
 50
221.6895743725999
 51
233.2525019204
  0
ARC
  5
1CF
330
1F
100
AcDbEntity
  8
0
  6
Continuous
 62
     7
370
    15
100
AcDbCircle
 10
175.7728116501
 20
60.32246687999998
 30
0.0
 40
2.000000000000113
100
AcDbArc
 50
41.68957437260016
 51
112.3193200798007
  0
ARC
  5
1D0
330
1F
100
AcDbEntity
  8
0
  6
Continuous
 62
     7
370
    15
100
AcDbCircle
 10
164.0
 20
89.0
 30
0.0
 40
29.00000000000082
100
AcDbArc
 50
278.1137858229999
 51
292.3193200798
  0
ARC
  5
1D1
330
1F
100
AcDbEntity
  8
0
  6
Continuous
 62
     7
370
    15
100
AcDbCircle
 10
168.3753224996
 20
58.31031846000002
 30
0.0
 40
1.999999999999968
100
AcDbArc
 50
98.11378582299994
 51
175.3573008527005
  0
ARC
  5
1D2
330
1F
100
AcDbEntity
  8
0
  6
Continuous
 62
     7
370
    15
100
AcDbCircle
 10
80.43753808559995
 20
65.45158762300002
 30
0.0
 40
86.2272727272743
100
AcDbArc
 50
337.4999999999999
 51
355.3573008527
  0
ARC
  5
1D3
330
1F
100
AcDbEntity
  8
0
  6
Continuous
 62
     7
370
    15
100
AcDbCircle
 10
146.3902050343
 20
4.57894028909999
 30
0.0
 40
1.999999999999984
100
AcDbArc
 50
247.4999999999994
 51
337.4999999999994
  0
ARC
  5
1D4
330
1F
100
AcDbEntity
  8
0
  6
Continuous
 62
     7
370
    15
100
AcDbCircle
 10
114.8132362525
 20
17.65854901720002
 30
0.0
 40
2.000000000000054
100
AcDbArc
 50
167.7096333149999
 51
247.5
  0
ARC
  5
1D5
330
1F
100
AcDbEntity
  8
0
  6
Continuous
 62
     7
370
    15
100
AcDbCircle
 10
103.7883538784
 20
20.06042041950002
 30
0.0
 40
9.283484284405104
100
AcDbArc
 50
347.7096333150001
 51
72.32290381799969
  0
ARC
  5
1D6
330
1F
100
AcDbEntity
  8
0
  6
Continuous
 62
     7
370
    15
100
AcDbCircle
 10
164.0
 20
89.0
 30
0.0
 40
26.49999999999941
100
AcDbArc
 50
281.9999999999999
 51
298.0
  0
ARC
  5
1D7
330
1F
100
AcDbEntity
  8
0
  6
Continuous
 62
     7
370
    15
100
AcDbCircle
 10
175.7367890696
 20
66.92631017849999
 30
0.0
 40
1.500000000000021
100
AcDbArc
 50
298.0000000000004
 51
117.9999999999994
  0
ARC
  5
1D8
330
1F
100
AcDbEntity
  8
0
  6
Continuous
 62
     7
370
    15
100
AcDbCircle
 10
164.0
 20
89.0
 30
0.0
 40
23.50000000000066
100
AcDbArc
 50
281.9999999999999
 51
298.0
  0
ARC
  5
1D9
330
1F
100
AcDbEntity
  8
0
  6
Continuous
 62
     7
370
    15
100
AcDbCircle
 10
169.1977922704
 20
64.5463099817
 30
0.0
 40
1.500000000000011
100
AcDbArc
 50
102.0000000000006
 51
281.9999999999995
  0
ARC
  5
1DA
330
1F
100
AcDbEntity
  8
0
  6
Continuous
 62
     7
370
    15
100
AcDbCircle
 10
131.0058909193
 20
62.57290601770003
 30
0.0
 40
2.000000000000014
100
AcDbArc
 50
326.5942194149994
 51
77.82863018500014
  0
ARC
  5
1DB
330
1F
100
AcDbEntity
  8
0
  6
Continuous
 62
     7
370
    15
100
AcDbCircle
 10
127.0
 20
44.00000000000003
 30
0.0
 40
20.99999999999985
100
AcDbArc
 50
77.82863018500004
 51
113.3418547336999
  0
ARC
  5
1DC
330
1F
100
AcDbEntity
  8
0
  6
Continuous
 62
     7
370
    15
100
AcDbCircle
 10
119.4718898303
 20
61.44498659420003
 30
0.0
 40
2.000000000000091
100
AcDbArc
 50
113.3418547336991
 51
166.2497601655993
  0
ARC
  5
1DD
330
1F
100
AcDbEntity
  8
0
  6
Continuous
 62
     7
370
    15
100
AcDbCircle
 10
-34.0
 20
99.00000000000006
 30
0.0
 40
156.0000000000057
100
AcDbArc
 50
338.4940881281
 51
346.2497601656
  0
ARC
  5
1DE
330
1F
100
AcDbEntity
  8
0
  6
Continuous
 62
     7
370
    15
100
AcDbCircle
 10
113.0
 20
41.07763816970001
 30
0.0
 40
1.999999999999441
100
AcDbArc
 50
158.4940881281001
 51
180.0
  0
ARC
  5
1DF
330
1F
100
AcDbEntity
  8
0
  6
Continuous
 62
     7
370
    15
100
AcDbCircle
 10
113.0
 20
34.68452397290002
 30
0.0
 40
2.000000000000041
100
AcDbArc
 50
180.0
 51
237.7933892590998
  0
ARC
  5
1E0
330
1F
100
AcDbEntity
  8
0
  6
Continuous
 62
     7
370
    15
100
AcDbCircle
 10
103.7883538784
 20
20.06042041950002
 30
0.0
 40
15.28348428440256
100
AcDbArc
 50
42.57617421049998
 51
57.79338925910002
  0
ARC
  5
1E1
330
1F
100
AcDbEntity
  8
0
  6
Continuous
 62
     7
370
    15
100
AcDbCircle
 10
116.5155400161
 20
31.75390416150003
 30
0.0
 40
2.000000000000004
100
AcDbArc
 50
222.5761742105009
 51
337.5000000000007
  0
ARC
  5
1E2
330
1F
100
AcDbEntity
  8
0
  6
Continuous
 62
     7
370
    15
100
AcDbCircle
 10
204.6573406842
 20
13.99806067140003
 30
0.0
 40
86.22727272727207
100
AcDbArc
 50
146.594219415
 51
157.5
  0
ARC
  5
1E3
330
1F
100
AcDbEntity
  8
0
  6
Continuous
 62
     7
370
    15
100
AcDbCircle
 10
194.8547768155
 20
56.31999422389998
 30
0.0
 40
1.999999818233193
100
AcDbArc
 50
233.2525027213997
 51
351.7474972786003
  0
ARC
  5
1E4
330
1F
100
AcDbEntity
  8
0
  6
Continuous
 62
     7
370
    15
100
AcDbCircle
 10
117.4375380856
 20
67.54841237700003
 30
0.0
 40
80.22727272727177
100
AcDbArc
 50
351.7474972786
 51
22.49999999999998
  0
ARC
  5
1E5
330
1F
100
AcDbEntity
  8
0
  6
Continuous
 62
     7
370
    15
100
AcDbCircle
 10
180.1430284334
 20
120.5816819216
 30
0.0
 40
2.000000000000018
100
AcDbArc
 50
22.50000000000032
 51
112.5000000000003
  0
ARC
  5
1E6
330
1F
100
AcDbEntity
  8
0
  6
Continuous
 62
     7
370
    15
100
AcDbCircle
 10
159.8176787182
 20
112.1626464096
 30
0.0
 40
2.000000000000008
100
AcDbArc
 50
112.5000000000003
 51
202.4999999999993
  0
ARC
  5
1E7
330
1F
100
AcDbEntity
  8
0
  6
Continuous
 62
     7
370
    15
100
AcDbCircle
 10
241.6573406842
 20
119.0019393286
 30
0.0
 40
80.22727272729597
100
AcDbArc
 50
202.5
 51
233.2525027213999
  0
CIRCLE
  5
21C
330
1F
100
AcDbEntity
  8
0
  6
Continuous
 62
     7
370
    15
100
AcDbCircle
 10
188.0
 20
146.5
 30
0.0
 40
1.000000000000002
  0
CIRCLE
  5
21D
330
1F
100
AcDbEntity
  8
0
  6
Continuous
 62
     7
370
    15
100
AcDbCircle
 10
206.0
 20
146.5
 30
0.0
 40
0.9999999999999964
  0
CIRCLE
  5
21E
330
1F
100
AcDbEntity
  8
0
  6
Continuous
 62
     7
370
    15
100
AcDbCircle
 10
206.0
 20
165.5
 30
0.0
 40
0.9999999999999964
  0
CIRCLE
  5
21F
330
1F
100
AcDbEntity
  8
0
  6
Continuous
 62
     7
370
    15
100
AcDbCircle
 10
188.0
 20
165.5
 30
0.0
 40
1.0
  0
LINE
  5
220
330
1F
100
AcDbEntity
  8
0
  6
Continuous
 62
     7
370
    15
100
AcDbLine
 10
211.9378221735
 20
141.5
 30
0.0
 11
182.0621778265
 21
141.5
 31
0.0
  0
LINE
  5
221
330
1F
100
AcDbEntity
  8
0
  6
Continuous
 62
     7
370
    15
100
AcDbLine
 10
179.4641016151
 20
140.0
 30
0.0
 11
176.8660254038
 21
135.5
 31
0.0
  0
LINE
  5
222
330
1F
100
AcDbEntity
  8
0
  6
Continuous
 62
     7
370
    15
100
AcDbLine
 10
217.1339745962
 20
135.5
 30
0.0
 11
214.5358983849
 21
140.0
 31
0.0
  0
LINE
  5
223
330
1F
100
AcDbEntity
  8
0
  6
Continuous
 62
     7
370
    15
100
AcDbLine
 10
233.0
 20
169.0
 30
0.0
 11
161.0
 21
169.0
 31
0.0
  0
LINE
  5
224
330
1F
100
AcDbEntity
  8
0
  6
Continuous
 62
     7
370
    15
100
AcDbLine
 10
233.0
 20
134.0
 30
0.0
 11
233.0
 21
169.0
 31
0.0
  0
LINE
  5
225
330
1F
100
AcDbEntity
  8
0
  6
Continuous
 62
     7
370
    15
100
AcDbLine
 10
219.7320508076
 20
134.0
 30
0.0
 11
233.0
 21
134.0
 31
0.0
  0
LINE
  5
226
330
1F
100
AcDbEntity
  8
0
  6
Continuous
 62
     7
370
    15
100
AcDbLine
 10
161.0
 20
169.0
 30
0.0
 11
161.0
 21
134.0
 31
0.0
  0
LINE
  5
227
330
1F
100
AcDbEntity
  8
0
  6
Continuous
 62
     7
370
    15
100
AcDbLine
 10
161.0
 20
134.0
 30
0.0
 11
174.2679491924
 21
134.0
 31
0.0
  0
ARC
  5
228
330
1F
100
AcDbEntity
  8
0
  6
Continuous
 62
     7
370
    15
100
AcDbCircle
 10
211.9378221735
 20
138.5
 30
0.0
 40
2.999999999999996
100
AcDbArc
 50
30.0
 51
90.0
  0
ARC
  5
229
330
1F
100
AcDbEntity
  8
0
  6
Continuous
 62
     7
370
    15
100
AcDbCircle
 10
182.0621778265
 20
138.5
 30
0.0
 40
2.999999999999997
100
AcDbArc
 50
90.0
 51
150.0
  0
ARC
  5
22A
330
1F
100
AcDbEntity
  8
0
  6
Continuous
 62
     7
370
    15
100
AcDbCircle
 10
174.2679491924
 20
137.0
 30
0.0
 40
2.999999999999998
100
AcDbArc
 50
270.0
 51
330.0
  0
ARC
  5
22B
330
1F
100
AcDbEntity
  8
0
  6
Continuous
 62
     7
370
    15
100
AcDbCircle
 10
219.7320508076
 20
137.0
 30
0.0
 40
2.999999999999991
100
AcDbArc
 50
210.0
 51
270.0
  0
CIRCLE
  5
22C
330
1F
100
AcDbEntity
  8
0
  6
Continuous
 62
     7
370
    15
100
AcDbCircle
 10
79.99999999999994
 20
44.00000000000006
 30
0.0
 40
1.5
  0
CIRCLE
  5
22D
330
1F
100
AcDbEntity
  8
0
  6
Continuous
 62
     7
370
    15
100
AcDbCircle
 10
43.0
 20
89.00000000000006
 30
0.0
 40
1.499999999999986
  0
LINE
  5
22E
330
1F
100
AcDbEntity
  8
0
  6
Continuous
 62
     7
370
    15
100
AcDbLine
 10
62.00921250159996
 20
11.65295121370006
 30
0.0
 11
52.4421266924
 21
34.74993952640004
 31
0.0
  0
LINE
  5
22F
330
1F
100
AcDbEntity
  8
0
  6
Continuous
 62
     7
370
    15
100
AcDbLine
 10
76.46299453769996
 20
44.69970876790006
 30
0.0
 11
86.03008034689998
 21
21.60272045510006
 31
0.0
  0
LINE
  5
230
330
1F
100
AcDbEntity
  8
0
  6
Continuous
 62
     7
370
    15
100
AcDbLine
 10
84.9476881466
 20
18.98959452540006
 30
0.0
 11
64.62233843129991
 21
10.57055901340002
 31
0.0
  0
LINE
  5
231
330
1F
100
AcDbEntity
  8
0
  6
Continuous
 62
     7
370
    15
100
AcDbLine
 10
46.64418895799997
 20
89.95847261700003
 30
0.0
 11
51.63670091890003
 21
102.0114627032
 31
0.0
  0
LINE
  5
232
330
1F
100
AcDbEntity
  8
0
  6
Continuous
 62
     7
370
    15
100
AcDbLine
 10
101.9999999999999
 20
29.00000000000004
 30
0.0
 11
100.9999999999999
 21
29.00000000000004
 31
0.0
  0
LINE
  5
233
330
1F
100
AcDbEntity
  8
0
  6
Continuous
 62
     7
370
    15
100
AcDbLine
 10
101.9999999999999
 20
49.00000000000004
 30
0.0
 11
101.9999999999999
 21
29.00000000000004
 31
0.0
  0
LINE
  5
234
330
1F
100
AcDbEntity
  8
0
  6
Continuous
 62
     7
370
    15
100
AcDbLine
 10
100.9999999999999
 20
49.00000000000004
 30
0.0
 11
101.9999999999999
 21
49.00000000000004
 31
0.0
  0
LINE
  5
235
330
1F
100
AcDbEntity
  8
0
  6
Continuous
 62
     7
370
    15
100
AcDbLine
 10
102.0
 20
149.0
 30
0.0
 11
101.0
 21
149.0
 31
0.0
  0
LINE
  5
236
330
1F
100
AcDbEntity
  8
0
  6
Continuous
 62
     7
370
    15
100
AcDbLine
 10
102.0
 20
169.0
 30
0.0
 11
102.0
 21
149.0
 31
0.0
  0
LINE
  5
237
330
1F
100
AcDbEntity
  8
0
  6
Continuous
 62
     7
370
    15
100
AcDbLine
 10
98.0057964472
 20
169.0
 30
0.0
 11
102.0
 21
169.0
 31
0.0
  0
LINE
  5
238
330
1F
100
AcDbEntity
  8
0
  6
Continuous
 62
     7
370
    15
100
AcDbLine
 10
24.37516183039997
 20
130.2688187759001
 30
0.0
 11
55.95213061219999
 21
117.1892100479001
 31
0.0
  0
LINE
  5
239
330
1F
100
AcDbEntity
  8
0
  6
Continuous
 62
     7
370
    15
100
AcDbLine
 10
9.898849497399965
 20
100.5461610678001
 30
0.0
 11
21.76203590069997
 21
129.1864265756001
 31
0.0
  0
LINE
  5
23A
330
1F
100
AcDbEntity
  8
0
  6
Continuous
 62
     7
370
    15
100
AcDbLine
 10
58.76203590069997
 20
3.813573424400069
 30
0.0
 11
46.89884949739997
 21
32.45383893220004
 31
0.0
  0
LINE
  5
23B
330
1F
100
AcDbEntity
  8
0
  6
Continuous
 62
     7
370
    15
100
AcDbLine
 10
92.95213061219994
 20
15.81078995210006
 30
0.0
 11
61.37516183039997
 21
2.731181224100034
 31
0.0
  0
LINE
  5
23C
330
1F
100
AcDbEntity
  8
0
  6
Continuous
 62
     7
370
    15
100
AcDbLine
 10
95.99999999999994
 20
41.07763816970002
 30
0.0
 11
95.99999999999994
 21
34.68452397290004
 31
0.0
  0
LINE
  5
23D
330
1F
100
AcDbEntity
  8
0
  6
Continuous
 62
     7
370
    15
100
AcDbLine
 10
88.63670091889998
 20
30.98853729680004
 30
0.0
 11
82.00627173279997
 21
46.99580936210005
 31
0.0
  0
LINE
  5
23E
330
1F
100
AcDbEntity
  8
0
  6
Continuous
 62
     7
370
    15
100
AcDbLine
 10
15.44212669239994
 20
98.25006047360006
 30
0.0
 11
25.00921250160002
 21
121.3470487863
 31
0.0
  0
LINE
  5
23F
330
1F
100
AcDbEntity
  8
0
  6
Continuous
 62
     7
370
    15
100
AcDbLine
 10
27.62233843130002
 20
122.4294409866001
 30
0.0
 11
47.9476881466
 21
114.0104054746001
 31
0.0
  0
LINE
  5
240
330
1F
100
AcDbEntity
  8
0
  6
Continuous
 62
     7
370
    15
100
AcDbLine
 10
49.03008034690004
 20
111.3972795449001
 30
0.0
 11
39.46299453769996
 21
88.30029123210005
 31
0.0
  0
ARC
  5
241
330
1F
100
AcDbEntity
  8
0
  6
Continuous
 62
     7
370
    15
100
AcDbCircle
 10
63.85697156659995
 20
12.41831807840007
 30
0.0
 40
1.999999999999977
100
AcDbArc
 50
202.5000000000002
 51
292.5000000000008
  0
ARC
  5
242
330
1F
100
AcDbEntity
  8
0
  6
Continuous
 62
     7
370
    15
100
AcDbCircle
 10
126.5624619144
 20
65.45158762300002
 30
0.0
 40
80.22727272727356
100
AcDbArc
 50
171.7474975023
 51
202.5
  0
ARC
  5
243
330
1F
100
AcDbEntity
  8
0
  6
Continuous
 62
     7
370
    15
100
AcDbCircle
 10
49.14522332050001
 20
76.68000544760004
 30
0.0
 40
2.000000000000027
100
AcDbArc
 50
53.25250249769969
 51
171.7474975023001
  0
ARC
  5
244
330
1F
100
AcDbEntity
  8
0
  6
Continuous
 62
     7
370
    15
100
AcDbCircle
 10
2.342659315800006
 20
13.9980606714001
 30
0.0
 40
80.22727272727438
100
AcDbArc
 50
22.50000000000001
 51
53.25250249769999
  0
ARC
  5
245
330
1F
100
AcDbEntity
  8
0
  6
Continuous
 62
     7
370
    15
100
AcDbCircle
 10
84.18232128179994
 20
20.83735359040005
 30
0.0
 40
2.0
100
AcDbArc
 50
292.5000000000005
 51
22.50000000000026
  0
ARC
  5
246
330
1F
100
AcDbEntity
  8
0
  6
Continuous
 62
     7
370
    15
100
AcDbCircle
 10
48.49194802299996
 20
89.19310575220003
 30
0.0
 40
1.999999999999988
100
AcDbArc
 50
157.499999999999
 51
238.4614029047018
  0
ARC
  5
247
330
1F
100
AcDbEntity
  8
0
  6
Continuous
 62
     7
370
    15
100
AcDbCircle
 10
53.48445998390002
 20
101.2460958385
 30
0.0
 40
2.000000000000013
100
AcDbArc
 50
42.57617421050148
 51
157.5000000000011
  0
ARC
  5
248
330
1F
100
AcDbEntity
  8
0
  6
Continuous
 62
     7
370
    15
100
AcDbCircle
 10
66.21164612159998
 20
112.9395795805
 30
0.0
 40
15.28348428440534
100
AcDbArc
 50
222.5761742105
 51
247.5000000000001
  0
ARC
  5
249
330
1F
100
AcDbEntity
  8
0
  6
Continuous
 62
     7
370
    15
100
AcDbCircle
 10
63.42437735609997
 20
106.2105175248
 30
0.0
 40
8.000000000000105
100
AcDbArc
 50
247.4999999999998
 51
343.6474433412
  0
ARC
  5
24A
330
1F
100
AcDbEntity
  8
0
  6
Continuous
 62
     7
370
    15
100
AcDbCircle
 10
257.2529595015999
 20
49.33802203289998
 30
0.0
 40
193.9999999999924
100
AcDbArc
 50
151.3078281938
 51
163.6474433412
  0
ARC
  5
24B
330
1F
100
AcDbEntity
  8
0
  6
Continuous
 62
     7
370
    15
100
AcDbCircle
 10
88.82830016510002
 20
141.5179229192
 30
0.0
 40
1.999999999999996
100
AcDbArc
 50
344.3892350834005
 51
151.3078281937994
  0
ARC
  5
24C
330
1F
100
AcDbEntity
  8
0
  6
Continuous
 62
     7
370
    15
100
AcDbCircle
 10
241.0
 20
98.99999999999999
 30
0.0
 40
155.9999999999975
100
AcDbArc
 50
164.3892350834
 51
188.8796113272
  0
ARC
  5
24D
330
1F
100
AcDbEntity
  8
0
  6
Continuous
 62
     7
370
    15
100
AcDbCircle
 10
84.89365262160004
 20
74.61130778030005
 30
0.0
 40
1.999999999999989
100
AcDbArc
 50
260.9173090748974
 51
8.879611327299454
  0
ARC
  5
24E
330
1F
100
AcDbEntity
  8
0
  6
Continuous
 62
     7
370
    15
100
AcDbCircle
 10
79.99999999999994
 20
44.00000000000006
 30
0.0
 40
28.99999999999998
100
AcDbArc
 50
80.9173090748999
 51
112.3193200798
  0
ARC
  5
24F
330
1F
100
AcDbEntity
  8
0
  6
Continuous
 62
     7
370
    15
100
AcDbCircle
 10
68.22718834989996
 20
72.67753312000005
 30
0.0
 40
2.000000000000049
100
AcDbArc
 50
221.6895743726009
 51
292.3193200798013
  0
ARC
  5
250
330
1F
100
AcDbEntity
  8
0
  6
Continuous
 62
     7
370
    15
100
AcDbCircle
 10
2.342659315800006
 20
13.9980606714001
 30
0.0
 40
86.22727272727099
100
AcDbArc
 50
41.68957437259999
 51
58.46140290470004
  0
ARC
  5
251
330
1F
100
AcDbEntity
  8
0
  6
Continuous
 62
     7
370
    15
100
AcDbCircle
 10
79.99999999999994
 20
44.00000000000006
 30
0.0
 40
26.49999999999971
100
AcDbArc
 50
101.9999999999999
 51
118.0
  0
ARC
  5
252
330
1F
100
AcDbEntity
  8
0
  6
Continuous
 62
     7
370
    15
100
AcDbCircle
 10
74.80220772960001
 20
68.45369001830005
 30
0.0
 40
1.500000000000003
100
AcDbArc
 50
281.9999999999985
 51
102.000000000003
  0
ARC
  5
253
330
1F
100
AcDbEntity
  8
0
  6
Continuous
 62
     7
370
    15
100
AcDbCircle
 10
79.99999999999994
 20
44.00000000000006
 30
0.0
 40
23.49999999999901
100
AcDbArc
 50
101.9999999999999
 51
118.0000000000001
  0
ARC
  5
254
330
1F
100
AcDbEntity
  8
0
  6
Continuous
 62
     7
370
    15
100
AcDbCircle
 10
68.26321093039996
 20
66.07368982150004
 30
0.0
 40
1.500000000000006
100
AcDbArc
 50
117.9999999999994
 51
297.9999999999994
  0
ARC
  5
255
330
1F
100
AcDbEntity
  8
0
  6
Continuous
 62
     7
370
    15
100
AcDbCircle
 10
100.9999999999999
 20
27.00000000000004
 30
0.0
 40
1.999999999998409
100
AcDbArc
 50
90.0
 51
107.6770961819991
  0
ARC
  5
256
330
1F
100
AcDbEntity
  8
0
  6
Continuous
 62
     7
370
    15
100
AcDbCircle
 10
100.9999999999999
 20
51.00000000000004
 30
0.0
 40
2.00000000000001
100
AcDbArc
 50
198.9246444160998
 51
270.0
  0
ARC
  5
257
330
1F
100
AcDbEntity
  8
0
  6
Continuous
 62
     7
370
    15
100
AcDbCircle
 10
241.0
 20
98.99999999999999
 30
0.0
 40
150.0000000000017
100
AcDbArc
 50
161.0753555839
 51
198.9246444161
  0
ARC
  5
258
330
1F
100
AcDbEntity
  8
0
  6
Continuous
 62
     7
370
    15
100
AcDbCircle
 10
101.0
 20
147.0
 30
0.0
 40
2.000000000000032
100
AcDbArc
 50
90.0
 51
161.0753555838993
  0
ARC
  5
259
330
1F
100
AcDbEntity
  8
0
  6
Continuous
 62
     7
370
    15
100
AcDbCircle
 10
98.0057964472
 20
167.0
 30
0.0
 40
2.00000000000002
100
AcDbArc
 50
90.0
 51
143.5406432818989
  0
ARC
  5
25A
330
1F
100
AcDbEntity
  8
0
  6
Continuous
 62
     7
370
    15
100
AcDbCircle
 10
257.2529595015999
 20
49.33802203289998
 30
0.0
 40
200.000000000003
100
AcDbArc
 50
143.5406432818999
 51
163.6474433412
  0
ARC
  5
25B
330
1F
100
AcDbEntity
  8
0
  6
Continuous
 62
     7
370
    15
100
AcDbCircle
 10
63.42437735609997
 20
106.2105175248
 30
0.0
 40
1.999999999999937
100
AcDbArc
 50
247.5000000000006
 51
343.6474433412005
  0
ARC
  5
25C
330
1F
100
AcDbEntity
  8
0
  6
Continuous
 62
     7
370
    15
100
AcDbCircle
 10
66.21164612159998
 20
112.9395795805
 30
0.0
 40
9.283484284405153
100
AcDbArc
 50
167.7096333148999
 51
247.4999999999997
  0
ARC
  5
25D
330
1F
100
AcDbEntity
  8
0
  6
Continuous
 62
     7
370
    15
100
AcDbCircle
 10
55.18676374749998
 20
115.3414509828
 30
0.0
 40
2.000000000000016
100
AcDbArc
 50
347.7096333148996
 51
67.49999999999969
  0
ARC
  5
25E
330
1F
100
AcDbEntity
  8
0
  6
Continuous
 62
     7
370
    15
100
AcDbCircle
 10
23.60979496570002
 20
128.4210597109001
 30
0.0
 40
1.999999999999992
100
AcDbArc
 50
67.49999999999936
 51
157.4999999999994
  0
ARC
  5
25F
330
1F
100
AcDbEntity
  8
0
  6
Continuous
 62
     7
370
    15
100
AcDbCircle
 10
89.56246191440005
 20
67.54841237700006
 30
0.0
 40
86.22727272727188
100
AcDbArc
 50
157.5
 51
188.2525019204
  0
ARC
  5
260
330
1F
100
AcDbEntity
  8
0
  6
Continuous
 62
     7
370
    15
100
AcDbCircle
 10
12.14522367149993
 20
56.31999539970008
 30
0.0
 40
8.000000468970171
100
AcDbArc
 50
188.2525019204
 51
306.7474980796004
  0
ARC
  5
261
330
1F
100
AcDbEntity
  8
0
  6
Continuous
 62
     7
370
    15
100
AcDbCircle
 10
-34.65734068419999
 20
119.0019393286001
 30
0.0
 40
86.22727272727377
100
AcDbArc
 50
306.7474980795999
 51
318.3104256274
  0
ARC
  5
262
330
1F
100
AcDbEntity
  8
0
  6
Continuous
 62
     7
370
    15
100
AcDbCircle
 10
31.22718834989996
 20
60.32246688000004
 30
0.0
 40
2.000000000000113
100
AcDbArc
 50
67.6806799201994
 51
138.3104256274001
  0
ARC
  5
263
330
1F
100
AcDbEntity
  8
0
  6
Continuous
 62
     7
370
    15
100
AcDbCircle
 10
43.0
 20
89.00000000000006
 30
0.0
 40
29.00000000000082
100
AcDbArc
 50
247.6806799202
 51
261.8862141770001
  0
ARC
  5
264
330
1F
100
AcDbEntity
  8
0
  6
Continuous
 62
     7
370
    15
100
AcDbCircle
 10
38.62467750039997
 20
58.31031846000007
 30
0.0
 40
1.999999999999968
100
AcDbArc
 50
4.642699147299298
 51
81.88621417699927
  0
ARC
  5
265
330
1F
100
AcDbEntity
  8
0
  6
Continuous
 62
     7
370
    15
100
AcDbCircle
 10
126.5624619144
 20
65.45158762300002
 30
0.0
 40
86.2272727272743
100
AcDbArc
 50
184.6426991473
 51
202.5
  0
ARC
  5
266
330
1F
100
AcDbEntity
  8
0
  6
Continuous
 62
     7
370
    15
100
AcDbCircle
 10
60.60979496569996
 20
4.578940289100025
 30
0.0
 40
1.999999999999984
100
AcDbArc
 50
202.4999999999999
 51
292.499999999999
  0
ARC
  5
267
330
1F
100
AcDbEntity
  8
0
  6
Continuous
 62
     7
370
    15
100
AcDbCircle
 10
92.18676374749998
 20
17.65854901720003
 30
0.0
 40
2.000000000000054
100
AcDbArc
 50
292.4999999999999
 51
12.2903666849999
  0
ARC
  5
268
330
1F
100
AcDbEntity
  8
0
  6
Continuous
 62
     7
370
    15
100
AcDbCircle
 10
103.2116461216
 20
20.06042041950003
 30
0.0
 40
9.283484284405104
100
AcDbArc
 50
107.6770961820003
 51
192.2903666849999
  0
ARC
  5
269
330
1F
100
AcDbEntity
  8
0
  6
Continuous
 62
     7
370
    15
100
AcDbCircle
 10
43.0
 20
89.00000000000006
 30
0.0
 40
26.49999999999941
100
AcDbArc
 50
242.0
 51
258.0000000000001
  0
ARC
  5
26A
330
1F
100
AcDbEntity
  8
0
  6
Continuous
 62
     7
370
    15
100
AcDbCircle
 10
31.26321093039996
 20
66.92631017850005
 30
0.0
 40
1.500000000000021
100
AcDbArc
 50
62.00000000000083
 51
242.0000000000008
  0
ARC
  5
26B
330
1F
100
AcDbEntity
  8
0
  6
Continuous
 62
     7
370
    15
100
AcDbCircle
 10
43.0
 20
89.00000000000006
 30
0.0
 40
23.50000000000066
100
AcDbArc
 50
242.0
 51
257.9999999999999
  0
ARC
  5
26C
330
1F
100
AcDbEntity
  8
0
  6
Continuous
 62
     7
370
    15
100
AcDbCircle
 10
37.80220772960001
 20
64.54630998170006
 30
0.0
 40
1.500000000000011
100
AcDbArc
 50
257.9999999999994
 51
78.0000000000015
  0
ARC
  5
26D
330
1F
100
AcDbEntity
  8
0
  6
Continuous
 62
     7
370
    15
100
AcDbCircle
 10
75.99410908070001
 20
62.57290601770006
 30
0.0
 40
2.000000000000014
100
AcDbArc
 50
102.1713698150016
 51
213.4057805849997
  0
ARC
  5
26E
330
1F
100
AcDbEntity
  8
0
  6
Continuous
 62
     7
370
    15
100
AcDbCircle
 10
79.99999999999994
 20
44.00000000000006
 30
0.0
 40
20.99999999999985
100
AcDbArc
 50
66.65814526630007
 51
102.1713698149998
  0
ARC
  5
26F
330
1F
100
AcDbEntity
  8
0
  6
Continuous
 62
     7
370
    15
100
AcDbCircle
 10
87.52811016969997
 20
61.44498659420005
 30
0.0
 40
2.000000000000091
100
AcDbArc
 50
13.7502398344005
 51
66.65814526629939
  0
ARC
  5
270
330
1F
100
AcDbEntity
  8
0
  6
Continuous
 62
     7
370
    15
100
AcDbCircle
 10
241.0
 20
98.99999999999999
 30
0.0
 40
156.0000000000057
100
AcDbArc
 50
193.7502398344
 51
201.5059118719
  0
ARC
  5
271
330
1F
100
AcDbEntity
  8
0
  6
Continuous
 62
     7
370
    15
100
AcDbCircle
 10
93.99999999999994
 20
41.07763816970002
 30
0.0
 40
1.999999999999441
100
AcDbArc
 50
0.0
 51
21.50591187190028
  0
ARC
  5
272
330
1F
100
AcDbEntity
  8
0
  6
Continuous
 62
     7
370
    15
100
AcDbCircle
 10
93.99999999999994
 20
34.68452397290004
 30
0.0
 40
2.000000000000041
100
AcDbArc
 50
302.2066107409004
 51
0.0
  0
ARC
  5
273
330
1F
100
AcDbEntity
  8
0
  6
Continuous
 62
     7
370
    15
100
AcDbCircle
 10
103.2116461216
 20
20.06042041950003
 30
0.0
 40
15.28348428440256
100
AcDbArc
 50
122.2066107409
 51
137.4238257895
  0
ARC
  5
274
330
1F
100
AcDbEntity
  8
0
  6
Continuous
 62
     7
370
    15
100
AcDbCircle
 10
90.48445998389997
 20
31.75390416150005
 30
0.0
 40
2.000000000000004
100
AcDbArc
 50
202.4999999999998
 51
317.4238257894988
  0
ARC
  5
275
330
1F
100
AcDbEntity
  8
0
  6
Continuous
 62
     7
370
    15
100
AcDbCircle
 10
2.342659315800006
 20
13.9980606714001
 30
0.0
 40
86.22727272727207
100
AcDbArc
 50
22.50000000000001
 51
33.40578058499997
  0
ARC
  5
276
330
1F
100
AcDbEntity
  8
0
  6
Continuous
 62
     7
370
    15
100
AcDbCircle
 10
12.14522318449997
 20
56.31999422390005
 30
0.0
 40
1.999999818233193
100
AcDbArc
 50
188.2525027213998
 51
306.7474972786011
  0
ARC
  5
277
330
1F
100
AcDbEntity
  8
0
  6
Continuous
 62
     7
370
    15
100
AcDbCircle
 10
89.56246191440005
 20
67.54841237700006
 30
0.0
 40
80.22727272727177
100
AcDbArc
 50
157.5
 51
188.2525027214
  0
ARC
  5
278
330
1F
100
AcDbEntity
  8
0
  6
Continuous
 62
     7
370
    15
100
AcDbCircle
 10
26.85697156660001
 20
120.5816819216001
 30
0.0
 40
2.000000000000018
100
AcDbArc
 50
67.49999999999969
 51
157.5000000000004
  0
ARC
  5
279
330
1F
100
AcDbEntity
  8
0
  6
Continuous
 62
     7
370
    15
100
AcDbCircle
 10
47.1823212818
 20
112.1626464096
 30
0.0
 40
2.000000000000008
100
AcDbArc
 50
337.5000000000011
 51
67.49999999999953
  0
ARC
  5
27A
330
1F
100
AcDbEntity
  8
0
  6
Continuous
 62
     7
370
    15
100
AcDbCircle
 10
-34.65734068419999
 20
119.0019393286001
 30
0.0
 40
80.22727272729597
100
AcDbArc
 50
306.7474972786001
 51
337.4999999999999
  0
CIRCLE
  5
27C
330
1F
100
AcDbEntity
  8
0
  6
Continuous
 62
     7
370
    15
100
AcDbCircle
 10
263.0
 20
146.5
 30
0.0
 40
1.000000000000002
  0
CIRCLE
  5
27D
330
1F
100
AcDbEntity
  8
0
  6
Continuous
 62
     7
370
    15
100
AcDbCircle
 10
281.0
 20
146.5
 30
0.0
 40
0.9999999999999964
  0
CIRCLE
  5
27E
330
1F
100
AcDbEntity
  8
0
  6
Continuous
 62
     7
370
    15
100
AcDbCircle
 10
281.0
 20
165.5
 30
0.0
 40
0.9999999999999964
  0
CIRCLE
  5
27F
330
1F
100
AcDbEntity
  8
0
  6
Continuous
 62
     7
370
    15
100
AcDbCircle
 10
263.0
 20
165.5
 30
0.0
 40
1.0
  0
LINE
  5
280
330
1F
100
AcDbEntity
  8
0
  6
Continuous
 62
     7
370
    15
100
AcDbLine
 10
286.9378221735
 20
141.5
 30
0.0
 11
257.0621778265
 21
141.5
 31
0.0
  0
LINE
  5
281
330
1F
100
AcDbEntity
  8
0
  6
Continuous
 62
     7
370
    15
100
AcDbLine
 10
254.4641016151
 20
140.0
 30
0.0
 11
251.8660254038
 21
135.5
 31
0.0
  0
LINE
  5
282
330
1F
100
AcDbEntity
  8
0
  6
Continuous
 62
     7
370
    15
100
AcDbLine
 10
292.1339745962
 20
135.5
 30
0.0
 11
289.5358983849
 21
140.0
 31
0.0
  0
LINE
  5
283
330
1F
100
AcDbEntity
  8
0
  6
Continuous
 62
     7
370
    15
100
AcDbLine
 10
308.0
 20
169.0
 30
0.0
 11
236.0
 21
169.0
 31
0.0
  0
LINE
  5
284
330
1F
100
AcDbEntity
  8
0
  6
Continuous
 62
     7
370
    15
100
AcDbLine
 10
308.0
 20
134.0
 30
0.0
 11
308.0
 21
169.0
 31
0.0
  0
LINE
  5
285
330
1F
100
AcDbEntity
  8
0
  6
Continuous
 62
     7
370
    15
100
AcDbLine
 10
294.7320508076
 20
134.0
 30
0.0
 11
308.0
 21
134.0
 31
0.0
  0
LINE
  5
286
330
1F
100
AcDbEntity
  8
0
  6
Continuous
 62
     7
370
    15
100
AcDbLine
 10
236.0
 20
169.0
 30
0.0
 11
236.0
 21
134.0
 31
0.0
  0
LINE
  5
287
330
1F
100
AcDbEntity
  8
0
  6
Continuous
 62
     7
370
    15
100
AcDbLine
 10
236.0
 20
134.0
 30
0.0
 11
249.2679491924
 21
134.0
 31
0.0
  0
ARC
  5
288
330
1F
100
AcDbEntity
  8
0
  6
Continuous
 62
     7
370
    15
100
AcDbCircle
 10
286.9378221735
 20
138.5
 30
0.0
 40
2.999999999999996
100
AcDbArc
 50
30.0
 51
90.0
  0
ARC
  5
289
330
1F
100
AcDbEntity
  8
0
  6
Continuous
 62
     7
370
    15
100
AcDbCircle
 10
257.0621778265
 20
138.5
 30
0.0
 40
2.999999999999997
100
AcDbArc
 50
90.0
 51
150.0
  0
ARC
  5
28A
330
1F
100
AcDbEntity
  8
0
  6
Continuous
 62
     7
370
    15
100
AcDbCircle
 10
249.2679491924
 20
137.0
 30
0.0
 40
2.999999999999998
100
AcDbArc
 50
270.0
 51
330.0
  0
ARC
  5
28B
330
1F
100
AcDbEntity
  8
0
  6
Continuous
 62
     7
370
    15
100
AcDbCircle
 10
294.7320508076
 20
137.0
 30
0.0
 40
2.999999999999991
100
AcDbArc
 50
210.0
 51
270.0
  0
ENDSEC
  0
SECTION
  2
OBJECTS
  0
DICTIONARY
  5
C
330
0
100
AcDbDictionary
281
     1
  3
ACAD_DETAILVIEWSTYLE
350
290
  3
ACAD_GROUP
350
D
  3
ACAD_IMAGE_VARS
350
124
  3
ACAD_LAYOUT
350
1A
  3
ACAD_MLINESTYLE
350
17
  3
ACAD_PLOTSETTINGS
350
19
  3
ACAD_PLOTSTYLENAME
350
E
  3
ACAD_SCALELIST
350
E1
  3
ACAD_SECTIONVIEWSTYLE
350
291
  3
AcDbVariableDictionary
350
28C
  3
APPDATA
350
122
  3
DWGPROPS
350
293
  0
DICTIONARY
  5
290
102
{ACAD_REACTORS
330
C
102
}
330
C
100
AcDbDictionary
281
     1
  0
DICTIONARY
  5
D
102
{ACAD_REACTORS
330
C
102
}
330
C
100
AcDbDictionary
281
     1
  0
RASTERVARIABLES
  5
124
102
{ACAD_REACTORS
330
C
102
}
330
C
100
AcDbRasterVariables
 90
        0
 70
     1
 71
     1
 72
     1
  0
DICTIONARY
  5
1A
102
{ACAD_REACTORS
330
C
102
}
330
C
100
AcDbDictionary
281
     1
  3
Layout1
350
1E
  3
Layout2
350
26
  3
Model
350
22
  0
DICTIONARY
  5
17
102
{ACAD_REACTORS
330
C
102
}
330
C
100
AcDbDictionary
281
     1
  3
Standard
350
18
  0
DICTIONARY
  5
19
102
{ACAD_REACTORS
330
C
102
}
330
C
100
AcDbDictionary
281
     1
  0
ACDBDICTIONARYWDFLT
  5
E
102
{ACAD_REACTORS
330
C
102
}
330
C
100
AcDbDictionary
281
     1
  3
Normal
350
F
100
AcDbDictionaryWithDefault
340
F
  0
DICTIONARY
  5
E1
102
{ACAD_REACTORS
330
C
102
}
330
C
100
AcDbDictionary
281
     1
  3
A0
350
E2
  3
A1
350
E3
  3
A2
350
E4
  3
A3
350
E5
  3
A4
350
E6
  3
A5
350
E7
  3
A6
350
E8
  3
A7
350
E9
  3
A8
350
EA
  3
A9
350
EB
  3
B0
350
EC
  3
B1
350
ED
  3
B2
350
EE
  3
B3
350
EF
  3
B4
350
F0
  3
B5
350
F1
  3
B6
350
F2
  3
B7
350
F3
  3
B8
350
F4
  3
B9
350
F5
  3
C0
350
F6
  3
C1
350
F7
  3
C2
350
F8
  3
C3
350
F9
  3
C4
350
FA
  3
C5
350
FB
  3
C6
350
FC
  3
C7
350
FD
  3
C8
350
FE
  3
C9
350
FF
  3
D0
350
100
  3
D1
350
101
  3
D2
350
102
  0
DICTIONARY
  5
291
102
{ACAD_REACTORS
330
C
102
}
330
C
100
AcDbDictionary
281
     1
  0
DICTIONARY
  5
28C
102
{ACAD_REACTORS
330
C
102
}
330
C
100
AcDbDictionary
281
     1
  0
DICTIONARY
  5
122
102
{ACAD_REACTORS
330
C
102
}
330
C
100
AcDbDictionary
281
     1
  0
XRECORD
  5
293
102
{ACAD_REACTORS
330
C
102
}
330
C
100
AcDbXrecord
280
     1
  1
DWGPROPS COOKIE
  2

  3

  4

  6

  7

  8
Reiko
  9

300
=
301
=
302
=
303
=
304
=
305
=
306
=
307
=
308
=
309
=
 40
0.0
 41
2456599.407158669
 42
2456599.442733901
  1

 90
        0
  0
LAYOUT
  5
1E
102
{ACAD_REACTORS
330
1A
102
}
330
1A
100
AcDbPlotSettings
  1

  2
none_device
  4

  6

 40
0.0
 41
0.0
 42
0.0
 43
0.0
 44
0.0
 45
0.0
 46
0.0
 47
0.0
 48
0.0
 49
0.0
140
0.0
141
0.0
142
1.0
143
1.0
 70
   688
 72
     0
 73
     0
 74
     5
  7

 75
    16
147
1.0
148
0.0
149
0.0
100
AcDbLayout
  1
Layout1
 70
     1
 71
     1
 10
0.0
 20
0.0
 11
420.0
 21
297.0
 12
0.0
 22
0.0
 32
0.0
 14
1.000000000000000E+20
 24
1.000000000000000E+20
 34
1.000000000000000E+20
 15
-1.000000000000000E+20
 25
-1.000000000000000E+20
 35
-1.000000000000000E+20
146
0.0
 13
0.0
 23
0.0
 33
0.0
 16
1.0
 26
0.0
 36
0.0
 17
0.0
 27
1.0
 37
0.0
 76
     0
330
1B
  0
LAYOUT
  5
26
102
{ACAD_REACTORS
330
1A
102
}
330
1A
100
AcDbPlotSettings
  1

  2
none_device
  4

  6

 40
0.0
 41
0.0
 42
0.0
 43
0.0
 44
0.0
 45
0.0
 46
0.0
 47
0.0
 48
0.0
 49
0.0
140
0.0
141
0.0
142
1.0
143
1.0
 70
   688
 72
     0
 73
     0
 74
     5
  7

 75
    16
147
1.0
148
0.0
149
0.0
100
AcDbLayout
  1
Layout2
 70
     1
 71
     2
 10
0.0
 20
0.0
 11
0.0
 21
0.0
 12
0.0
 22
0.0
 32
0.0
 14
0.0
 24
0.0
 34
0.0
 15
0.0
 25
0.0
 35
0.0
146
0.0
 13
0.0
 23
0.0
 33
0.0
 16
1.0
 26
0.0
 36
0.0
 17
0.0
 27
1.0
 37
0.0
 76
     0
330
23
  0
LAYOUT
  5
22
102
{ACAD_REACTORS
330
1A
102
}
330
1A
100
AcDbPlotSettings
  1

  2
none_device
  4
ANSI_A_(11.00_x_8.50_Inches)
  6

 40
6.35
 41
19.05
 42
6.35000508
 43
19.05000254
 44
279.4
 45
215.9
 46
133.34999746
 47
88.89999873
 48
0.0
 49
0.0
140
0.0
141
0.0
142
0.0482533827
143
1.0
 70
  1696
 72
     0
 73
     0
 74
     0
  7

 75
     0
147
0.0179189148
148
0.0
149
0.0
100
AcDbLayout
  1
Model
 70
     1
 71
     0
 10
0.0
 20
0.0
 11
420.0
 21
297.0
 12
0.0
 22
0.0
 32
0.0
 14
-65.9827560573
 24
-87.1959594929
 34
0.0
 15
65.9827560573
 25
87.1959594929
 35
0.0
146
0.0
 13
0.0
 23
0.0
 33
0.0
 16
1.0
 26
0.0
 36
0.0
 17
0.0
 27
1.0
 37
0.0
 76
     0
330
1F
331
29
  0
MLINESTYLE
  5
18
102
{ACAD_REACTORS
330
17
102
}
330
17
100
AcDbMlineStyle
  2
Standard
 70
     0
  3

 62
   256
 51
90.0
 52
90.0
 71
     2
 49
0.5
 62
   256
  6
BYLAYER
 49
-0.5
 62
   256
  6
BYLAYER
  0
ACDBPLACEHOLDER
  5
F
102
{ACAD_REACTORS
330
E
102
}
330
E
  0
SCALE
  5
E2
102
{ACAD_REACTORS
330
E1
102
}
330
E1
100
AcDbScale
 70
     0
300
1:1
140
1.0
141
1.0
290
     1
  0
SCALE
  5
E3
102
{ACAD_REACTORS
330
E1
102
}
330
E1
100
AcDbScale
 70
     0
300
1:2
140
1.0
141
2.0
290
     0
  0
SCALE
  5
E4
102
{ACAD_REACTORS
330
E1
102
}
330
E1
100
AcDbScale
 70
     0
300
1:4
140
1.0
141
4.0
290
     0
  0
SCALE
  5
E5
102
{ACAD_REACTORS
330
E1
102
}
330
E1
100
AcDbScale
 70
     0
300
1:5
140
1.0
141
5.0
290
     0
  0
SCALE
  5
E6
102
{ACAD_REACTORS
330
E1
102
}
330
E1
100
AcDbScale
 70
     0
300
1:8
140
1.0
141
8.0
290
     0
  0
SCALE
  5
E7
102
{ACAD_REACTORS
330
E1
102
}
330
E1
100
AcDbScale
 70
     0
300
1:10
140
1.0
141
10.0
290
     0
  0
SCALE
  5
E8
102
{ACAD_REACTORS
330
E1
102
}
330
E1
100
AcDbScale
 70
     0
300
1:16
140
1.0
141
16.0
290
     0
  0
SCALE
  5
E9
102
{ACAD_REACTORS
330
E1
102
}
330
E1
100
AcDbScale
 70
     0
300
1:20
140
1.0
141
20.0
290
     0
  0
SCALE
  5
EA
102
{ACAD_REACTORS
330
E1
102
}
330
E1
100
AcDbScale
 70
     0
300
1:30
140
1.0
141
30.0
290
     0
  0
SCALE
  5
EB
102
{ACAD_REACTORS
330
E1
102
}
330
E1
100
AcDbScale
 70
     0
300
1:40
140
1.0
141
40.0
290
     0
  0
SCALE
  5
EC
102
{ACAD_REACTORS
330
E1
102
}
330
E1
100
AcDbScale
 70
     0
300
1:50
140
1.0
141
50.0
290
     0
  0
SCALE
  5
ED
102
{ACAD_REACTORS
330
E1
102
}
330
E1
100
AcDbScale
 70
     0
300
1:100
140
1.0
141
100.0
290
     0
  0
SCALE
  5
EE
102
{ACAD_REACTORS
330
E1
102
}
330
E1
100
AcDbScale
 70
     0
300
2:1
140
2.0
141
1.0
290
     0
  0
SCALE
  5
EF
102
{ACAD_REACTORS
330
E1
102
}
330
E1
100
AcDbScale
 70
     0
300
4:1
140
4.0
141
1.0
290
     0
  0
SCALE
  5
F0
102
{ACAD_REACTORS
330
E1
102
}
330
E1
100
AcDbScale
 70
     0
300
8:1
140
8.0
141
1.0
290
     0
  0
SCALE
  5
F1
102
{ACAD_REACTORS
330
E1
102
}
330
E1
100
AcDbScale
 70
     0
300
10:1
140
10.0
141
1.0
290
     0
  0
SCALE
  5
F2
102
{ACAD_REACTORS
330
E1
102
}
330
E1
100
AcDbScale
 70
     0
300
100:1
140
100.0
141
1.0
290
     0
  0
SCALE
  5
F3
102
{ACAD_REACTORS
330
E1
102
}
330
E1
100
AcDbScale
 70
     0
300
1/128" = 1'-0"
140
0.0078125
141
12.0
290
     0
  0
SCALE
  5
F4
102
{ACAD_REACTORS
330
E1
102
}
330
E1
100
AcDbScale
 70
     0
300
1/64" = 1'-0"
140
0.015625
141
12.0
290
     0
  0
SCALE
  5
F5
102
{ACAD_REACTORS
330
E1
102
}
330
E1
100
AcDbScale
 70
     0
300
1/32" = 1'-0"
140
0.03125
141
12.0
290
     0
  0
SCALE
  5
F6
102
{ACAD_REACTORS
330
E1
102
}
330
E1
100
AcDbScale
 70
     0
300
1/16" = 1'-0"
140
0.0625
141
12.0
290
     0
  0
SCALE
  5
F7
102
{ACAD_REACTORS
330
E1
102
}
330
E1
100
AcDbScale
 70
     0
300
3/32" = 1'-0"
140
0.09375
141
12.0
290
     0
  0
SCALE
  5
F8
102
{ACAD_REACTORS
330
E1
102
}
330
E1
100
AcDbScale
 70
     0
300
1/8" = 1'-0"
140
0.125
141
12.0
290
     0
  0
SCALE
  5
F9
102
{ACAD_REACTORS
330
E1
102
}
330
E1
100
AcDbScale
 70
     0
300
3/16" = 1'-0"
140
0.1875
141
12.0
290
     0
  0
SCALE
  5
FA
102
{ACAD_REACTORS
330
E1
102
}
330
E1
100
AcDbScale
 70
     0
300
1/4" = 1'-0"
140
0.25
141
12.0
290
     0
  0
SCALE
  5
FB
102
{ACAD_REACTORS
330
E1
102
}
330
E1
100
AcDbScale
 70
     0
300
3/8" = 1'-0"
140
0.375
141
12.0
290
     0
  0
SCALE
  5
FC
102
{ACAD_REACTORS
330
E1
102
}
330
E1
100
AcDbScale
 70
     0
300
1/2" = 1'-0"
140
0.5
141
12.0
290
     0
  0
SCALE
  5
FD
102
{ACAD_REACTORS
330
E1
102
}
330
E1
100
AcDbScale
 70
     0
300
3/4" = 1'-0"
140
0.75
141
12.0
290
     0
  0
SCALE
  5
FE
102
{ACAD_REACTORS
330
E1
102
}
330
E1
100
AcDbScale
 70
     0
300
1" = 1'-0"
140
1.0
141
12.0
290
     0
  0
SCALE
  5
FF
102
{ACAD_REACTORS
330
E1
102
}
330
E1
100
AcDbScale
 70
     0
300
1-1/2" = 1'-0"
140
1.5
141
12.0
290
     0
  0
SCALE
  5
100
102
{ACAD_REACTORS
330
E1
102
}
330
E1
100
AcDbScale
 70
     0
300
3" = 1'-0"
140
3.0
141
12.0
290
     0
  0
SCALE
  5
101
102
{ACAD_REACTORS
330
E1
102
}
330
E1
100
AcDbScale
 70
     0
300
6" = 1'-0"
140
6.0
141
12.0
290
     0
  0
SCALE
  5
102
102
{ACAD_REACTORS
330
E1
102
}
330
E1
100
AcDbScale
 70
     0
300
1'-0" = 1'-0"
140
12.0
141
12.0
290
     0
  0
ENDSEC
  0
EOF
